<svg width="24" height="24" viewBox="0 0 24 24" fill="none" xmlns="http://www.w3.org/2000/svg">
<path fillRule="evenodd" clipRule="evenodd" d="M6.51992 2.51992C7.97333 1.06652 9.94457 0.25 12 0.25C14.0554 0.25 16.0267 1.06652 17.4801 2.51992C18.9335 3.97333 19.75 5.94457 19.75 8V12.9955C19.7789 15.3301 20.432 17.6144 21.6415 19.6115C21.7818 19.8431 21.7863 20.1323 21.6534 20.3682C21.5205 20.6041 21.2708 20.75 21 20.75H3C2.72924 20.75 2.4795 20.6041 2.34659 20.3682C2.21367 20.1323 2.21822 19.8431 2.35848 19.6115C3.56801 17.6144 4.22109 15.33 4.25 12.9954V8C4.25 5.94457 5.06652 3.97333 6.51992 2.51992ZM12 1.75C10.3424 1.75 8.75269 2.40848 7.58058 3.58058C6.40848 4.75268 5.75 6.3424 5.75 8V13.009C5.72387 15.1793 5.21377 17.3107 4.2636 19.25H19.7364C18.7862 17.3107 18.2762 15.1793 18.2501 13.009L18.2499 13L18.25 8C18.25 6.3424 17.5915 4.75268 16.4194 3.58058C15.2473 2.40848 13.6576 1.75 12 1.75Z" fill="#6D8C8E"/>
<path d="M9.17401 22C9.3818 22.5832 9.76496 23.0879 10.2709 23.4447C10.7769 23.8016 11.3809 23.9932 12 23.9932C12.6192 23.9932 13.2231 23.8016 13.7291 23.4447C14.2351 23.0879 14.6182 22.5832 14.826 22H9.17401Z" fill="#6D8C8E"/>
</svg>
