<svg width="24" height="24" viewBox="0 0 24 24" fill="none" xmlns="http://www.w3.org/2000/svg">
<g clipPath="url(#clip0_27117_11850)">
<path d="M1.8577 6.14434L12 0.288675L22.1423 6.14434V17.8557L12 23.7113L1.8577 17.8557V6.14434Z" fill="#1C2322" stroke="#31403C" strokeWidth="0.5"/>
<path d="M12.225 2.84123C12.0858 2.76084 11.9142 2.76084 11.775 2.84123L4.18077 7.22576C4.04154 7.30614 3.95577 7.4547 3.95577 7.61547V16.3845C3.95577 16.5453 4.04154 16.6939 4.18077 16.7742L11.775 21.1588C11.9142 21.2392 12.0858 21.2392 12.225 21.1588L19.8192 16.7742C19.9585 16.6939 20.0442 16.5453 20.0442 16.3845V7.61547C20.0442 7.4547 19.9585 7.30614 19.8192 7.22576L12.225 2.84123Z" fill="url(#paint0_linear_27117_11850)" fill-opacity="0.2" stroke="#31403C" strokeWidth="0.5"/>
<path d="M11.8143 8.46424C11.8814 8.29661 12.1186 8.29661 12.1857 8.46424L14.2608 13.6521C14.3338 13.8345 14.1276 14.0018 13.9642 13.8928L12.1109 12.6573C12.0438 12.6125 11.9562 12.6125 11.8891 12.6573L10.0358 13.8928C9.87237 14.0018 9.66621 13.8345 9.73915 13.6521L11.8143 8.46424Z" fill="url(#paint1_linear_27117_11850)" stroke="#31403C" strokeWidth="0.2"/>
<path fillRule="evenodd" clipRule="evenodd" d="M12.1 2.78979C12.0382 2.75406 11.9619 2.75406 11.9 2.78979L4.07375 7.30829C4.01187 7.34402 3.97375 7.41004 3.97375 7.4815V16.5185C3.97375 16.59 4.01187 16.656 4.07375 16.6917L11.9 21.2102C11.9619 21.2459 12.0382 21.2459 12.1 21.2102L19.9263 16.6917C19.9882 16.656 20.0263 16.59 20.0263 16.5185V7.4815C20.0263 7.41004 19.9882 7.34402 19.9263 7.30829L12.1 2.78979ZM21.5263 6.61547C21.5263 6.54402 21.4882 6.47799 21.4263 6.44227L12.1 1.05774C12.0382 1.02201 11.9619 1.02201 11.9 1.05773L2.57375 6.44227C2.51187 6.47799 2.47375 6.54402 2.47375 6.61547V17.3845C2.47375 17.456 2.51187 17.522 2.57375 17.5577L11.9 22.9423C11.9619 22.978 12.0382 22.978 12.1 22.9423L21.4263 17.5577C21.4882 17.522 21.5263 17.456 21.5263 17.3845V6.61547Z" fill="url(#paint2_linear_27117_11850)" stroke="#31403C" strokeWidth="0.2"/>
<path d="M12.0994 20.4897L19.3994 16.3077C19.4616 16.272 19.5 16.2058 19.5 16.1341V14.7452C19.5 14.5915 19.3339 14.4953 19.2005 14.5717L12.0995 18.643C12.0379 18.6783 11.9621 18.6783 11.9005 18.643L4.79948 14.5717C4.66614 14.4953 4.5 14.5915 4.5 14.7452V16.1341C4.5 16.2058 4.53837 16.272 4.60058 16.3077L11.9006 20.4897C11.9622 20.525 12.0378 20.525 12.0994 20.4897Z" fill="url(#paint3_linear_27117_11850)" stroke="#31403C" strokeWidth="0.2"/>
</g>
<defs>
<linearGradient id="paint0_linear_27117_11850" x1="12.1688" y1="3.57623" x2="20.7613" y2="20.7613" gradientUnits="userSpaceOnUse">
<stop stopColor="#DBC0A5"/>
<stop offset="1" stopColor="#917455" stop-opacity="0"/>
</linearGradient>
<linearGradient id="paint1_linear_27117_11850" x1="9.5" y1="8" x2="12.5488" y2="10.439" gradientUnits="userSpaceOnUse">
<stop stopColor="#DBC0A5"/>
<stop offset="1" stopColor="#917455"/>
</linearGradient>
<linearGradient id="paint2_linear_27117_11850" x1="2.47375" y1="1" x2="13.3609" y2="10.4286" gradientUnits="userSpaceOnUse">
<stop stopColor="#DBC0A5"/>
<stop offset="1" stopColor="#917455"/>
</linearGradient>
<linearGradient id="paint3_linear_27117_11850" x1="4.5" y1="14.4" x2="6.65659" y2="19.6629" gradientUnits="userSpaceOnUse">
<stop stopColor="#DBC0A5"/>
<stop offset="1" stopColor="#917455"/>
</linearGradient>
<clipPath id="clip0_27117_11850">
<rect width="24" height="24" fill="white"/>
</clipPath>
</defs>
</svg>
