<svg width="120" height="120" viewBox="0 0 120 120" fill="none" xmlns="http://www.w3.org/2000/svg">
<path d="M119.986 60.0024C119.986 93.1333 93.1237 119.995 59.9784 120C26.8571 120 -0.00479762 93.1333 2.57257e-06 59.9976C-0.00959781 26.8619 26.8523 0 59.988 0C93.1237 0 119.986 26.8667 119.986 60.0024Z" fill="#EAB300"/>
<path fillRule="evenodd" clipRule="evenodd" d="M83.5954 45.3042C82.8225 37.2686 75.8863 34.5757 67.1211 33.8077V22.6569H60.3384V33.5101C58.5576 33.5101 56.7335 33.5437 54.9238 33.5821V22.6569H48.1412L48.1364 33.7981L48.0636 33.7995H48.0636C46.6198 33.8278 45.1994 33.8557 43.8162 33.8557V33.8221L34.4606 33.8173V41.0656C34.4606 41.0656 39.472 40.9696 39.3856 41.0608C42.1361 41.0608 43.029 42.6545 43.2882 44.0321V56.7334C43.4802 56.7334 43.725 56.743 44.0034 56.7814H43.2882L43.2834 74.5757C43.1634 75.4398 42.6545 76.8174 40.7345 76.8222C40.8209 76.899 35.8047 76.8222 35.8047 76.8222L34.4558 84.9249H43.2882C44.2841 84.9249 45.2712 84.9356 46.2474 84.946H46.2475L46.2499 84.9461C46.8819 84.9528 47.5093 84.9596 48.1316 84.9634L48.1364 96.239H54.9142V85.0834C56.7719 85.1218 58.572 85.1362 60.3336 85.1362L60.3288 96.239H67.1115V84.9874C78.5168 84.3345 86.5091 81.4592 87.4979 70.7452C88.2996 62.1192 84.2434 58.2647 77.7679 56.7094C81.7089 54.7125 84.1714 51.1844 83.5954 45.3042ZM74.1006 69.4107C74.1006 77.1485 61.9312 76.9732 56.3806 76.8933C55.8882 76.8862 55.4478 76.8798 55.0726 76.8798V61.9368C55.5415 61.9378 56.1122 61.925 56.7593 61.9105C62.4647 61.7824 74.1006 61.5211 74.1006 69.4107ZM56.2072 55.1186C60.8517 55.1919 70.9421 55.3513 70.9421 48.3331C70.9464 41.1502 61.223 41.4075 56.4694 41.5333C55.9337 41.5475 55.4611 41.56 55.0726 41.56V55.1062C55.3963 55.1058 55.7786 55.1118 56.2072 55.1186Z" fill="white"/>
<path d="M43.2978 56.4358H44.3058V57.1798H43.2978V56.4358Z" fill="white"/>
</svg>
