<svg width="24" height="24" viewBox="0 0 24 24" fill="#6D8C8E" xmlns="http://www.w3.org/2000/svg">
<g clipPath="url(#clip0_12024_20834)">
<path fillRule="evenodd" clipRule="evenodd" d="M12 1.75C6.33908 1.75 1.75 6.33908 1.75 12C1.75 17.6609 6.33908 22.25 12 22.25C17.6609 22.25 22.25 17.6609 22.25 12C22.25 6.33908 17.6609 1.75 12 1.75ZM0.25 12C0.25 5.51065 5.51065 0.25 12 0.25C18.4893 0.25 23.75 5.51065 23.75 12C23.75 18.4893 18.4893 23.75 12 23.75C5.51065 23.75 0.25 18.4893 0.25 12Z" fill="#6D8C8E"/>
<path d="M12 19C12.5523 19 13 18.5523 13 18C13 17.4477 12.5523 17 12 17C11.4477 17 11 17.4477 11 18C11 18.5523 11.4477 19 12 19Z" fill="#6D8C8E"/>
<path fillRule="evenodd" clipRule="evenodd" d="M12.9058 6.77011C12.0444 6.68925 11.037 6.85675 10.1562 7.24601L9.47016 7.54917L8.86385 6.17717L9.54985 5.87401C10.649 5.38828 11.9126 5.17028 13.046 5.27667C14.161 5.38134 15.2962 5.82074 15.908 6.81076C17.0671 8.6865 16.1568 10.7292 14.5259 12.1112C13.0123 13.3937 12.75 13.8804 12.75 14.5V15.25H11.25V14.5C11.25 13.1196 12.0697 12.2263 13.5562 10.9668C14.9252 9.80678 15.2229 8.55553 14.632 7.59927C14.3688 7.17329 13.7855 6.85268 12.9058 6.77011Z" fill="#6D8C8E"/>
</g>
<defs>
<clipPath id="clip0_12024_20834">
<rect width="24" height="24" fill="#6D8C8E"/>
</clipPath>
</defs>
</svg>
