<svg width="20" height="20" viewBox="0 0 20 20" fill="none" xmlns="http://www.w3.org/2000/svg">
<path d="M11.2499 10C11.2499 10.6904 10.6903 11.25 9.99992 11.25C9.30956 11.25 8.74992 10.6904 8.74992 10C8.74992 9.30968 9.30956 8.75004 9.99992 8.75004C10.6903 8.75004 11.2499 9.30968 11.2499 10Z" fill="#6D8C8E" stroke="#6D8C8E" strokeWidth="0.833333"/>
<path d="M2.49992 11.6667C3.42039 11.6667 4.16659 10.9205 4.16659 10C4.16659 9.07957 3.42039 8.33337 2.49992 8.33337C1.57944 8.33337 0.833252 9.07957 0.833252 10C0.833252 10.9205 1.57944 11.6667 2.49992 11.6667Z" fill="#6D8C8E"/>
<path d="M17.4999 11.6667C18.4204 11.6667 19.1666 10.9205 19.1666 10C19.1666 9.07957 18.4204 8.33337 17.4999 8.33337C16.5794 8.33337 15.8333 9.07957 15.8333 10C15.8333 10.9205 16.5794 11.6667 17.4999 11.6667Z" fill="#6D8C8E"/>
</svg>
