<svg width="25" height="24" viewBox="0 0 25 24" fill="none" xmlns="http://www.w3.org/2000/svg">
<path opacity="0.2" d="M12.5 5.25C5 5.25 2 12 2 12C2 12 5 18.75 12.5 18.75C20 18.75 23 12 23 12C23 12 20 5.25 12.5 5.25ZM12.5 15.75C11.7583 15.75 11.0333 15.5301 10.4166 15.118C9.79993 14.706 9.31928 14.1203 9.03545 13.4351C8.75162 12.7498 8.67736 11.9958 8.82205 11.2684C8.96675 10.541 9.3239 9.8728 9.84835 9.34835C10.3728 8.8239 11.041 8.46675 11.7684 8.32205C12.4958 8.17736 13.2498 8.25162 13.9351 8.53545C14.6203 8.81928 15.206 9.29993 15.618 9.91661C16.0301 10.5333 16.25 11.2583 16.25 12C16.25 12.9946 15.8549 13.9484 15.1517 14.6517C14.4484 15.3549 13.4946 15.75 12.5 15.75Z" fill="#1F1F1F"/>
<path d="M23.6853 11.6962C23.6525 11.6222 22.8584 9.86062 21.0931 8.09531C18.7409 5.74312 15.77 4.5 12.5 4.5C9.22999 4.5 6.25905 5.74312 3.90687 8.09531C2.14155 9.86062 1.34374 11.625 1.31468 11.6962C1.27203 11.7922 1.25 11.896 1.25 12.0009C1.25 12.1059 1.27203 12.2097 1.31468 12.3056C1.34749 12.3797 2.14155 14.1403 3.90687 15.9056C6.25905 18.2569 9.22999 19.5 12.5 19.5C15.77 19.5 18.7409 18.2569 21.0931 15.9056C22.8584 14.1403 23.6525 12.3797 23.6853 12.3056C23.7279 12.2097 23.75 12.1059 23.75 12.0009C23.75 11.896 23.7279 11.7922 23.6853 11.6962ZM12.5 18C9.61437 18 7.09343 16.9509 5.00655 14.8828C4.15028 14.0313 3.42179 13.0603 2.84374 12C3.42164 10.9396 4.15014 9.9686 5.00655 9.11719C7.09343 7.04906 9.61437 6 12.5 6C15.3856 6 17.9066 7.04906 19.9934 9.11719C20.8514 9.9684 21.5815 10.9394 22.1609 12C21.485 13.2619 18.5403 18 12.5 18ZM12.5 7.5C11.61 7.5 10.7399 7.76392 9.99993 8.25839C9.2599 8.75285 8.68313 9.45566 8.34253 10.2779C8.00194 11.1002 7.91282 12.005 8.08646 12.8779C8.26009 13.7508 8.68867 14.5526 9.31801 15.182C9.94735 15.8113 10.7492 16.2399 11.6221 16.4135C12.495 16.5872 13.3998 16.4981 14.2221 16.1575C15.0443 15.8169 15.7471 15.2401 16.2416 14.5001C16.7361 13.76 17 12.89 17 12C16.9988 10.8069 16.5242 9.66303 15.6806 8.81939C14.837 7.97575 13.6931 7.50124 12.5 7.5ZM12.5 15C11.9066 15 11.3266 14.8241 10.8333 14.4944C10.3399 14.1648 9.95542 13.6962 9.72835 13.1481C9.50129 12.5999 9.44188 11.9967 9.55764 11.4147C9.67339 10.8328 9.95911 10.2982 10.3787 9.87868C10.7982 9.45912 11.3328 9.1734 11.9147 9.05764C12.4967 8.94189 13.0999 9.0013 13.648 9.22836C14.1962 9.45542 14.6648 9.83994 14.9944 10.3333C15.324 10.8266 15.5 11.4067 15.5 12C15.5 12.7956 15.1839 13.5587 14.6213 14.1213C14.0587 14.6839 13.2956 15 12.5 15Z" fill="#1F1F1F"/>
</svg>
