<svg width="215" height="38" viewBox="0 0 215 38" fill="none" xmlns="http://www.w3.org/2000/svg">
  <path d="M20.2301 9.27533H35.364C36.3002 9.27533 37.0627 8.5225 37.0627 7.58628V1.68906C37.0627 0.752837 36.3002 0 35.364 0H10.9644C10.0282 0 9.26568 0.752837 9.26568 1.68906V7.58628C9.26568 8.5225 8.50319 9.27533 7.56697 9.27533H1.69871C0.762488 9.27533 0 10.0282 0 10.9644V35.393C0 36.3292 0.762488 37.082 1.69871 37.082H7.55732C8.49354 37.082 9.25603 36.3292 9.25603 35.393V20.2301C9.25603 19.2939 10.0185 18.541 10.9547 18.541H16.823C17.7496 18.541 18.5217 19.2939 18.5217 20.2301V35.393C18.5217 36.3292 19.2939 37.082 20.2204 37.082H26.0887C27.0249 37.082 27.7874 36.3292 27.7874 35.393V29.5054C27.7874 28.6271 28.4534 27.9032 29.2931 27.8067H35.3544C36.2809 27.8067 37.0531 27.0539 37.0531 26.1176V20.2204C37.0531 19.2842 36.2906 18.5314 35.3544 18.5314H20.2108C19.2746 18.5314 18.5121 17.7785 18.5121 16.8423V10.9547C18.5121 10.0185 19.2746 9.26568 20.2108 9.26568L20.2301 9.27533Z" fill="#FCFCFC"/>
  <path d="M53.2271 29.4147V6.94967C53.2271 3.01382 55.1822 1.0459 59.0925 1.0459H62.6577L64.4212 2.34933V4.30447H59.2075C57.6996 4.30447 56.9457 5.05842 56.9457 6.56631V9.40318H64.0379V12.6618H56.9457V29.4147H53.2271Z" fill="#FCFCFC"/>
  <path d="M66.4779 23.5109V9.40318H70.1965V23.8943C70.1965 25.4021 70.9504 26.1561 72.4583 26.1561H79.4739V9.40318H83.1925V29.4147H72.3433C68.433 29.4147 66.4779 27.4467 66.4779 23.5109Z" fill="#FCFCFC"/>
  <path d="M87.4819 23.5109V2.96271H91.2005V9.40318H98.2927V12.6618H91.2005V23.8943C91.2005 25.4021 91.9545 26.1561 93.4624 26.1561H98.6761V28.1112L96.9126 29.4147H93.3474C89.4371 29.4147 87.4819 27.4467 87.4819 23.5109Z" fill="#FCFCFC"/>
  <path d="M106.356 29.4147C102.421 29.4147 100.453 27.4595 100.453 23.5492C100.453 19.6389 102.421 17.6838 106.356 17.6838H112.835V14.8853C112.835 13.4029 112.094 12.6618 110.612 12.6618H102.408V10.7066L104.171 9.40318H110.688C114.599 9.40318 116.554 11.3583 116.554 15.2686V29.4147H106.356ZM104.171 23.8943C104.171 25.4021 104.925 26.1561 106.433 26.1561H112.835V20.5973H106.433C104.925 20.5973 104.171 21.3513 104.171 22.8592V23.8943Z" fill="#FCFCFC"/>
  <path d="M120.692 29.4147V11.78C121.587 10.1955 123.286 9.40318 125.791 9.40318H129.739L131.503 10.7066V12.6618H126.519C125.522 12.6618 124.82 12.9173 124.411 13.4285V29.4147H120.692Z" fill="#FCFCFC"/>
  <path d="M133.643 23.5109V15.2686C133.643 11.3583 135.599 9.40318 139.509 9.40318H146.908L148.671 10.7066V12.6618H139.624C138.116 12.6618 137.362 13.4029 137.362 14.8853V23.8943C137.362 25.4021 138.116 26.1561 139.624 26.1561H148.671V28.1112L146.908 29.4147H139.509C135.599 29.4147 133.643 27.4467 133.643 23.5109Z" fill="#FCFCFC"/>
  <path d="M151.884 29.4147V1.0459H155.603V9.40318H162.733C166.644 9.40318 168.599 11.3583 168.599 15.2686V29.4147H164.88V14.8853C164.88 13.4029 164.139 12.6618 162.657 12.6618H155.603V29.4147H151.884Z" fill="#FCFCFC"/>
  <path d="M170.626 10.0166L171.048 9.40318H174.268L179.712 26.1561H180.402L185.884 9.40318H189.066L189.488 10.0166L180.402 37.0819H177.182L176.799 36.4685L179.29 29.4147H177.182L170.626 10.0166Z" fill="#FCFCFC"/>
</svg>
