<svg width="316" height="59" viewBox="0 0 316 59" fill="none" xmlns="http://www.w3.org/2000/svg">
<path d="M30.0366 13.7716H52.5068C53.8968 13.7716 55.029 12.6538 55.029 11.2637V2.50783C55.029 1.11778 53.8968 0 52.5068 0H16.2794C14.8893 0 13.7572 1.11778 13.7572 2.50783V11.2637C13.7572 12.6538 12.6251 13.7716 11.2351 13.7716H2.52216C1.13211 13.7716 0 14.8893 0 16.2794V52.5498C0 53.9398 1.13211 55.0576 2.52216 55.0576H11.2207C12.6108 55.0576 13.7429 53.9398 13.7429 52.5498V30.0366C13.7429 28.6466 14.875 27.5288 16.2651 27.5288H24.978C26.3537 27.5288 27.5001 28.6466 27.5001 30.0366V52.5498C27.5001 53.9398 28.6466 55.0576 30.0223 55.0576H38.7352C40.1253 55.0576 41.2574 53.9398 41.2574 52.5498V43.8082C41.2574 42.5041 42.2462 41.4294 43.4929 41.286H52.4925C53.8682 41.286 55.0146 40.1683 55.0146 38.7782V30.0223C55.0146 28.6323 53.8825 27.5145 52.4925 27.5145H30.008C28.6179 27.5145 27.4858 26.3967 27.4858 25.0067V16.2651C27.4858 14.875 28.6179 13.7572 30.008 13.7572L30.0366 13.7716Z" fill="black"/>
<path d="M81.9481 46.514V23.7124H78.7603V19.4439H81.9481V17.3366C81.9481 14.7431 82.1823 12.7259 82.6506 11.285C83.1188 9.80814 83.9113 8.79954 85.028 8.25921C86.1446 7.68287 87.6215 7.3947 89.4586 7.3947C89.9269 7.3947 90.5393 7.41271 91.2957 7.44873C92.0882 7.48475 92.8446 7.53878 93.5651 7.61083C94.2855 7.64685 94.8078 7.70088 95.132 7.77293L95.078 11.8253C94.4656 11.7893 93.7272 11.7713 92.8626 11.7713C91.9981 11.7713 91.2957 11.7713 90.7554 11.7713C89.7828 11.7713 89.0264 11.9334 88.486 12.2576C87.9457 12.5458 87.5495 13.1041 87.2973 13.9326C87.0812 14.7251 86.9731 15.8597 86.9731 17.3366V19.4439H94.4296V23.7124H86.9731V46.514H81.9481Z" fill="black"/>
<path d="M107.287 47.0543C104.946 47.0543 103.145 46.586 101.884 45.6494C100.659 44.6769 99.8127 43.2 99.3444 41.2188C98.8761 39.2376 98.642 36.6801 98.642 33.5462V19.4439H103.667V33.4922C103.667 35.7255 103.775 37.5086 103.991 38.8414C104.207 40.1742 104.676 41.1288 105.396 41.7051C106.152 42.2814 107.269 42.5696 108.746 42.5696C110.187 42.5696 111.502 42.3715 112.69 41.9753C113.915 41.579 114.906 41.2008 115.662 40.8406V19.4439H120.633V46.514H115.662V44.6769C114.509 45.3252 113.267 45.8836 111.934 46.3519C110.637 46.8201 109.088 47.0543 107.287 47.0543Z" fill="black"/>
<path d="M137.011 47.1083C135.102 47.1083 133.571 46.8201 132.418 46.2438C131.301 45.6674 130.491 44.6769 129.986 43.272C129.518 41.8312 129.284 39.814 129.284 37.2204V23.7124H125.61V19.4439H129.284V11.5011H134.255V19.4439H142.306V23.7124H134.255V35.8156C134.255 37.5806 134.327 38.9675 134.471 39.9761C134.651 40.9486 134.993 41.6331 135.498 42.0293C136.002 42.4255 136.795 42.6236 137.875 42.6236C138.235 42.6236 138.686 42.6236 139.226 42.6236C139.766 42.5876 140.325 42.5516 140.901 42.5156C141.477 42.4435 141.982 42.3895 142.414 42.3535L142.684 46.4599C142.144 46.568 141.513 46.658 140.793 46.7301C140.109 46.8381 139.424 46.9282 138.74 47.0002C138.055 47.0723 137.479 47.1083 137.011 47.1083Z" fill="black"/>
<path d="M153.195 47.0543C150.638 47.0543 148.693 46.3519 147.36 44.947C146.027 43.5422 145.361 41.471 145.361 38.7333C145.361 36.8962 145.685 35.4194 146.333 34.3027C146.982 33.15 147.936 32.2855 149.197 31.7092C150.494 31.1328 152.097 30.7906 154.006 30.6825L161.841 29.9261V27.8188C161.841 26.1258 161.462 24.9371 160.706 24.2527C159.949 23.5323 158.815 23.1721 157.302 23.1721C156.365 23.1721 155.267 23.2081 154.006 23.2801C152.745 23.3522 151.502 23.4422 150.278 23.5503C149.053 23.6584 147.954 23.7664 146.982 23.8745L146.766 20.2003C147.666 19.9842 148.729 19.7861 149.953 19.606C151.214 19.4259 152.529 19.2638 153.898 19.1197C155.267 18.9756 156.527 18.9035 157.68 18.9035C159.805 18.9035 161.552 19.2097 162.921 19.8221C164.29 20.4345 165.299 21.389 165.947 22.6858C166.595 23.9826 166.92 25.6576 166.92 27.7108V41.0027C166.992 41.7231 167.28 42.2634 167.784 42.6236C168.324 42.9478 168.991 43.164 169.783 43.272L169.621 47.0002C169.117 47.0002 168.613 46.9822 168.108 46.9462C167.604 46.9462 167.136 46.9102 166.703 46.8381C166.271 46.7661 165.857 46.676 165.461 46.568C164.884 46.4239 164.362 46.2258 163.894 45.9736C163.462 45.6855 163.047 45.3613 162.651 45.0011C162.003 45.2892 161.156 45.5954 160.112 45.9196C159.067 46.2438 157.95 46.514 156.762 46.7301C155.573 46.9462 154.384 47.0543 153.195 47.0543ZM154.222 43.0559C155.123 43.0559 156.041 42.9658 156.978 42.7857C157.95 42.6056 158.869 42.4075 159.733 42.1914C160.598 41.9392 161.3 41.7231 161.841 41.543V33.4382L154.654 34.1406C153.141 34.2487 152.061 34.6809 151.412 35.4374C150.764 36.1578 150.44 37.2024 150.44 38.5712C150.44 39.9761 150.746 41.0747 151.358 41.8672C152.007 42.6597 152.961 43.0559 154.222 43.0559Z" fill="black"/>
<path d="M174.42 46.514V19.4439H179.445V22.9559C180.093 22.4877 180.922 21.9834 181.93 21.4431C182.939 20.9027 184.038 20.3984 185.226 19.9302C186.451 19.4259 187.658 19.0656 188.846 18.8495V23.8745C187.694 24.0906 186.505 24.3968 185.28 24.793C184.092 25.1893 182.975 25.6215 181.93 26.0898C180.922 26.5221 180.093 26.9183 179.445 27.2785V46.514H174.42Z" fill="black"/>
<path d="M203.103 47.0543C200.185 47.0543 197.897 46.586 196.24 45.6494C194.583 44.6769 193.413 43.1279 192.728 41.0027C192.044 38.8774 191.702 36.0858 191.702 32.6277C191.702 29.2777 192.08 26.6121 192.836 24.6309C193.593 22.6137 194.818 21.1549 196.511 20.2543C198.204 19.3538 200.419 18.9035 203.157 18.9035C203.805 18.9035 204.579 18.9576 205.48 19.0656C206.416 19.1377 207.353 19.2457 208.29 19.3898C209.262 19.5339 210.091 19.66 210.775 19.7681L210.613 23.8745C210.001 23.8025 209.28 23.7304 208.452 23.6584C207.623 23.5863 206.831 23.5323 206.074 23.4963C205.318 23.4242 204.687 23.3882 204.183 23.3882C202.238 23.3882 200.725 23.6944 199.644 24.3068C198.6 24.9191 197.861 25.8917 197.429 27.2245C197.033 28.5573 196.835 30.3584 196.835 32.6277C196.835 35.0772 197.015 37.0403 197.375 38.5172C197.771 39.9581 198.492 41.0027 199.536 41.6511C200.581 42.2634 202.13 42.5696 204.183 42.5696C204.687 42.5696 205.318 42.5516 206.074 42.5156C206.867 42.4435 207.677 42.3715 208.506 42.2994C209.37 42.2274 210.109 42.1734 210.721 42.1374L210.883 46.2438C210.163 46.3519 209.316 46.4599 208.344 46.568C207.407 46.7121 206.471 46.8201 205.534 46.8922C204.597 47.0002 203.787 47.0543 203.103 47.0543Z" fill="black"/>
<path d="M216.527 46.514V7.93502H221.552V20.7947C222.2 20.5065 222.957 20.2363 223.821 19.9842C224.722 19.696 225.676 19.4439 226.685 19.2277C227.694 19.0116 228.648 18.9035 229.549 18.9035C231.422 18.9035 232.953 19.1557 234.141 19.66C235.366 20.1283 236.321 20.9027 237.005 21.9834C237.69 23.028 238.158 24.3968 238.41 26.0898C238.698 27.7828 238.842 29.818 238.842 32.1954V46.514H233.763V32.5196C233.763 30.2863 233.637 28.5032 233.385 27.1705C233.133 25.8377 232.629 24.8831 231.872 24.3068C231.152 23.6944 230.035 23.3882 228.522 23.3882C227.694 23.3882 226.829 23.4602 225.929 23.6043C225.064 23.7484 224.236 23.9465 223.443 24.1987C222.687 24.4148 222.056 24.6309 221.552 24.8471V46.514H216.527Z" fill="black"/>
<path d="M251.439 58.293L254.897 46.514H250.412L243.064 19.4439H248.197L254.303 42.1914H256.032L262.191 19.4439H267.216L256.572 58.293H251.439Z" fill="black"/>
<path d="M272.037 46.514V40.1922H276.629V46.514H272.037Z" fill="black"/>
<path d="M289.963 47.0543C287.477 47.0543 285.586 46.3519 284.29 44.947C282.993 43.5422 282.344 41.489 282.344 38.7874C282.344 37.0223 282.651 35.5815 283.263 34.4648C283.875 33.3481 284.794 32.5016 286.019 31.9253C287.279 31.3129 288.828 30.9347 290.665 30.7906L298.986 29.9801V27.6567C298.986 25.8197 298.572 24.5229 297.744 23.7664C296.951 23.01 295.762 22.6318 294.177 22.6318C293.277 22.6318 292.196 22.6678 290.936 22.7398C289.711 22.8119 288.486 22.9019 287.261 23.01C286.037 23.118 284.956 23.2261 284.019 23.3342L283.803 20.1463C284.668 19.9662 285.712 19.7861 286.937 19.606C288.162 19.4259 289.441 19.2818 290.773 19.1737C292.106 19.0296 293.331 18.9576 294.448 18.9576C296.501 18.9576 298.176 19.2818 299.473 19.9302C300.769 20.5425 301.706 21.4971 302.282 22.7939C302.895 24.0546 303.201 25.6756 303.201 27.6567V41.3269C303.273 42.1193 303.579 42.6957 304.119 43.0559C304.696 43.4161 305.416 43.6502 306.281 43.7583L306.119 47.0543C305.614 47.0543 305.128 47.0363 304.66 47.0002C304.191 46.9642 303.741 46.8922 303.309 46.7841C302.913 46.7121 302.516 46.622 302.12 46.514C301.652 46.3338 301.202 46.1177 300.769 45.8656C300.373 45.6134 299.977 45.3072 299.581 44.947C298.896 45.2352 298.014 45.5414 296.933 45.8656C295.888 46.1898 294.754 46.4599 293.529 46.6761C292.34 46.9282 291.152 47.0543 289.963 47.0543ZM290.665 43.5422C291.638 43.5422 292.647 43.4521 293.691 43.272C294.736 43.0919 295.726 42.8758 296.663 42.6236C297.599 42.3715 298.374 42.1374 298.986 41.9212V33.114L291.152 33.8704C289.531 34.0145 288.36 34.4828 287.64 35.2753C286.955 36.0677 286.613 37.2024 286.613 38.6793C286.613 40.1922 286.955 41.3809 287.64 42.2454C288.324 43.1099 289.333 43.5422 290.665 43.5422Z" fill="black"/>
<path d="M311.195 46.514V19.4979H315.355V46.514H311.195ZM311.195 13.5544V8.69147H315.355V13.5544H311.195Z" fill="black"/>
</svg>
