<svg width="128" height="22" viewBox="0 0 128 22" fill="none" xmlns="http://www.w3.org/2000/svg">
<path d="M12.0021 5.50286H20.9807C21.5362 5.50286 21.9885 5.05622 21.9885 4.50078V1.00208C21.9885 0.446642 21.5362 0 20.9807 0H6.50494C5.9495 0 5.49714 0.446642 5.49714 1.00208V4.50078C5.49714 5.05622 5.04477 5.50286 4.48933 5.50286H1.00781C0.452368 5.50286 0 5.94951 0 6.50495V20.9979C0 21.5534 0.452368 22 1.00781 22H4.4836C5.03904 22 5.49141 21.5534 5.49141 20.9979V12.0021C5.49141 11.4466 5.94378 11 6.49922 11H9.98074C10.5305 11 10.9885 11.4466 10.9885 12.0021V20.9979C10.9885 21.5534 11.4466 22 11.9964 22H15.4779C16.0333 22 16.4857 21.5534 16.4857 20.9979V17.5049C16.4857 16.9839 16.8808 16.5544 17.379 16.4971H20.975C21.5247 16.4971 21.9828 16.0505 21.9828 15.4951V11.9964C21.9828 11.4409 21.5305 10.9943 20.975 10.9943H11.9906C11.4352 10.9943 10.9828 10.5476 10.9828 9.99219V6.49922C10.9828 5.94378 11.4352 5.49714 11.9906 5.49714L12.0021 5.50286Z" fill="white"/>
<path d="M31.5785 17.4512V4.12319C31.5785 1.78813 32.7384 0.620605 35.0583 0.620605H37.1735L38.2198 1.3939V2.55385H35.1266C34.232 2.55385 33.7847 3.00115 33.7847 3.89575V5.57881H37.9923V7.51205H33.7847V17.4512H31.5785Z" fill="white"/>
<path d="M39.4399 13.9486V5.57881H41.6461V14.1761C41.6461 15.0707 42.0934 15.518 42.988 15.518H47.1502V5.57881H49.3563V17.4512H42.9198C40.5999 17.4512 39.4399 16.2837 39.4399 13.9486Z" fill="white"/>
<path d="M51.9012 13.9486V1.75781H54.1074V5.57881H58.315V7.51205H54.1074V14.1761C54.1074 15.0707 54.5547 15.518 55.4493 15.518H58.5425V16.6779L57.4962 17.4512H55.381C53.0611 17.4512 51.9012 16.2837 51.9012 13.9486Z" fill="white"/>
<path d="M63.0991 17.4512C60.764 17.4512 59.5965 16.2913 59.5965 13.9714C59.5965 11.6515 60.764 10.4915 63.0991 10.4915H66.9428V8.83121C66.9428 7.95177 66.5031 7.51205 65.6237 7.51205H60.7564V6.35211L61.8027 5.57881H65.6692C67.9891 5.57881 69.149 6.73876 69.149 9.05865V17.4512H63.0991ZM61.8027 14.1761C61.8027 15.0707 62.25 15.518 63.1446 15.518H66.9428V12.2201H63.1446C62.25 12.2201 61.8027 12.6674 61.8027 13.562V14.1761Z" fill="white"/>
<path d="M71.6041 17.4512V6.98894C72.1348 6.04885 73.1431 5.57881 74.6291 5.57881H76.9717L78.0179 6.35211V7.51205H75.0612C74.4699 7.51205 74.0529 7.66368 73.8103 7.96693V17.4512H71.6041Z" fill="white"/>
<path d="M79.2879 13.9486V9.05865C79.2879 6.73876 80.4478 5.57881 82.7677 5.57881H87.1573L88.2035 6.35211V7.51205H82.8359C81.9413 7.51205 81.494 7.95177 81.494 8.83121V14.1761C81.494 15.0707 81.9413 15.518 82.8359 15.518H88.2035V16.6779L87.1573 17.4512H82.7677C80.4478 17.4512 79.2879 16.2837 79.2879 13.9486Z" fill="white"/>
<path d="M90.1098 17.4512V0.620605H92.316V5.57881H96.5463C98.8662 5.57881 100.026 6.73876 100.026 9.05865V17.4512H97.82V8.83121C97.82 7.95177 97.3803 7.51205 96.5009 7.51205H92.316V17.4512H90.1098Z" fill="white"/>
<path d="M101.229 5.94271L101.479 5.57881H103.39L106.619 15.518H107.029L110.281 5.57881H112.169L112.419 5.94271L107.029 22H105.118L104.891 21.6361L106.369 17.4512H105.118L101.229 5.94271Z" fill="white"/>
</svg>
