<svg width="286" height="286" viewBox="0 0 286 286" fill="none" xmlns="http://www.w3.org/2000/svg">
<path d="M156.108 71.5372H272.892C280.116 71.5372 286 65.7309 286 58.5102V13.0271C286 5.80635 280.116 0 272.892 0H84.6083C77.3839 0 71.5 5.80635 71.5 13.0271V58.5102C71.5 65.7309 65.6161 71.5372 58.3917 71.5372H13.1083C5.88385 71.5372 0 77.3436 0 84.5643V272.973C0 280.194 5.88385 286 13.1083 286H58.3172C65.5417 286 71.4255 280.194 71.4255 272.973V156.027C71.4255 148.806 77.3094 143 84.5339 143H129.817C136.967 143 142.926 148.806 142.926 156.027V272.973C142.926 280.194 148.884 286 156.034 286H201.317C208.542 286 214.426 280.194 214.426 272.973V227.564C214.426 220.79 219.565 215.207 226.044 214.463H272.817C279.967 214.463 285.926 208.656 285.926 201.436V155.953C285.926 148.732 280.042 142.926 272.817 142.926H155.959C148.735 142.926 142.851 137.119 142.851 129.898V84.4899C142.851 77.2691 148.735 71.4628 155.959 71.4628L156.108 71.5372Z" fill="white" fill-opacity="0.05"/>
<path d="M156.108 71.5372H272.892C280.116 71.5372 286 65.7309 286 58.5102V13.0271C286 5.80635 280.116 0 272.892 0H84.6083C77.3839 0 71.5 5.80635 71.5 13.0271V58.5102C71.5 65.7309 65.6161 71.5372 58.3917 71.5372H13.1083C5.88385 71.5372 0 77.3436 0 84.5643V272.973C0 280.194 5.88385 286 13.1083 286H58.3172C65.5417 286 71.4255 280.194 71.4255 272.973V156.027C71.4255 148.806 77.3094 143 84.5339 143H129.817C136.967 143 142.926 148.806 142.926 156.027V272.973C142.926 280.194 148.884 286 156.034 286H201.317C208.542 286 214.426 280.194 214.426 272.973V227.564C214.426 220.79 219.565 215.207 226.044 214.463H272.817C279.967 214.463 285.926 208.656 285.926 201.436V155.953C285.926 148.732 280.042 142.926 272.817 142.926H155.959C148.735 142.926 142.851 137.119 142.851 129.898V84.4899C142.851 77.2691 148.735 71.4628 155.959 71.4628L156.108 71.5372Z" fill="black" fill-opacity="0.05"/>
</svg>
