<svg width="129" height="130" viewBox="0 0 129 130" fill="none" xmlns="http://www.w3.org/2000/svg">
<path d="M70.4125 32.2836H123.087C126.346 32.2836 129 29.6633 129 26.4047V5.87891C129 2.62031 126.346 0 123.087 0H38.1625C34.9039 0 32.25 2.62031 32.25 5.87891V26.4047C32.25 29.6633 29.5961 32.2836 26.3375 32.2836H5.9125C2.65391 32.2836 0 34.9039 0 38.1625V123.188C0 126.447 2.65391 129.067 5.9125 129.067H26.3039C29.5625 129.067 32.2164 126.447 32.2164 123.188V70.4125C32.2164 67.1539 34.8703 64.5336 38.1289 64.5336H58.5539C61.7789 64.5336 64.4664 67.1539 64.4664 70.4125V123.188C64.4664 126.447 67.1539 129.067 70.3789 129.067H90.8039C94.0625 129.067 96.7164 126.447 96.7164 123.188V102.696C96.7164 99.6391 99.0344 97.1195 101.957 96.7836H123.054C126.279 96.7836 128.966 94.1633 128.966 90.9047V70.3789C128.966 67.1203 126.312 64.5 123.054 64.5H70.3453C67.0867 64.5 64.4328 61.8797 64.4328 58.6211V38.1289C64.4328 34.8703 67.0867 32.25 70.3453 32.25L70.4125 32.2836Z" fill="white"/>
</svg>
