<svg width="316" height="60" viewBox="0 0 316 60" fill="none" xmlns="http://www.w3.org/2000/svg">
<path d="M30.4448 14.7361H52.915C54.305 14.7361 55.4372 13.6183 55.4372 12.2283V3.47238C55.4372 2.08232 54.305 0.964546 52.915 0.964546H16.6876C15.2975 0.964546 14.1654 2.08232 14.1654 3.47238V12.2283C14.1654 13.6183 13.0333 14.7361 11.6433 14.7361H2.93036C1.54031 14.7361 0.408203 15.8539 0.408203 17.2439V53.5143C0.408203 54.9044 1.54031 56.0222 2.93036 56.0222H11.629C13.019 56.0222 14.1511 54.9044 14.1511 53.5143V31.0012C14.1511 29.6111 15.2832 28.4934 16.6733 28.4934H25.3862C26.7619 28.4934 27.9083 29.6111 27.9083 31.0012V53.5143C27.9083 54.9044 29.0548 56.0222 30.4305 56.0222H39.1434C40.5335 56.0222 41.6656 54.9044 41.6656 53.5143V44.7728C41.6656 43.4687 42.6544 42.3939 43.9011 42.2506H52.9007C54.2764 42.2506 55.4228 41.1328 55.4228 39.7428V30.9869C55.4228 29.5968 54.2907 28.479 52.9007 28.479H30.4162C29.0261 28.479 27.894 27.3613 27.894 25.9712V17.2296C27.894 15.8396 29.0261 14.7218 30.4162 14.7218L30.4448 14.7361Z" fill="white"/>
<path d="M82.3564 47.4785V24.6769H79.1685V20.4084H82.3564V18.3012C82.3564 15.7076 82.5905 13.6904 83.0588 12.2496C83.527 10.7727 84.3195 9.76408 85.4362 9.22376C86.5528 8.64742 88.0297 8.35925 89.8668 8.35925C90.3351 8.35925 90.9475 8.37726 91.7039 8.41328C92.4964 8.4493 93.2528 8.50333 93.9733 8.57538C94.6937 8.6114 95.216 8.66543 95.5402 8.73747L95.4862 12.7899C94.8738 12.7539 94.1354 12.7359 93.2708 12.7359C92.4063 12.7359 91.7039 12.7359 91.1636 12.7359C90.191 12.7359 89.4346 12.8979 88.8942 13.2221C88.3539 13.5103 87.9577 14.0686 87.7055 14.8971C87.4894 15.6896 87.3813 16.8243 87.3813 18.3012V20.4084H94.8378V24.6769H87.3813V47.4785H82.3564Z" fill="white"/>
<path d="M107.695 48.0188C105.354 48.0188 103.553 47.5505 102.292 46.614C101.067 45.6414 100.221 44.1645 99.7526 42.1834C99.2843 40.2022 99.0502 37.6447 99.0502 34.5108V20.4084H104.075V34.4568C104.075 36.6901 104.183 38.4732 104.399 39.8059C104.615 41.1387 105.084 42.0933 105.804 42.6696C106.561 43.246 107.677 43.5342 109.154 43.5342C110.595 43.5342 111.91 43.336 113.099 42.9398C114.323 42.5436 115.314 42.1653 116.07 41.8051V20.4084H121.041V47.4785H116.07V45.6414C114.918 46.2898 113.675 46.8481 112.342 47.3164C111.045 47.7847 109.496 48.0188 107.695 48.0188Z" fill="white"/>
<path d="M137.419 48.0729C135.51 48.0729 133.979 47.7847 132.826 47.2083C131.709 46.632 130.899 45.6414 130.395 44.2366C129.926 42.7957 129.692 40.7785 129.692 38.185V24.6769H126.018V20.4084H129.692V12.4657H134.663V20.4084H142.714V24.6769H134.663V36.7801C134.663 38.5452 134.735 39.932 134.879 40.9406C135.059 41.9132 135.402 42.5976 135.906 42.9938C136.41 43.3901 137.203 43.5882 138.283 43.5882C138.644 43.5882 139.094 43.5882 139.634 43.5882C140.175 43.5522 140.733 43.5161 141.309 43.4801C141.886 43.4081 142.39 43.3541 142.822 43.318L143.092 47.4245C142.552 47.5325 141.922 47.6226 141.201 47.6946C140.517 47.8027 139.832 47.8927 139.148 47.9648C138.464 48.0368 137.887 48.0729 137.419 48.0729Z" fill="white"/>
<path d="M153.604 48.0188C151.046 48.0188 149.101 47.3164 147.768 45.9116C146.435 44.5067 145.769 42.4355 145.769 39.6979C145.769 37.8608 146.093 36.3839 146.742 35.2672C147.39 34.1146 148.344 33.25 149.605 32.6737C150.902 32.0974 152.505 31.7552 154.414 31.6471L162.249 30.8906V28.7834C162.249 27.0904 161.871 25.9017 161.114 25.2173C160.358 24.4968 159.223 24.1366 157.71 24.1366C156.773 24.1366 155.675 24.1726 154.414 24.2447C153.153 24.3167 151.911 24.4068 150.686 24.5149C149.461 24.6229 148.362 24.731 147.39 24.839L147.174 21.1649C148.074 20.9487 149.137 20.7506 150.362 20.5705C151.622 20.3904 152.937 20.2283 154.306 20.0842C155.675 19.9401 156.936 19.8681 158.088 19.8681C160.214 19.8681 161.961 20.1743 163.329 20.7866C164.698 21.399 165.707 22.3536 166.355 23.6503C167.004 24.9471 167.328 26.6221 167.328 28.6753V41.9672C167.4 42.6877 167.688 43.228 168.192 43.5882C168.733 43.9124 169.399 44.1285 170.191 44.2366L170.029 47.9648C169.525 47.9648 169.021 47.9468 168.516 47.9108C168.012 47.9108 167.544 47.8747 167.112 47.8027C166.679 47.7306 166.265 47.6406 165.869 47.5325C165.293 47.3884 164.77 47.1903 164.302 46.9382C163.87 46.65 163.455 46.3258 163.059 45.9656C162.411 46.2538 161.564 46.56 160.52 46.8841C159.475 47.2083 158.358 47.4785 157.17 47.6946C155.981 47.9108 154.792 48.0188 153.604 48.0188ZM154.63 44.0204C155.531 44.0204 156.449 43.9304 157.386 43.7503C158.358 43.5702 159.277 43.3721 160.141 43.1559C161.006 42.9038 161.708 42.6877 162.249 42.5075V34.4027L155.062 35.1051C153.55 35.2132 152.469 35.6455 151.821 36.4019C151.172 37.1223 150.848 38.167 150.848 39.5358C150.848 40.9406 151.154 42.0393 151.767 42.8317C152.415 43.6242 153.369 44.0204 154.63 44.0204Z" fill="white"/>
<path d="M174.828 47.4785V20.4084H179.853V23.9205C180.501 23.4522 181.33 22.9479 182.339 22.4076C183.347 21.8673 184.446 21.363 185.635 20.8947C186.859 20.3904 188.066 20.0302 189.255 19.8141V24.839C188.102 25.0552 186.913 25.3614 185.689 25.7576C184.5 26.1538 183.383 26.5861 182.339 27.0544C181.33 27.4866 180.501 27.8829 179.853 28.2431V47.4785H174.828Z" fill="white"/>
<path d="M203.511 48.0188C200.593 48.0188 198.306 47.5505 196.649 46.614C194.992 45.6414 193.821 44.0925 193.137 41.9672C192.452 39.842 192.11 37.0503 192.11 33.5922C192.11 30.2423 192.488 27.5767 193.245 25.5955C194.001 23.5783 195.226 22.1194 196.919 21.2189C198.612 20.3184 200.827 19.8681 203.565 19.8681C204.213 19.8681 204.988 19.9221 205.888 20.0302C206.825 20.1022 207.761 20.2103 208.698 20.3544C209.67 20.4985 210.499 20.6245 211.183 20.7326L211.021 24.839C210.409 24.767 209.688 24.695 208.86 24.6229C208.031 24.5509 207.239 24.4968 206.482 24.4608C205.726 24.3888 205.096 24.3528 204.591 24.3528C202.646 24.3528 201.133 24.6589 200.053 25.2713C199.008 25.8837 198.27 26.8562 197.837 28.189C197.441 29.5218 197.243 31.3229 197.243 33.5922C197.243 36.0417 197.423 38.0049 197.783 39.4817C198.18 40.9226 198.9 41.9672 199.945 42.6156C200.989 43.228 202.538 43.5342 204.591 43.5342C205.096 43.5342 205.726 43.5161 206.482 43.4801C207.275 43.4081 208.085 43.336 208.914 43.264C209.778 43.192 210.517 43.1379 211.129 43.1019L211.291 47.2083C210.571 47.3164 209.724 47.4245 208.752 47.5325C207.815 47.6766 206.879 47.7847 205.942 47.8567C205.006 47.9648 204.195 48.0188 203.511 48.0188Z" fill="white"/>
<path d="M216.935 47.4785V8.89957H221.96V21.7592C222.609 21.471 223.365 21.2009 224.229 20.9487C225.13 20.6606 226.085 20.4084 227.093 20.1923C228.102 19.9762 229.056 19.8681 229.957 19.8681C231.83 19.8681 233.361 20.1202 234.55 20.6245C235.774 21.0928 236.729 21.8673 237.413 22.9479C238.098 23.9925 238.566 25.3614 238.818 27.0544C239.106 28.7474 239.25 30.7826 239.25 33.16V47.4785H234.171V33.4842C234.171 31.2509 234.045 29.4678 233.793 28.135C233.541 26.8022 233.037 25.8476 232.28 25.2713C231.56 24.6589 230.443 24.3528 228.93 24.3528C228.102 24.3528 227.237 24.4248 226.337 24.5689C225.472 24.713 224.644 24.9111 223.851 25.1632C223.095 25.3794 222.464 25.5955 221.96 25.8116V47.4785H216.935Z" fill="white"/>
<path d="M251.847 59.2575L255.305 47.4785H250.82L243.472 20.4084H248.605L254.711 43.1559H256.44L262.599 20.4084H267.624L256.98 59.2575H251.847Z" fill="white"/>
<path d="M272.445 47.4785V41.1567H277.037V47.4785H272.445Z" fill="white"/>
<path d="M290.371 48.0188C287.886 48.0188 285.995 47.3164 284.698 45.9116C283.401 44.5067 282.753 42.4535 282.753 39.7519C282.753 37.9869 283.059 36.546 283.671 35.4293C284.284 34.3127 285.202 33.4662 286.427 32.8898C287.688 32.2775 289.236 31.8992 291.074 31.7552L299.395 30.9447V28.6213C299.395 26.7842 298.98 25.4874 298.152 24.731C297.359 23.9745 296.171 23.5963 294.586 23.5963C293.685 23.5963 292.604 23.6323 291.344 23.7044C290.119 23.7764 288.894 23.8665 287.67 23.9745C286.445 24.0826 285.364 24.1907 284.428 24.2987L284.211 21.1108C285.076 20.9307 286.121 20.7506 287.345 20.5705C288.57 20.3904 289.849 20.2463 291.182 20.1382C292.514 19.9942 293.739 19.9221 294.856 19.9221C296.909 19.9221 298.584 20.2463 299.881 20.8947C301.178 21.5071 302.114 22.4616 302.69 23.7584C303.303 25.0191 303.609 26.6401 303.609 28.6213V42.2914C303.681 43.0839 303.987 43.6602 304.528 44.0204C305.104 44.3807 305.824 44.6148 306.689 44.7229L306.527 48.0188C306.022 48.0188 305.536 48.0008 305.068 47.9648C304.6 47.9288 304.149 47.8567 303.717 47.7487C303.321 47.6766 302.925 47.5866 302.528 47.4785C302.06 47.2984 301.61 47.0823 301.178 46.8301C300.781 46.578 300.385 46.2718 299.989 45.9116C299.304 46.1997 298.422 46.5059 297.341 46.8301C296.297 47.1543 295.162 47.4245 293.937 47.6406C292.749 47.8927 291.56 48.0188 290.371 48.0188ZM291.074 44.5067C292.046 44.5067 293.055 44.4167 294.099 44.2366C295.144 44.0565 296.135 43.8403 297.071 43.5882C298.008 43.336 298.782 43.1019 299.395 42.8858V34.0785L291.56 34.835C289.939 34.9791 288.768 35.4473 288.048 36.2398C287.363 37.0323 287.021 38.167 287.021 39.6438C287.021 41.1567 287.363 42.3455 288.048 43.21C288.732 44.0745 289.741 44.5067 291.074 44.5067Z" fill="white"/>
<path d="M311.603 47.4785V20.4624H315.764V47.4785H311.603ZM311.603 14.5189V9.65602H315.764V14.5189H311.603Z" fill="white"/>
</svg>
