<svg width="56" height="56" viewBox="0 0 56 56" fill="#000000" xmlns="http://www.w3.org/2000/svg">
<path d="M30.0366 13.7716H52.5068C53.8968 13.7716 55.029 12.6538 55.029 11.2637V2.50783C55.029 1.11778 53.8968 0 52.5068 0H16.2794C14.8893 0 13.7572 1.11778 13.7572 2.50783V11.2637C13.7572 12.6538 12.6251 13.7716 11.2351 13.7716H2.52216C1.13211 13.7716 0 14.8893 0 16.2794V52.5498C0 53.9398 1.13211 55.0576 2.52216 55.0576H11.2207C12.6108 55.0576 13.7429 53.9398 13.7429 52.5498V30.0366C13.7429 28.6466 14.875 27.5288 16.2651 27.5288H24.978C26.3537 27.5288 27.5001 28.6466 27.5001 30.0366V52.5498C27.5001 53.9398 28.6466 55.0576 30.0223 55.0576H38.7352C40.1253 55.0576 41.2574 53.9398 41.2574 52.5498V43.8082C41.2574 42.5041 42.2462 41.4294 43.4929 41.286H52.4925C53.8682 41.286 55.0146 40.1683 55.0146 38.7782V30.0223C55.0146 28.6323 53.8825 27.5145 52.4925 27.5145H30.008C28.6179 27.5145 27.4858 26.3967 27.4858 25.0067V16.2651C27.4858 14.875 28.6179 13.7572 30.008 13.7572L30.0366 13.7716Z" fill="white"/>
</svg>
