<svg width="193" height="43" viewBox="0 0 193 43" fill="none" xmlns="http://www.w3.org/2000/svg">
<path d="M189.602 5.56563V1.85522H192.859V5.56563H189.602ZM189.783 33.4842V10.0453H192.633V33.4842H189.783Z" fill="black"/>
<path d="M174.348 33.4842V6.65158C174.348 2.21719 176.565 0 180.999 0H184.981L186.52 1.17647V2.48869H180.909C178.435 2.48869 177.198 3.72549 177.198 6.19909V10.0452H186.067V12.5792H177.198V33.4842H174.348Z" fill="black"/>
<path d="M163.951 33.484V28.5972H168.34V33.484H163.951Z" fill="black"/>
<path d="M139.879 10.5883L140.286 9.95483H143.408L150.286 30.3168H151.191L158.069 9.95483H161.191L161.598 10.5883L150.558 42.534H147.435L147.028 41.9005L150.06 33.4842H147.797L139.879 10.5883Z" fill="black"/>
<path d="M117.438 33.4842V0H121.058V9.95475H130.108C134.633 9.95475 136.895 12.2172 136.895 16.7421V33.4842H133.276V16.2896C133.276 14.178 132.22 13.1222 130.108 13.1222H121.058V33.4842H117.438Z" fill="black"/>
<path d="M95.6328 26.6969V16.7422C95.6328 12.2173 97.8953 9.95483 102.42 9.95483H111.289L113.099 11.3123V13.1223H102.42C100.309 13.1223 99.2527 14.1781 99.2527 16.2897V27.1494C99.2527 29.261 100.309 30.3168 102.42 30.3168H113.099V32.1268L111.289 33.4842H102.42C97.8953 33.4842 95.6328 31.2218 95.6328 26.6969Z" fill="black"/>
<path d="M80.3359 33.4842V12.6698C81.3917 10.8598 83.3525 9.95483 86.2183 9.95483H90.7432L92.5531 11.3123V13.1223H86.716C85.4491 13.1223 84.529 13.4692 83.9558 14.163V33.4842H80.3359Z" fill="black"/>
<path d="M62.9146 33.4842C58.3596 33.4842 56.082 31.2067 56.082 26.6517C56.082 22.0966 58.3596 19.8191 62.9146 19.8191H71.1952V16.2897C71.1952 14.1781 70.1393 13.1223 68.0277 13.1223H58.3445V11.3123L60.1544 9.95483H68.0277C72.5526 9.95483 74.8151 12.2173 74.8151 16.7422V33.4842H62.9146ZM59.7019 27.1494C59.7019 29.261 60.7577 30.3168 62.8694 30.3168H71.1952V22.7603H62.8694C60.7577 22.7603 59.7019 23.8161 59.7019 25.9277V27.1494Z" fill="black"/>
<path d="M40.8066 26.6968V2.26245H44.4265V9.95476H53.0238V13.1222H44.4265V27.1493C44.4265 29.2609 45.4824 30.3168 47.594 30.3168H53.4763V32.1267L51.6664 33.4842H47.594C43.0691 33.4842 40.8066 31.2217 40.8066 26.6968Z" fill="black"/>
<path d="M15.6504 26.6969V9.95483H19.2703V27.1494C19.2703 29.261 20.3261 30.3168 22.4377 30.3168H31.4875V9.95483H35.1074V33.4842H22.4377C17.9128 33.4842 15.6504 31.2218 15.6504 26.6969Z" fill="black"/>
<path d="M0 33.4842V6.78733C0 2.26244 2.26244 0 6.78733 0H10.8597L12.6697 1.35747V3.16742H6.78733C4.67572 3.16742 3.61991 4.22323 3.61991 6.33484V9.95475H12.2172V13.1222H3.61991V33.4842H0Z" fill="black"/>
</svg>
