<svg width="24" height="24" viewBox="0 0 24 24" fill="none" xmlns="http://www.w3.org/2000/svg">
<path d="M10.2619 12.5632C11.3394 13.1866 11.8781 13.4976 12.47 13.4983C13.0619 13.4983 13.6006 13.188 14.6788 12.5674L21.5385 8.61714C21.8486 8.43884 22.04 8.10781 22.04 7.74983C22.04 7.39184 21.8486 7.06081 21.5385 6.88251L14.6767 2.9302C13.5993 2.30961 13.0605 2 12.47 2C11.8788 2 11.3401 2.31099 10.264 2.93227L4.36703 6.3331C4.31937 6.36075 4.2952 6.37457 4.2731 6.38839C2.26117 7.57015 1.01865 9.72287 1 12.0574V12.2744C1.01796 14.6061 2.25841 16.7567 4.26688 17.9399L4.3615 17.9952L8.04832 20.1279C10.206 21.3753 11.2848 21.9993 12.47 22C13.6545 22 14.734 21.3773 16.8924 20.1306L20.7892 17.8798C21.868 17.2571 22.4074 16.9454 22.7037 16.4319C23 15.9191 23 15.2958 23 14.0491V11.6344C22.9993 11.2944 22.8184 10.98 22.5241 10.81C22.2299 10.6399 21.8673 10.6393 21.5724 10.8086L13.5716 15.416C13.0336 15.7256 12.7649 15.8804 12.4693 15.8804C12.1744 15.8804 11.9057 15.7263 11.3677 15.4167L5.9542 12.3034C5.68207 12.1472 5.5467 12.0684 5.43688 12.0546C5.18824 12.0228 4.94927 12.1617 4.85464 12.3939C4.8132 12.4962 4.81389 12.6531 4.81597 12.9675C4.81666 13.1977 4.81735 13.3131 4.83945 13.4195C4.8878 13.6565 5.01212 13.8715 5.19377 14.0304C5.27526 14.1023 5.37541 14.1596 5.57502 14.2751L11.3642 17.6227C11.9037 17.935 12.1737 18.0905 12.4693 18.0905C12.7663 18.0905 13.0357 17.935 13.5751 17.6234L20.6711 13.5252C20.8555 13.4188 20.9473 13.3663 21.0164 13.4057C21.0855 13.4457 21.0855 13.5522 21.0855 13.765V14.859C21.0855 15.1707 21.0855 15.3262 21.0116 15.4547C20.9377 15.5833 20.803 15.6607 20.5329 15.8169L14.6815 19.1963C13.602 19.8196 13.0626 20.1313 12.47 20.1306C11.8774 20.1306 11.3373 19.8182 10.2592 19.1942L4.78627 16.027L4.74759 16.0048C3.60107 15.3324 2.89452 14.1057 2.88692 12.7761V11.7256C2.88692 10.991 3.27715 10.3124 3.91188 9.94333C4.47408 9.61714 5.16752 9.61645 5.72973 9.94195L10.2626 12.5625L10.2619 12.5632Z" fill="#6D8C8E"/>
</svg>
