<svg width="24" height="24" viewBox="0 0 24 24" fill="none" xmlns="http://www.w3.org/2000/svg">
<path fillRule="evenodd" clipRule="evenodd" d="M18.8964 2.75H21.25V21.25H2.75V18.8964L18.8964 2.75ZM19.1036 3.25L3.25 19.1036V20.75H20.75V3.25H19.1036Z" fill="url(#paint0_linear_13256_491)"/>
<path d="M3 4C3 3.44772 3.44772 3 4 3L12.5858 3C13.4767 3 13.9229 4.07714 13.2929 4.70711L4.70711 13.2929C4.07714 13.9229 3 13.4767 3 12.5858L3 4Z" fill="url(#paint1_linear_13256_491)"/>
<path d="M18 9V18H9L11 16H16V11L18 9Z" fill="url(#paint2_linear_13256_491)"/>
<defs>
<linearGradient id="paint0_linear_13256_491" x1="12" y1="3" x2="21" y2="21" gradientUnits="userSpaceOnUse">
<stop stopColor="#E3BB42"/>
<stop offset="1" stopColor="#ECD3AF" stop-opacity="0"/>
</linearGradient>
<linearGradient id="paint1_linear_13256_491" x1="3" y1="3" x2="9" y2="15" gradientUnits="userSpaceOnUse">
<stop stopColor="#E3BB42"/>
<stop offset="1" stopColor="#ECD3AF"/>
</linearGradient>
<linearGradient id="paint2_linear_13256_491" x1="10" y1="10" x2="18" y2="18" gradientUnits="userSpaceOnUse">
<stop stopColor="#E3BB42" stop-opacity="0"/>
<stop offset="1" stopColor="#ECD3AF"/>
</linearGradient>
</defs>
</svg>
