<svg width="20" height="20" viewBox="0 0 20 20" fill="none" xmlns="http://www.w3.org/2000/svg">
<g clipPath="url(#clip0_25194_10392)">
<path fillRule="evenodd" clipRule="evenodd" d="M10 1.45825C5.28258 1.45825 1.45834 5.28249 1.45834 9.99992C1.45834 14.7174 5.28258 18.5416 10 18.5416C14.7174 18.5416 18.5417 14.7174 18.5417 9.99992C18.5417 5.28249 14.7174 1.45825 10 1.45825ZM0.208344 9.99992C0.208344 4.59213 4.59222 0.208252 10 0.208252C15.4078 0.208252 19.7917 4.59213 19.7917 9.99992C19.7917 15.4077 15.4078 19.7916 10 19.7916C4.59222 19.7916 0.208344 15.4077 0.208344 9.99992Z" fill="#6D8C8E"/>
<path fillRule="evenodd" clipRule="evenodd" d="M10.625 8.5415V14.7915H9.375V8.5415H10.625Z" fill="#6D8C8E"/>
<path d="M10 6.66667C10.4603 6.66667 10.8334 6.29357 10.8334 5.83333C10.8334 5.3731 10.4603 5 10 5C9.53978 5 9.16669 5.3731 9.16669 5.83333C9.16669 6.29357 9.53978 6.66667 10 6.66667Z" fill="#6D8C8E"/>
</g>
<defs>
<clipPath id="clip0_25194_10392">
<rect width="20" height="20" fill="white"/>
</clipPath>
</defs>
</svg>
