<svg width="24" height="24" viewBox="0 0 24 24" fill="none" xmlns="http://www.w3.org/2000/svg" transform="rotate(90)">
  <path fillRule="evenodd" clipRule="evenodd" d="M11.25 16V2H12.75V16H11.25Z" fill="white"/>
  <path fillRule="evenodd" clipRule="evenodd" d="M12 0.939331L17.0607 5.99999L16 7.06065L12 3.06065L7.99999 7.06065L6.93933 5.99999L12 0.939331Z" fill="white"/>
  <path fillRule="evenodd" clipRule="evenodd" d="M4 10.75C3.66848 10.75 3.35054 10.8817 3.11612 11.1161C2.8817 11.3505 2.75 11.6685 2.75 12V20C2.75 20.3315 2.8817 20.6495 3.11612 20.8839C3.35054 21.1183 3.66848 21.25 4 21.25H20C20.3315 21.25 20.6495 21.1183 20.8839 20.8839C21.1183 20.6495 21.25 20.3315 21.25 20V12C21.25 11.6685 21.1183 11.3505 20.8839 11.1161C20.6495 10.8817 20.3315 10.75 20 10.75H16.25V9.25H20C20.7293 9.25 21.4288 9.53973 21.9445 10.0555C22.4603 10.5712 22.75 11.2707 22.75 12V20C22.75 20.7293 22.4603 21.4288 21.9445 21.9445C21.4288 22.4603 20.7293 22.75 20 22.75H4C3.27065 22.75 2.57118 22.4603 2.05546 21.9445C1.53973 21.4288 1.25 20.7293 1.25 20V12C1.25 11.2707 1.53973 10.5712 2.05546 10.0555C2.57118 9.53973 3.27065 9.25 4 9.25H7.75V10.75H4Z" fill="white"/>
</svg>
