<svg width="18" height="18" viewBox="0 0 18 18" fill="none" xmlns="http://www.w3.org/2000/svg">
<g clipPath="url(#clip0_12033_1940)">
<path fillRule="evenodd" clipRule="evenodd" d="M0.832123 3.08468L1.58889 2.25226L9.00001 8.98977L16.4104 2.25301L17.1671 3.08544L9 10.5102L0.832123 3.08468Z" fill="#6D8C8E"/>
<path fillRule="evenodd" clipRule="evenodd" d="M2.25 2.8125C1.73223 2.8125 1.3125 3.23223 1.3125 3.75V14.25C1.3125 14.7678 1.73223 15.1875 2.25 15.1875H15.75C16.2678 15.1875 16.6875 14.7678 16.6875 14.25V3.75C16.6875 3.23223 16.2678 2.8125 15.75 2.8125H2.25ZM0.1875 3.75C0.1875 2.61091 1.11091 1.6875 2.25 1.6875H15.75C16.8891 1.6875 17.8125 2.61091 17.8125 3.75V14.25C17.8125 15.3891 16.8891 16.3125 15.75 16.3125H2.25C1.11091 16.3125 0.1875 15.3891 0.1875 14.25V3.75Z" fill="#6D8C8E"/>
</g>
<defs>
<clipPath id="clip0_12033_1940">
<rect width="18" height="18" fill="white"/>
</clipPath>
</defs>
</svg>
