<svg width="24" height="24" viewBox="0 0 24 24" fill="none" xmlns="http://www.w3.org/2000/svg">
<path d="M22.16 1.22998L13.03 8.09998L14.7323 4.05007L22.16 1.22998Z" fill="#E17726" stroke="#E17726" strokeWidth="0.166667" strokeLinecap="round" strokeLinejoin="round"/>
<path d="M1.59083 1.33325L10.2472 8.10015L8.69812 4.09525L1.59083 1.33325ZM18.5911 16.8902L16.2641 20.5775L21.2439 21.9999L22.6667 16.9731L18.5911 16.8902ZM0.666687 16.9731L2.08282 21.9999L7.04928 20.5775L4.73559 16.8902L0.666687 16.9731Z" fill="#E27625" stroke="#E27625" strokeWidth="0.166667" strokeLinecap="round" strokeLinejoin="round"/>
<path d="M6.73253 10.5628L5.33334 12.7721L10.3112 13.0114L10.1498 7.40361L6.73253 10.5698V10.5628ZM16.6076 10.5698L13.1365 7.33325L13.0221 13.0114L18 12.7721L16.6076 10.5698ZM7.0016 20.6666L10.022 19.1468L7.4254 17.036L7.0016 20.6666ZM13.3248 19.1398L16.325 20.6666L15.9214 17.0289L13.3248 19.1398Z" fill="#E27625" stroke="#E27625" strokeWidth="0.166667" strokeLinecap="round" strokeLinejoin="round"/>
<path d="M16.6667 20.4098L13.6633 18.6665L13.9057 21.0071L13.8788 21.9998L16.6667 20.4098ZM7.33334 20.4098L10.1347 21.9998L10.1145 21.0071L10.3569 18.6665L7.33334 20.4098Z" fill="#D5BFB2" stroke="#D5BFB2" strokeWidth="0.166667" strokeLinecap="round" strokeLinejoin="round"/>
<path d="M9.83075 15.3275L7.33334 14.7014L9.10178 14.0058L9.8375 15.3275H9.83075ZM13.4824 15.3275L14.2248 14L16 14.6957L13.4824 15.3333V15.3275Z" fill="#233447" stroke="#233447" strokeWidth="0.166667" strokeLinecap="round" strokeLinejoin="round"/>
<path d="M7.00447 20.6665L7.44113 16.859L4.66666 16.9446L7.00447 20.6665ZM15.8922 16.859L16.3154 20.6665L18.6667 16.9446L15.8922 16.859ZM17.9949 12.6665L13.0237 12.9089L13.4805 15.6184L14.2194 13.9784L15.9862 14.8341L17.9949 12.6665ZM7.36051 14.8412L9.12059 13.9856L9.85284 15.6112L10.3164 12.9018L5.34516 12.6665L7.36051 14.8412Z" fill="#CC6228" stroke="#CC6228" strokeWidth="0.166667" strokeLinecap="round" strokeLinejoin="round"/>
<path d="M5.33334 12.6665L7.41978 16.8776L7.35247 14.7895L5.33334 12.6665ZM15.9943 14.7895L15.9136 16.8776L18 12.6665L15.9943 14.7895ZM10.3139 12.9032L9.84273 15.5482L10.435 18.6665L10.5696 14.5528L10.3139 12.9032ZM13.0195 12.9032L12.7772 14.5459L12.8983 18.6665L13.4839 15.5412L13.0195 12.8962V12.9032Z" fill="#E27525" stroke="#E27525" strokeWidth="0.166667" strokeLinecap="round" strokeLinejoin="round"/>
<path d="M13.4843 15.3853L12.8975 18.3737L13.3224 18.6665L15.9191 16.6698L16 14.6665L13.4843 15.3853ZM7.34009 14.6665L7.40753 16.6632L10.0109 18.6598L10.4291 18.3737L9.84229 15.3853L7.33334 14.6665H7.34009Z" fill="#F5841F" stroke="#F5841F" strokeWidth="0.166667" strokeLinecap="round" strokeLinejoin="round"/>
<path d="M13.8855 21.8863L13.9057 21.1247L13.6768 20.9513H10.3367L10.1145 21.1247L10.1347 21.8863L7.33334 20.6665L8.31651 21.4095L10.303 22.6665H13.7037L15.697 21.4033L16.6667 20.6665L13.8788 21.8863H13.8855Z" fill="#C0AC9D" stroke="#C0AC9D" strokeWidth="0.166667" strokeLinecap="round" strokeLinejoin="round"/>
<path d="M13.7442 18.924L13.2966 18.6665H10.6963L10.2558 18.93L10 20.6665L10.2345 20.4988H13.7584L14 20.6665L13.7442 18.93V18.924Z" fill="#161616" stroke="#161616" strokeWidth="0.166667" strokeLinecap="round" strokeLinejoin="round"/>
<path d="M22.5917 8.44665L23.3334 4.76968L22.2142 1.33325L13.6518 7.79373L16.9487 10.6185L21.6007 11.9999L22.6254 10.7834L22.1805 10.4535L22.8884 9.79373L22.349 9.36762L23.0569 8.81779L22.585 8.44665H22.5917ZM0.666687 4.76281L1.42179 8.44665L0.936368 8.81092L1.65776 9.36074L1.1184 9.79373L1.81957 10.4535L1.3746 10.7834L2.39939 11.9999L7.05138 10.6253L10.3482 7.78686L1.78586 1.33325L0.666687 4.76281Z" fill="#763E1A" stroke="#763E1A" strokeWidth="0.166667" strokeLinecap="round" strokeLinejoin="round"/>
<path d="M21.1309 11.9467L16.5434 10.5683L17.9263 12.7256L15.8652 16.8954L18.5911 16.8609H22.6667L21.1309 11.9467ZM6.78334 10.5614L2.19585 11.9467L0.666687 16.8609H4.74224L7.46814 16.8954L5.40709 12.7256L6.78999 10.5614H6.78334ZM12.9997 12.9599L13.2989 7.7218L14.6286 4H8.69812L10.0278 7.7218L10.327 12.9599L10.44 14.6003V18.6667H12.88L12.8933 14.6003L12.9997 12.9599Z" fill="#F5841F" stroke="#F5841F" strokeWidth="0.166667" strokeLinecap="round" strokeLinejoin="round"/>
</svg>
