<svg width="20" height="20" viewBox="0 0 20 20" fill="none" xmlns="http://www.w3.org/2000/svg">
<path d="M18.4667 1.02502L10.8584 6.75002L12.277 3.3751L18.4667 1.02502Z" fill="#E17726" stroke="white" strokeWidth="0.166667" strokeLinecap="round" strokeLinejoin="round"/>
<path d="M1.32579 1.11108L8.53944 6.75017L7.24852 3.41275L1.32579 1.11108ZM15.4927 14.0752L13.5535 17.1479L17.7033 18.3333L18.889 14.1443L15.4927 14.0752ZM0.555664 14.1443L1.73578 18.3333L5.87449 17.1479L3.94642 14.0752L0.555664 14.1443Z" fill="#E27625" stroke="#E27625" strokeWidth="0.166667" strokeLinecap="round" strokeLinejoin="round"/>
<path d="M5.61032 8.80238L4.44434 10.6435L8.59256 10.8428L8.45803 6.16972L5.61032 8.80824V8.80238ZM13.8395 8.80824L10.947 6.11108L10.8517 10.8428L14.9999 10.6435L13.8395 8.80824ZM5.83455 17.2222L8.35152 15.9557L6.18771 14.1967L5.83455 17.2222ZM11.1039 15.9498L13.6041 17.2222L13.2677 14.1908L11.1039 15.9498Z" fill="#E27625" stroke="#E27625" strokeWidth="0.166667" strokeLinecap="round" strokeLinejoin="round"/>
<path d="M13.8889 17.0083L11.3861 15.5555L11.5881 17.506L11.5656 18.3333L13.8889 17.0083ZM6.11108 17.0083L8.44554 18.3333L8.4287 17.506L8.63072 15.5555L6.11108 17.0083Z" fill="#D5BFB2" stroke="#D5BFB2" strokeWidth="0.166667" strokeLinecap="round" strokeLinejoin="round"/>
<path d="M8.19225 12.7729L6.11108 12.2512L7.58478 11.6715L8.19788 12.7729H8.19225ZM11.2353 12.7729L11.854 11.6666L13.3333 12.2463L11.2353 12.7777V12.7729Z" fill="#233447" stroke="#233447" strokeWidth="0.166667" strokeLinecap="round" strokeLinejoin="round"/>
<path d="M5.83709 17.2222L6.20098 14.0493L3.88892 14.1206L5.83709 17.2222ZM13.2435 14.0493L13.5962 17.2222L15.5556 14.1206L13.2435 14.0493ZM14.9958 10.5555L10.8531 10.7576L11.2338 13.0154L11.8496 11.6488L13.3219 12.3618L14.9958 10.5555ZM6.1338 12.3678L7.60053 11.6548L8.21073 13.0095L8.59701 10.7516L4.45433 10.5555L6.1338 12.3678Z" fill="#CC6228" stroke="#CC6228" strokeWidth="0.166667" strokeLinecap="round" strokeLinejoin="round"/>
<path d="M4.44434 10.5555L6.18303 14.0648L6.12694 12.3247L4.44434 10.5555ZM13.3285 12.3247L13.2612 14.0648L14.9999 10.5555L13.3285 12.3247ZM8.59477 10.7528L8.20216 12.9569L8.69572 15.5555L8.8079 12.1275L8.59477 10.7528ZM10.8495 10.7528L10.6475 12.1217L10.7485 15.5555L11.2365 12.9511L10.8495 10.747V10.7528Z" fill="#E27525" stroke="#E27525" strokeWidth="0.166667" strokeLinecap="round" strokeLinejoin="round"/>
<path d="M11.2369 12.8212L10.7479 15.3115L11.102 15.5555L13.2659 13.8916L13.3333 12.2222L11.2369 12.8212ZM6.1167 12.2222L6.17291 13.8861L8.34238 15.55L8.69085 15.3115L8.20187 12.8212L6.11108 12.2222H6.1167Z" fill="#F5841F" stroke="#F5841F" strokeWidth="0.166667" strokeLinecap="round" strokeLinejoin="round"/>
<path d="M11.5712 18.2387L11.5881 17.604L11.3973 17.4595H8.61389L8.4287 17.604L8.44554 18.2387L6.11108 17.2222L6.93039 17.8414L8.58583 18.8888H11.4197L13.0808 17.8362L13.8889 17.2222L11.5656 18.2387H11.5712Z" fill="#C0AC9D" stroke="#C0AC9D" strokeWidth="0.166667" strokeLinecap="round" strokeLinejoin="round"/>
<path d="M11.4534 15.7701L11.0804 15.5555H8.91348L8.5464 15.7751L8.33325 17.2222L8.52863 17.0825H11.4653L11.6666 17.2222L11.4534 15.7751V15.7701Z" fill="#161616" stroke="#161616" strokeWidth="0.166667" strokeLinecap="round" strokeLinejoin="round"/>
<path d="M18.8265 7.03892L19.4446 3.97477L18.5119 1.11108L11.3766 6.49482L14.124 8.84877L18.0006 9.99997L18.8546 8.98623L18.4838 8.71131L19.0737 8.16149L18.6243 7.80639L19.2142 7.3482L18.8209 7.03892H18.8265ZM0.555664 3.96904L1.18492 7.03892L0.780398 7.34247L1.38156 7.80066L0.932093 8.16149L1.5164 8.71131L1.14559 8.98623L1.99958 9.99997L5.87624 8.8545L8.62361 6.48909L1.48831 1.11108L0.555664 3.96904Z" fill="#763E1A" stroke="#763E1A" strokeWidth="0.166667" strokeLinecap="round" strokeLinejoin="round"/>
<path d="M17.6092 9.95566L13.7862 8.80695L14.9387 10.6047L13.2211 14.0795L15.4927 14.0508H18.889L17.6092 9.95566ZM5.65287 8.80121L1.82997 9.95566L0.555664 14.0508H3.95196L6.22354 14.0795L4.506 10.6047L5.65841 8.80121H5.65287ZM10.8332 10.8L11.0825 6.43488L12.1906 3.33337H7.24852L8.35661 6.43488L8.60593 10.8L8.70012 12.1669V15.5556H10.7335L10.7445 12.1669L10.8332 10.8Z" fill="#F5841F" stroke="#F5841F" strokeWidth="0.166667" strokeLinecap="round" strokeLinejoin="round"/>
</svg>
