<svg width="25" height="24" viewBox="0 0 25 24" fill="none" xmlns="http://www.w3.org/2000/svg">
<path opacity="0.2" d="M21.5 6V17.25C21.5 17.6478 21.342 18.0294 21.0607 18.3107C20.7794 18.592 20.3978 18.75 20 18.75H3.5C3.89782 18.75 4.27936 18.592 4.56066 18.3107C4.84196 18.0294 5 17.6478 5 17.25V6C5 5.80109 5.07902 5.61032 5.21967 5.46967C5.36032 5.32902 5.55109 5.25 5.75 5.25H20.75C20.9489 5.25 21.1397 5.32902 21.2803 5.46967C21.421 5.61032 21.5 5.80109 21.5 6Z" fill="#1F1F1F"/>
<path d="M8.75 10.5C8.75 10.3011 8.82902 10.1103 8.96967 9.96967C9.11032 9.82902 9.30109 9.75 9.5 9.75H17C17.1989 9.75 17.3897 9.82902 17.5303 9.96967C17.671 10.1103 17.75 10.3011 17.75 10.5C17.75 10.6989 17.671 10.8897 17.5303 11.0303C17.3897 11.171 17.1989 11.25 17 11.25H9.5C9.30109 11.25 9.11032 11.171 8.96967 11.0303C8.82902 10.8897 8.75 10.6989 8.75 10.5ZM9.5 14.25H17C17.1989 14.25 17.3897 14.171 17.5303 14.0303C17.671 13.8897 17.75 13.6989 17.75 13.5C17.75 13.3011 17.671 13.1103 17.5303 12.9697C17.3897 12.829 17.1989 12.75 17 12.75H9.5C9.30109 12.75 9.11032 12.829 8.96967 12.9697C8.82902 13.1103 8.75 13.3011 8.75 13.5C8.75 13.6989 8.82902 13.8897 8.96967 14.0303C9.11032 14.171 9.30109 14.25 9.5 14.25ZM22.25 6V17.25C22.25 17.8467 22.0129 18.419 21.591 18.841C21.169 19.2629 20.5967 19.5 20 19.5H3.5C2.90505 19.5 2.33431 19.2644 1.91264 18.8446C1.49098 18.4249 1.25273 17.8553 1.25 17.2603V8.25C1.25 8.05109 1.32902 7.86032 1.46967 7.71967C1.61032 7.57902 1.80109 7.5 2 7.5C2.19891 7.5 2.38968 7.57902 2.53033 7.71967C2.67098 7.86032 2.75 8.05109 2.75 8.25V17.25C2.75 17.4489 2.82902 17.6397 2.96967 17.7803C3.11032 17.921 3.30109 18 3.5 18C3.69891 18 3.88968 17.921 4.03033 17.7803C4.17098 17.6397 4.25 17.4489 4.25 17.25V6C4.25 5.60218 4.40804 5.22064 4.68934 4.93934C4.97064 4.65804 5.35218 4.5 5.75 4.5H20.75C21.1478 4.5 21.5294 4.65804 21.8107 4.93934C22.092 5.22064 22.25 5.60218 22.25 6ZM20.75 6H5.75V17.25C5.75037 17.5055 5.70693 17.7592 5.62156 18H20C20.1989 18 20.3897 17.921 20.5303 17.7803C20.671 17.6397 20.75 17.4489 20.75 17.25V6Z" fill="#1F1F1F"/>
</svg>
