<svg width="309" height="309" viewBox="0 0 309 309" fill="none" xmlns="http://www.w3.org/2000/svg">
    <rect width="308.367" height="308.367" rx="10" fill="#F28C5A"/> <!-- Muted background color -->
    <path d="M83.822 190.575C83.822 190.573 83.8195 190.572 83.8181 190.573L53.3759 221.016C50.8695 223.522 50.8695 227.586 53.3759 230.092L79.4741 256.19C81.9805 258.697 86.0442 258.697 88.5507 256.19L114.458 230.282C116.965 227.776 121.029 227.776 123.535 230.282L149.443 256.19C151.949 258.697 156.013 258.697 158.519 256.19L184.427 230.282C186.934 227.776 190.997 227.776 193.504 230.282L219.412 256.19C221.918 258.697 225.982 258.697 228.488 256.19L254.586 230.092C257.093 227.586 257.093 223.522 254.586 221.016L228.678 195.108C226.172 192.601 226.172 188.538 228.678 186.031L254.586 160.123C257.093 157.617 257.093 153.553 254.586 151.047L228.678 125.139C226.172 122.633 226.172 118.569 228.678 116.062L254.585 90.1561C257.092 87.6491 257.091 83.5843 254.583 81.0781L228.477 54.9882C225.97 52.4831 221.908 52.4838 219.402 54.9897L193.493 80.8982C190.987 83.4049 186.922 83.4046 184.416 80.8975L158.519 54.9926C156.013 52.4854 151.949 52.4851 149.442 54.9918L123.535 80.8989C121.029 83.4053 116.965 83.4053 114.458 80.8989L88.5507 54.9911C86.0442 52.4847 81.9805 52.4847 79.4741 54.9911L53.3759 81.0893C50.8695 83.5957 50.8695 87.6594 53.3759 90.1658L79.2837 116.074C81.7901 118.58 81.7902 122.644 79.2837 125.15L53.3759 151.058C50.8695 153.564 50.8695 157.628 53.3759 160.135L83.8181 190.577C83.8195 190.578 83.822 190.577 83.822 190.575ZM114.458 160.325C116.965 157.819 121.029 157.819 123.535 160.325L149.241 186.031C151.748 188.538 151.748 192.601 149.241 195.108L123.535 220.814C121.029 223.32 116.965 223.32 114.458 220.814L88.7522 195.108C86.2458 192.601 86.2458 188.538 88.7522 186.031L114.458 160.325ZM184.416 160.325C186.922 157.819 190.986 157.819 193.493 160.325L219.199 186.031C221.705 188.538 221.705 192.601 219.199 195.108L193.493 220.814C190.986 223.32 186.922 223.32 184.416 220.814L158.71 195.108C156.203 192.601 156.203 188.538 158.71 186.031L184.416 160.325ZM193.493 150.856C190.986 153.363 186.922 153.363 184.416 150.856L158.71 125.15C156.203 122.644 156.203 118.58 158.71 116.074L184.416 90.3674C186.922 87.861 190.986 87.861 193.493 90.3674L219.199 116.074C221.705 118.58 221.705 122.644 219.199 125.15L193.493 150.856ZM123.535 150.856C121.029 153.363 116.965 153.363 114.458 150.856L88.7522 125.15C86.2458 122.644 86.2458 118.58 88.7522 116.074L114.458 90.3674C116.965 87.861 121.029 87.861 123.535 90.3674L149.241 116.074C151.748 118.58 151.748 122.644 149.241 125.15L123.535 150.856Z" fill="#547A98"/> <!-- Muted blue for internal shapes -->
</svg>