<svg width="309" height="309" viewBox="0 0 309 309" fill="none" xmlns="http://www.w3.org/2000/svg">
    <!-- Define drop shadow filter with #3C607A color -->
    <defs>
        <filter id="shadow" x="-20%" y="-20%" width="140%" height="140%">
            <feDropShadow dx="4" dy="4" stdDeviation="5" flood-color="#3C607A" flood-opacity="0.5"/>
        </filter>
    </defs>

    <!-- Apply the shadow filter to each element as needed -->
    <rect width="308.367" height="308.367" rx="10" fill="#7BC9CC" filter="url(#shadow)"/> <!-- Background with shadow -->

    <path d="M90.6328 153.977C90.6328 151.405 92.7177 149.32 95.2896 149.32H121.313C123.885 149.32 125.97 151.405 125.97 153.977V237.251H90.6328V153.977Z" fill="#547A98" filter="url(#shadow)"/> <!-- Path with shadow -->

    <path d="M137.201 121.927C137.201 119.356 139.286 117.271 141.857 117.271H167.881C170.452 117.271 172.537 119.356 172.537 121.927V237.251H137.201V121.927Z" fill="#547A98" filter="url(#shadow)"/> <!-- Path with shadow -->

    <path d="M183.769 101.657C183.769 99.0849 185.853 97 188.425 97H214.448C217.02 97 219.105 99.0849 219.105 101.657V237.251H183.769V101.657Z" fill="#F65A0E" filter="url(#shadow)"/> <!-- Path with shadow -->
</svg>
