<svg width="309" height="309" viewBox="0 0 309 309" fill="none" xmlns="http://www.w3.org/2000/svg">
<rect x="0.101562" width="308.367" height="308.367" rx="10" fill="#7BC9CC"/>
<path d="M172.583 76.5379L183.125 113.165C184.906 119.354 189.748 124.187 195.937 125.976L232.564 136.519C250.614 141.712 250.614 167.288 232.564 172.481L195.937 183.024C189.748 184.804 184.915 189.646 183.125 195.835L172.583 232.462C167.39 250.513 141.813 250.513 136.62 232.462L126.078 195.835C124.298 189.646 119.455 184.813 113.266 183.024L76.6394 172.481C58.5889 167.288 58.5889 141.712 76.6394 136.519L113.266 125.976C119.455 124.196 124.288 119.354 126.078 113.165L136.62 76.5379C141.813 58.4874 167.39 58.4874 172.583 76.5379Z" fill="black"/>
</svg>
