<svg width="309" height="309" viewBox="0 0 309 309" fill="none" xmlns="http://www.w3.org/2000/svg">
<rect width="308.367" height="308.367" rx="10" fill="#5C63C1"/>
<path d="M235.066 158.566C236.686 156.946 236.686 154.318 235.066 152.697L199.934 117.566C198.314 115.946 195.687 115.946 194.067 117.565L178.434 133.185C176.813 134.804 174.188 134.804 172.567 133.185L156.933 117.564C155.313 115.945 152.687 115.945 151.067 117.564L135.433 133.185C133.812 134.804 131.187 134.804 129.566 133.185L113.933 117.565C112.313 115.946 109.686 115.946 108.066 117.566L72.9345 152.697C71.3138 154.318 71.3138 156.946 72.9345 158.566L108.064 193.696C109.685 195.317 112.313 195.317 113.933 193.696L129.565 178.065C131.186 176.444 133.813 176.444 135.434 178.065L151.066 193.696C152.686 195.317 155.314 195.317 156.935 193.696L172.566 178.065C174.187 176.444 176.814 176.444 178.435 178.065L194.067 193.696C195.687 195.317 198.315 195.317 199.936 193.696L235.066 158.566Z" fill="#F65A0E"/>
</svg>
