<svg width="309" height="309" viewBox="0 0 309 309" fill="none" xmlns="http://www.w3.org/2000/svg">
<rect width="308.367" height="308.367" rx="10" fill="black"/>
<path d="M115.825 86.9344L86.2006 116.559C84.5799 118.18 84.5799 120.807 86.2006 122.428L115.825 152.052C117.446 153.673 120.073 153.673 121.694 152.052L151.319 122.428C152.939 120.807 152.939 118.18 151.319 116.559L121.694 86.9344C120.073 85.3137 117.446 85.3137 115.825 86.9344Z" fill="#8EF8FC"/>
<path d="M186.807 86.9369L157.182 116.561C155.561 118.182 155.561 120.81 157.182 122.43L186.807 152.055C188.427 153.675 191.055 153.675 192.676 152.055L222.3 122.43C223.921 120.81 223.921 118.182 222.3 116.561L192.676 86.9369C191.055 85.3162 188.427 85.3162 186.807 86.9369Z" fill="#8EF8FC"/>
<path d="M115.835 157.945L86.2106 187.57C84.5899 189.191 84.5899 191.818 86.2106 193.439L115.835 223.063C117.456 224.684 120.083 224.684 121.704 223.063L151.329 193.439C152.949 191.818 152.949 189.191 151.329 187.57L121.704 157.945C120.083 156.325 117.456 156.325 115.835 157.945Z" fill="#8EF8FC"/>
<path d="M186.817 157.948L157.192 187.572C155.571 189.193 155.571 191.82 157.192 193.441L186.817 223.066C188.437 224.686 191.065 224.686 192.686 223.066L222.31 193.441C223.931 191.82 223.931 189.193 222.31 187.572L192.686 157.948C191.065 156.327 188.437 156.327 186.817 157.948Z" fill="#F65A0E"/>
</svg>
