<svg width="309" height="309" viewBox="0 0 309 309" fill="none" xmlns="http://www.w3.org/2000/svg">
  <circle cx="154.5" cy="154.5" r="154.5" fill="#144468" />
  <path d="M152.106 168.611C151.566 169.723 151.609 171.031 152.217 172.107L160.85 186.901C161.581 188.155 161.509 189.72 160.669 190.905C159.861 192.111 158.432 192.741 156.997 192.535L140.031 190.296C139.439 190.212 138.837 190.271 138.268 190.461L137.396 190.778C137.11 190.934 136.849 191.138 136.632 191.385L125.096 204.053C124.52 204.664 123.768 205.08 122.94 205.24C120.903 205.574 118.97 204.222 118.584 202.193L115.677 185.313C115.445 184.088 114.634 183.053 113.501 182.536L97.7725 175.506C96.4567 174.918 95.6025 173.625 95.5809 172.185C95.5477 170.753 96.3094 169.422 97.5625 168.728L112.714 160.577C113.885 160.008 114.683 158.878 114.832 157.584L116.613 140.563C116.663 140.18 116.771 139.805 116.94 139.459L117.148 139.128C117.238 138.905 117.361 138.704 117.513 138.521L117.817 138.264L118.282 137.839L119.638 137.345C120.894 137.03 122.223 137.366 123.174 138.244L135.56 150.029C136.459 150.893 137.726 151.259 138.946 151.015L155.789 147.505C157.212 147.206 158.682 147.727 159.598 148.852C160.49 149.989 160.643 151.537 159.991 152.829L152.106 168.611Z" fill="url(#paint0_linear_2020_278)"/>
  <g opacity="0.5" filter="url(#filter0_f_2020_278)">
    <path d="M137.271 160.051C129.904 160.051 123.926 166.031 123.926 173.396C123.926 180.763 129.904 186.741 137.271 186.741C144.651 186.741 150.616 180.763 150.616 173.396C150.616 166.031 144.651 160.051 137.271 160.051Z" fill="#8EF8FC"/>
  </g>
  <g filter="url(#filter1_b_2020_278)">
    <path d="M191.388 166.124C190.029 166.909 189.142 168.315 189.013 169.879L187.548 191.583C187.422 193.423 186.232 195.017 184.504 195.664C182.796 196.356 180.844 196 179.482 194.761L163.242 180.317C162.679 179.807 162.004 179.44 161.271 179.234L160.127 178.946C159.716 178.906 159.296 178.935 158.892 179.04L137.738 184.137C136.697 184.369 135.609 184.27 134.625 183.848C132.246 182.748 131.177 179.949 132.217 177.541L141.19 157.723C141.819 156.271 141.704 154.604 140.881 153.254L129.355 134.656C128.391 133.099 128.415 131.131 129.418 129.602C130.403 128.073 132.153 127.216 133.965 127.38L155.702 129.607C157.338 129.843 158.983 129.225 160.061 127.97L174.063 111.346C174.389 110.979 174.769 110.662 175.193 110.418L175.647 110.218C175.901 110.049 176.174 109.925 176.465 109.841L176.967 109.787L177.759 109.672L179.535 110.119C181.08 110.682 182.239 111.982 182.612 113.584L187.236 134.799C187.565 136.349 188.636 137.636 190.093 138.249L210.301 146.561C212.01 147.26 213.183 148.856 213.346 150.691C213.473 152.522 212.53 154.259 210.924 155.152L191.388 166.124Z" fill="#8EF8FC" fill-opacity="0.4"/>
    <path d="M188.079 191.62L188.079 191.619L189.544 169.923C189.544 169.922 189.545 169.92 189.545 169.919C189.66 168.53 190.447 167.284 191.652 166.587C191.653 166.587 191.653 166.586 191.654 166.586L211.183 155.618C211.183 155.617 211.183 155.617 211.184 155.617C212.97 154.623 214.019 152.691 213.877 150.654L213.877 150.654L213.876 150.644C213.696 148.611 212.396 146.843 210.503 146.069C210.503 146.068 210.503 146.068 210.502 146.068L190.3 137.758C190.299 137.758 190.298 137.757 190.298 137.757C189.002 137.211 188.049 136.065 187.757 134.689L187.757 134.686L183.133 113.47L183.133 113.47L183.131 113.463C182.716 111.685 181.431 110.243 179.717 109.618C179.7 109.612 179.683 109.606 179.665 109.602L177.888 109.156C177.821 109.139 177.751 109.135 177.682 109.145L176.9 109.259L176.408 109.311C176.377 109.314 176.346 109.32 176.316 109.329C175.992 109.423 175.682 109.561 175.392 109.749L174.979 109.931C174.961 109.938 174.945 109.947 174.928 109.956C174.45 110.23 174.025 110.586 173.665 110.992L173.664 110.992L173.656 111.002L159.657 127.623C159.656 127.624 159.656 127.624 159.655 127.625C158.696 128.74 157.233 129.29 155.778 129.08C155.77 129.079 155.763 129.078 155.756 129.077L134.019 126.85L134.019 126.85L134.013 126.849C132.004 126.668 130.064 127.618 128.971 129.312C127.855 131.014 127.83 133.205 128.902 134.936L128.902 134.936L140.426 153.531C140.427 153.531 140.427 153.532 140.428 153.533C141.158 154.734 141.261 156.215 140.702 157.507C140.702 157.509 140.701 157.51 140.701 157.511L131.732 177.321L131.732 177.321L131.728 177.33C130.573 180.003 131.76 183.11 134.401 184.332L134.415 184.338C135.502 184.804 136.704 184.913 137.854 184.657L137.854 184.657L137.862 184.655L159.017 179.558L159.017 179.558L159.027 179.555C159.354 179.47 159.697 179.444 160.037 179.473L161.133 179.748C161.787 179.934 162.386 180.261 162.884 180.712L162.888 180.715L179.123 195.155C179.124 195.155 179.125 195.156 179.125 195.157C180.636 196.53 182.8 196.926 184.697 196.16C186.617 195.438 187.94 193.665 188.079 191.62Z" stroke="url(#paint1_linear_2020_278)" stroke-width="1.06555" stroke-linecap="round" stroke-linejoin="round"/>
  </g>
  <defs>
    <filter id="filter0_f_2020_278" x="102.615" y="138.74" width="69.3118" height="69.3118" filterUnits="userSpaceOnUse" color-interpolation-filters="sRGB">
      <feFlood flood-opacity="0" result="BackgroundImageFix"/>
      <feBlend mode="normal" in="SourceGraphic" in2="BackgroundImageFix" result="shape"/>
      <feGaussianBlur stdDeviation="10.6555" result="effect1_foregroundBlur_2020_278"/>
    </filter>
    <filter id="filter1_b_2020_278" x="102.01" y="83.0336" width="137.986" height="139.618" filterUnits="userSpaceOnUse" color-interpolation-filters="sRGB">
      <feFlood flood-opacity="0" result="BackgroundImageFix"/>
      <feGaussianBlur in="BackgroundImageFix" stdDeviation="12.7865"/>
      <feComposite in2="SourceAlpha" operator="in" result="effect1_backgroundBlur_2020_278"/>
      <feBlend mode="normal" in="SourceGraphic" in2="effect1_backgroundBlur_2020_278" result="shape"/>
    </filter>
    <linearGradient id="paint0_linear_2020_278" x1="100.013" y1="163.429" x2="170.706" y2="229.664" gradientUnits="userSpaceOnUse">
      <stop stop-color="#8EF8FC"/>
      <stop offset="1" stop-color="#8E93FF"/>
    </linearGradient>
    <linearGradient id="paint1_linear_2020_278" x1="147.836" y1="112.084" x2="181.814" y2="190.668" gradientUnits="userSpaceOnUse">
      <stop stop-color="white" stop-opacity="0.25"/>
      <stop offset="1" stop-color="white" stop-opacity="0"/>
    </linearGradient>
  </defs>
</svg>
