<svg width="17" height="16" viewBox="0 0 17 16" fill="none" xmlns="http://www.w3.org/2000/svg">
<path fillRule="evenodd" clipRule="evenodd" d="M12.8132 7.02018L9.47986 3.68684L10.187 2.97974L13.5203 6.31307L12.8132 7.02018Z" fill="#6D8C8E"/>
<path fillRule="evenodd" clipRule="evenodd" d="M12.9745 2.07755C12.6491 1.75214 12.1216 1.75214 11.7962 2.07755L3.61186 10.2619L2.56137 13.9387L6.23809 12.8882L14.4225 4.70378C14.7479 4.37837 14.7479 3.85095 14.4225 3.52555L12.9745 2.07755ZM11.0891 1.37044C11.8051 0.654514 12.9656 0.654514 13.6816 1.37044L15.1296 2.81844C15.8455 3.53437 15.8455 4.69495 15.1296 5.41088L6.76196 13.7785L1.10535 15.3947L2.72152 9.73806L11.0891 1.37044Z" fill="#6D8C8E"/>
</svg>
