<svg width="13" height="11" viewBox="0 0 13 11" fill="none" xmlns="http://www.w3.org/2000/svg">
<path d="M2.562 10L9.338 0.228H10.416L3.64 10H2.562ZM3.122 5.604C2.41267 5.604 1.86667 5.37067 1.484 4.904C1.10133 4.428 0.91 3.73733 0.91 2.832C0.91 1.92667 1.10133 1.24067 1.484 0.773999C1.86667 0.297999 2.41267 0.0599995 3.122 0.0599995C3.83133 0.0599995 4.37733 0.297999 4.76 0.773999C5.14267 1.24067 5.334 1.92667 5.334 2.832C5.334 3.73733 5.14267 4.428 4.76 4.904C4.37733 5.37067 3.83133 5.604 3.122 5.604ZM3.122 4.876C3.92467 4.876 4.326 4.33467 4.326 3.252V2.412C4.326 1.32933 3.92467 0.787999 3.122 0.787999C2.31933 0.787999 1.918 1.32933 1.918 2.412V3.252C1.918 4.33467 2.31933 4.876 3.122 4.876ZM9.856 10.168C9.14667 10.168 8.60067 9.93467 8.218 9.468C7.83533 8.992 7.644 8.30133 7.644 7.396C7.644 6.49067 7.83533 5.80467 8.218 5.338C8.60067 4.862 9.14667 4.624 9.856 4.624C10.5653 4.624 11.1113 4.862 11.494 5.338C11.8767 5.80467 12.068 6.49067 12.068 7.396C12.068 8.30133 11.8767 8.992 11.494 9.468C11.1113 9.93467 10.5653 10.168 9.856 10.168ZM9.856 9.44C10.6587 9.44 11.06 8.89867 11.06 7.816V6.976C11.06 5.89333 10.6587 5.352 9.856 5.352C9.05333 5.352 8.652 5.89333 8.652 6.976V7.816C8.652 8.89867 9.05333 9.44 9.856 9.44Z" fill="#6D8C8E"/>
</svg>
