<svg width="24" height="24" viewBox="0 0 24 24" fill="none" xmlns="http://www.w3.org/2000/svg">
<path fillRule="evenodd" clipRule="evenodd" d="M21.5 2.5V21.5H2.5L2.5 5C2.5 3.61929 3.61929 2.5 5 2.5L21.5 2.5ZM21 3L5 3C3.89543 3 3 3.89543 3 5L3 21H21V3Z" fill="url(#paint0_linear_13256_492)"/>
<path fillRule="evenodd" clipRule="evenodd" d="M2.5 5C2.5 3.61929 3.61929 2.5 5 2.5L11 2.5V3.5L5 3.5C4.17157 3.5 3.5 4.17157 3.5 5L3.5 11H2.5L2.5 5Z" fill="url(#paint1_linear_13256_492)"/>
<path d="M5 6C5 5.44772 5.44772 5 6 5L16.5858 5C17.4767 5 17.9229 6.07714 17.2929 6.70711L6.7071 17.2929C6.07714 17.9229 5 17.4767 5 16.5858L5 6Z" fill="url(#paint2_linear_13256_492)"/>
<path d="M19 18C19 18.5523 18.5523 19 18 19L11.4142 19C10.5233 19 10.0771 17.9229 10.7071 17.2929L17.2929 10.7071C17.9229 10.0771 19 10.5233 19 11.4142L19 18Z" fill="url(#paint3_linear_13256_492)"/>
<defs>
<linearGradient id="paint0_linear_13256_492" x1="3" y1="3" x2="21" y2="21" gradientUnits="userSpaceOnUse">
<stop stopColor="#45FFC5"/>
<stop offset="1" stopColor="#30AC85" stop-opacity="0"/>
</linearGradient>
<linearGradient id="paint1_linear_13256_492" x1="2.5" y1="2.5" x2="6.75" y2="11" gradientUnits="userSpaceOnUse">
<stop stopColor="#45FFC5"/>
<stop offset="1" stopColor="#30AC85"/>
</linearGradient>
<linearGradient id="paint2_linear_13256_492" x1="5" y1="5" x2="12" y2="19" gradientUnits="userSpaceOnUse">
<stop stopColor="#45FFC5"/>
<stop offset="1" stopColor="#30AC85"/>
</linearGradient>
<linearGradient id="paint3_linear_13256_492" x1="19" y1="19" x2="9" y2="9" gradientUnits="userSpaceOnUse">
<stop stopColor="#45FFC5"/>
<stop offset="1" stopColor="#30AC85" stop-opacity="0"/>
</linearGradient>
</defs>
</svg>
