<svg width="18" height="18" viewBox="0 0 18 18" fill="none" xmlns="http://www.w3.org/2000/svg">
<g clipPath="url(#clip0_191_12719)">
<path fillRule="evenodd" clipRule="evenodd" d="M13.5001 12.7045L17.2956 16.5L16.5001 17.2955L12.7046 13.5L13.5001 12.7045Z" fill="#6D8C8E"/>
<path fillRule="evenodd" clipRule="evenodd" d="M7.5 2.0625C4.49695 2.0625 2.0625 4.49695 2.0625 7.5C2.0625 10.503 4.49695 12.9375 7.5 12.9375C10.503 12.9375 12.9375 10.503 12.9375 7.5C12.9375 4.49695 10.503 2.0625 7.5 2.0625ZM0.9375 7.5C0.9375 3.87563 3.87563 0.9375 7.5 0.9375C11.1244 0.9375 14.0625 3.87563 14.0625 7.5C14.0625 11.1244 11.1244 14.0625 7.5 14.0625C3.87563 14.0625 0.9375 11.1244 0.9375 7.5Z" fill="#6D8C8E"/>
<path fillRule="evenodd" clipRule="evenodd" d="M7.5 5.0625C6.85353 5.0625 6.23355 5.31931 5.77643 5.77643C5.31931 6.23355 5.0625 6.85353 5.0625 7.5H3.9375C3.9375 6.55517 4.31283 5.64903 4.98093 4.98093C5.64903 4.31283 6.55517 3.9375 7.5 3.9375V5.0625Z" fill="#6D8C8E"/>
</g>
<defs>
<clipPath id="clip0_191_12719">
<rect width="18" height="18" fill="white"/>
</clipPath>
</defs>
</svg>
