<svg width="24" height="24" viewBox="0 0 24 24" fill="none" xmlns="http://www.w3.org/2000/svg">
<g clipPath="url(#clip0_27117_11874)">
<path fillRule="evenodd" clipRule="evenodd" d="M12 9.75C10.7574 9.75 9.75 10.7574 9.75 12C9.75 13.2426 10.7574 14.25 12 14.25C13.2426 14.25 14.25 13.2426 14.25 12C14.25 10.7574 13.2426 9.75 12 9.75ZM8.25 12C8.25 9.92893 9.92893 8.25 12 8.25C14.0711 8.25 15.75 9.92893 15.75 12C15.75 14.0711 14.0711 15.75 12 15.75C9.92893 15.75 8.25 14.0711 8.25 12Z" fill="#6D8C8E"/>
<path fillRule="evenodd" clipRule="evenodd" d="M9.33793 0.25H14.6621L15.1086 3.82155C15.9826 4.15604 16.7972 4.62879 17.5212 5.22168L20.8445 3.81963L23.5065 8.4303L20.6359 10.6039C20.7108 11.0647 20.749 11.5311 20.75 11.9985V12.0015C20.749 12.4689 20.7108 12.9353 20.6359 13.3961L23.5065 15.5697L20.8445 20.1804L17.5212 18.7783C16.7972 19.3712 15.9826 19.844 15.1086 20.1784L14.6621 23.75H9.33793L8.89136 20.1784C8.01739 19.844 7.2028 19.3712 6.4788 18.7783L3.15552 20.1804L0.493469 15.5697L3.36352 13.3965C3.21221 12.4717 3.21221 11.5283 3.36352 10.6035L0.493469 8.4303L3.15552 3.81963L6.4788 5.22168C7.2028 4.62879 8.01739 4.15604 8.89136 3.82155L9.33793 0.25ZM10.6621 1.75L10.2628 4.94319L9.80678 5.08925C8.81038 5.40841 7.89503 5.93981 7.12382 6.64684L6.76899 6.97214L3.79247 5.71637L2.45452 8.0337L5.02454 9.97967L4.92015 10.4496C4.69334 11.4708 4.69334 12.5292 4.92015 13.5504L5.02454 14.0203L2.45452 15.9663L3.79247 18.2836L6.76899 17.0279L7.12382 17.3532C7.89503 18.0602 8.81038 18.5916 9.80678 18.9107L10.2628 19.0568L10.6621 22.25H13.3379L13.7372 19.0568L14.1932 18.9107C15.1896 18.5916 16.105 18.0602 16.8762 17.3532L17.231 17.0279L20.2075 18.2836L21.5455 15.9663L18.9763 14.021L19.0795 13.5518C19.1917 13.0421 19.2488 12.5219 19.25 12C19.2488 11.4781 19.1917 10.9579 19.0795 10.4482L18.9763 9.97903L21.5455 8.0337L20.2075 5.71638L17.231 6.97214L16.8762 6.64684C16.105 5.93981 15.1896 5.40841 14.1932 5.08925L13.7372 4.94319L13.3379 1.75H10.6621Z" fill="#6D8C8E"/>
</g>
<defs>
<clipPath id="clip0_27117_11874">
<rect width="24" height="24" fill="white"/>
</clipPath>
</defs>
</svg>
