<svg width="25" height="24" viewBox="0 0 25 24" fill="none" xmlns="http://www.w3.org/2000/svg">
<path opacity="0.2" d="M20 18.75C20 19.3433 19.8241 19.9234 19.4944 20.4167C19.1648 20.9101 18.6962 21.2946 18.1481 21.5216C17.5999 21.7487 16.9967 21.8081 16.4147 21.6924C15.8328 21.5766 15.2982 21.2909 14.8787 20.8713C14.4591 20.4518 14.1734 19.9172 14.0576 19.3353C13.9419 18.7533 14.0013 18.1501 14.2284 17.602C14.4554 17.0538 14.8399 16.5852 15.3333 16.2556C15.8266 15.926 16.4067 15.75 17 15.75C17.7957 15.75 18.5587 16.0661 19.1213 16.6287C19.6839 17.1913 20 17.9544 20 18.75ZM17 8.25C17.5933 8.25 18.1734 8.07405 18.6667 7.74441C19.1601 7.41477 19.5446 6.94623 19.7716 6.39805C19.9987 5.84987 20.0581 5.24667 19.9424 4.66473C19.8266 4.08279 19.5409 3.54824 19.1213 3.12868C18.7018 2.70912 18.1672 2.4234 17.5853 2.30765C17.0033 2.19189 16.4001 2.2513 15.852 2.47836C15.3038 2.70543 14.8352 3.08994 14.5056 3.58329C14.1759 4.07664 14 4.65666 14 5.25C14 6.04565 14.3161 6.80871 14.8787 7.37132C15.4413 7.93393 16.2044 8.25 17 8.25Z" fill="#1F1F1F"/>
<path d="M17.0002 15C16.4999 14.9998 16.0047 15.1 15.5438 15.2947C15.0829 15.4894 14.6658 15.7746 14.3171 16.1334L9.99522 13.3556C10.3352 12.4838 10.3352 11.5161 9.99522 10.6443L14.3171 7.86652C14.9663 8.5315 15.8392 8.93175 16.7668 8.98967C17.6943 9.04758 18.6103 8.75903 19.3371 8.17996C20.064 7.6009 20.5499 6.77257 20.7007 5.85557C20.8516 4.93857 20.6565 3.99823 20.1534 3.21686C19.6503 2.4355 18.875 1.86877 17.9778 1.62656C17.0806 1.38435 16.1254 1.48391 15.2975 1.90594C14.4695 2.32797 13.8277 3.0424 13.4966 3.91072C13.1655 4.77904 13.1685 5.73939 13.5052 6.60558L9.18335 9.38339C8.66291 8.84909 7.99496 8.48212 7.26489 8.3294C6.53481 8.17668 5.77578 8.24515 5.08481 8.52605C4.39385 8.80695 3.80235 9.28752 3.38592 9.90633C2.9695 10.5251 2.74707 11.2541 2.74707 12C2.74707 12.7458 2.9695 13.4748 3.38592 14.0936C3.80235 14.7124 4.39385 15.193 5.08481 15.4739C5.77578 15.7548 6.53481 15.8232 7.26489 15.6705C7.99496 15.5178 8.66291 15.1508 9.18335 14.6165L13.5052 17.3943C13.2157 18.1411 13.1729 18.9609 13.383 19.7338C13.5931 20.5066 14.0451 21.1919 14.6729 21.6893C15.3006 22.1866 16.0712 22.4699 16.8716 22.4977C17.672 22.5255 18.4603 22.2962 19.121 21.8436C19.7818 21.3909 20.2802 20.7386 20.5434 19.9822C20.8066 19.2258 20.8206 18.4049 20.5836 17.6399C20.3465 16.8749 19.8707 16.2059 19.2259 15.7308C18.5811 15.2558 17.8011 14.9997 17.0002 15ZM17.0002 2.99995C17.4452 2.99995 17.8802 3.13191 18.2503 3.37914C18.6203 3.62638 18.9087 3.97778 19.079 4.38891C19.2493 4.80005 19.2938 5.25245 19.207 5.6889C19.1202 6.12536 18.9059 6.52627 18.5912 6.84094C18.2765 7.15561 17.8756 7.3699 17.4392 7.45672C17.0027 7.54354 16.5503 7.49898 16.1392 7.32868C15.7281 7.15838 15.3767 6.87 15.1294 6.49998C14.8822 6.12997 14.7502 5.69496 14.7502 5.24995C14.7502 4.65321 14.9873 4.08092 15.4092 3.65896C15.8312 3.237 16.4035 2.99995 17.0002 2.99995ZM6.50023 14.25C6.05522 14.25 5.6202 14.118 5.25019 13.8708C4.88018 13.6235 4.59179 13.2721 4.4215 12.861C4.2512 12.4499 4.20664 11.9975 4.29346 11.561C4.38028 11.1245 4.59457 10.7236 4.90924 10.409C5.2239 10.0943 5.62481 9.88 6.06127 9.79319C6.49773 9.70637 6.95013 9.75093 7.36126 9.92122C7.7724 10.0915 8.1238 10.3799 8.37103 10.7499C8.61827 11.1199 8.75023 11.5549 8.75023 12C8.75023 12.5967 8.51317 13.169 8.09122 13.5909C7.66926 14.0129 7.09696 14.25 6.50023 14.25ZM17.0002 21C16.5552 21 16.1202 20.868 15.7502 20.6208C15.3802 20.3735 15.0918 20.0221 14.9215 19.611C14.7512 19.1999 14.7066 18.7475 14.7935 18.311C14.8803 17.8745 15.0946 17.4736 15.4092 17.159C15.7239 16.8443 16.1248 16.63 16.5613 16.5432C16.9977 16.4564 17.4501 16.5009 17.8613 16.6712C18.2724 16.8415 18.6238 17.1299 18.871 17.4999C19.1183 17.8699 19.2502 18.3049 19.2502 18.75C19.2502 19.3467 19.0132 19.919 18.5912 20.3409C18.1693 20.7629 17.597 21 17.0002 21Z" fill="#1F1F1F"/>
</svg>
