<svg width="16" height="16" viewBox="0 0 16 16" fill="none" xmlns="http://www.w3.org/2000/svg">
<g clipPath="url(#clip0_31985_3914)">
<path fillRule="evenodd" clipRule="evenodd" d="M1.99996 4.5C1.77895 4.5 1.56698 4.5878 1.4107 4.74408C1.25442 4.90036 1.16663 5.11232 1.16663 5.33333V13.3333C1.16663 13.5543 1.25442 13.7663 1.4107 13.9226C1.56698 14.0789 1.77895 14.1667 1.99996 14.1667H12C12.221 14.1667 12.4329 14.0789 12.5892 13.9226C12.7455 13.7663 12.8333 13.5543 12.8333 13.3333V10.1667H13.8333V13.3333C13.8333 13.8196 13.6401 14.2859 13.2963 14.6297C12.9525 14.9735 12.4862 15.1667 12 15.1667H1.99996C1.51373 15.1667 1.04741 14.9735 0.703597 14.6297C0.35978 14.2859 0.166626 13.8196 0.166626 13.3333V5.33333C0.166626 4.8471 0.35978 4.38079 0.703597 4.03697C1.04741 3.69315 1.51373 3.5 1.99996 3.5H3.16663V4.5H1.99996Z" fill="#45FFC5"/>
<path fillRule="evenodd" clipRule="evenodd" d="M8.83325 0.231445L15.4259 6L8.83325 11.7685V8.5073C7.39287 8.55072 6.43319 8.78567 5.71015 9.15388C4.91041 9.56116 4.34882 10.1567 3.73133 10.9692L2.83325 12.1509V10.6667C2.83325 7.90005 3.48137 6.06839 4.69281 4.94214C5.78441 3.92729 7.24654 3.56782 8.83325 3.50899V0.231445ZM9.83325 2.43521V4.5H9.33325C7.64443 4.5 6.30164 4.81183 5.3737 5.67452C4.63269 6.36343 4.08767 7.46878 3.90232 9.24354C4.29215 8.86399 4.72851 8.53158 5.25635 8.26278C6.2527 7.75538 7.52338 7.5 9.33325 7.5H9.83325V9.56478L13.9073 6L9.83325 2.43521Z" fill="#45FFC5"/>
</g>
<defs>
<clipPath id="clip0_31985_3914">
<rect width="16" height="16" fill="white"/>
</clipPath>
</defs>
</svg>
