<svg width="16" height="16" viewBox="0 0 16 16" fill="none" xmlns="http://www.w3.org/2000/svg">
<g clipPath="url(#clip0_12033_1905)">
<path fillRule="evenodd" clipRule="evenodd" d="M8.00002 1.16669C4.22607 1.16669 1.16669 4.22607 1.16669 8.00002C1.16669 11.774 4.22607 14.8334 8.00002 14.8334C11.774 14.8334 14.8334 11.774 14.8334 8.00002C14.8334 4.22607 11.774 1.16669 8.00002 1.16669ZM0.166687 8.00002C0.166687 3.67379 3.67379 0.166687 8.00002 0.166687C12.3263 0.166687 15.8334 3.67379 15.8334 8.00002C15.8334 12.3263 12.3263 15.8334 8.00002 15.8334C3.67379 15.8334 0.166687 12.3263 0.166687 8.00002Z" fill="#6D8C8E"/>
<path d="M7.99998 12.6666C8.36817 12.6666 8.66665 12.3682 8.66665 12C8.66665 11.6318 8.36817 11.3333 7.99998 11.3333C7.63179 11.3333 7.33331 11.6318 7.33331 12C7.33331 12.3682 7.63179 12.6666 7.99998 12.6666Z" fill="#6D8C8E"/>
<path fillRule="evenodd" clipRule="evenodd" d="M8.60387 4.51342C8.02964 4.45952 7.35802 4.57118 6.77078 4.8307L6.31345 5.0328L5.90924 4.11813L6.36657 3.91603C7.09934 3.59221 7.94172 3.44687 8.69733 3.5178C9.44071 3.58758 10.1975 3.88051 10.6054 4.54053C11.3781 5.79102 10.7712 7.15285 9.68391 8.07417C8.67488 8.92915 8.50001 9.25362 8.50001 9.6667V10.1667H7.50001V9.6667C7.50001 8.74644 8.04648 8.1509 9.03745 7.31122C9.95013 6.53787 10.1486 5.7037 9.75467 5.0662C9.57918 4.78221 9.19032 4.56848 8.60387 4.51342Z" fill="#6D8C8E"/>
</g>
<defs>
<clipPath id="clip0_12033_1905">
<rect width="16" height="16" fill="white"/>
</clipPath>
</defs>
</svg>
