<svg width="16" height="16" viewBox="0 0 16 16" fill="none" xmlns="http://www.w3.org/2000/svg">
<path d="M8 16C12.4183 16 16 12.4183 16 8C16 3.58172 12.4183 0 8 0C3.58172 0 0 3.58172 0 8C0 12.4183 3.58172 16 8 16Z" fill="#6D8C8E"/>
<path fillRule="evenodd" clipRule="evenodd" d="M3.6213 7.91547C5.95347 6.89938 7.50861 6.22952 8.28672 5.90587C10.5084 4.9818 10.9701 4.82128 11.271 4.81597C11.3371 4.81481 11.4851 4.83121 11.581 4.90899C11.6619 4.97466 11.6842 5.06337 11.6948 5.12563C11.7055 5.1879 11.7187 5.32974 11.7082 5.44057C11.5878 6.70556 11.0669 9.77535 10.8018 11.1922C10.6897 11.7917 10.4689 11.9927 10.2551 12.0123C9.79052 12.0551 9.43775 11.7053 8.98778 11.4104C8.28368 10.9488 7.8859 10.6615 7.20245 10.2111C6.4126 9.69061 6.92463 9.40454 7.37476 8.93701C7.49256 8.81466 9.53949 6.95282 9.57911 6.78392C9.58406 6.7628 9.58866 6.68406 9.54188 6.64248C9.49511 6.60091 9.42607 6.61512 9.37625 6.62643C9.30563 6.64246 8.18081 7.38592 6.0018 8.85681C5.68253 9.07605 5.39334 9.18287 5.13423 9.17727C4.84859 9.1711 4.29913 9.01577 3.89067 8.88299C3.38966 8.72013 2.99148 8.63403 3.02615 8.35745C3.04421 8.21339 3.2426 8.06607 3.6213 7.91547Z" fill="#1C2322"/>
</svg>
