<svg width="264" height="436" viewBox="0 0 264 436" fill="none" xmlns="http://www.w3.org/2000/svg">
<path d="M243.25 10C243.25 10.6904 242.69 11.25 242 11.25C241.31 11.25 240.75 10.6904 240.75 10C240.75 9.30968 241.31 8.75004 242 8.75004C242.69 8.75004 243.25 9.30968 243.25 10Z" fill="#6D8C8E" stroke="#6D8C8E" strokeWidth="0.833333"/>
<path d="M234.5 11.6667C235.42 11.6667 236.167 10.9205 236.167 10C236.167 9.07957 235.42 8.33337 234.5 8.33337C233.579 8.33337 232.833 9.07957 232.833 10C232.833 10.9205 233.579 11.6667 234.5 11.6667Z" fill="#6D8C8E"/>
<path d="M249.5 11.6667C250.42 11.6667 251.167 10.9205 251.167 10C251.167 9.07957 250.42 8.33337 249.5 8.33337C248.579 8.33337 247.833 9.07957 247.833 10C247.833 10.9205 248.579 11.6667 249.5 11.6667Z" fill="#6D8C8E"/>
<g filter="url(#filter0_dd_12037_9280)">
<g clipPath="url(#clip0_12037_9280)">
<rect x="12" y="28" width="240" height="384" rx="8" fill="#1C2322"/>
<g clipPath="url(#clip1_12037_9280)">
<mask id="path-6-inside-1_12037_9280" fill="white">
<path d="M12 28H252V132H12V28Z"/>
</mask>
<path d="M252 131H12V133H252V131Z" fill="#31403C" mask="url(#path-6-inside-1_12037_9280)"/>
<path d="M26.478 53H25.302V43.228H29.194C30.944 43.228 31.924 44.306 31.924 46.028C31.924 47.75 30.944 48.828 29.194 48.828H26.478V53ZM26.478 44.264V47.792H29.194C30.118 47.792 30.664 47.288 30.664 46.392V45.664C30.664 44.768 30.118 44.264 29.194 44.264H26.478ZM35.8642 53H34.8702C34.1002 53 33.6802 52.51 33.6802 51.838V42.64H34.8002V52.02H35.8642V53ZM43.3747 53H42.7447C41.9187 53 41.5827 52.496 41.4987 51.824H41.4287C41.1207 52.706 40.3507 53.168 39.3427 53.168C37.8167 53.168 36.9207 52.328 36.9207 50.984C36.9207 49.626 37.9007 48.87 40.0007 48.87H41.4287V48.156C41.4287 47.134 40.8687 46.574 39.7207 46.574C38.8527 46.574 38.2787 46.994 37.8867 47.652L37.2147 47.022C37.6067 46.252 38.4747 45.608 39.7767 45.608C41.5127 45.608 42.5487 46.518 42.5487 48.044V52.02H43.3747V53ZM39.5247 52.216C40.6307 52.216 41.4287 51.642 41.4287 50.9V49.71H39.9447C38.6707 49.71 38.0967 50.102 38.0967 50.802V51.096C38.0967 51.81 38.6567 52.216 39.5247 52.216ZM47.6612 53.168C45.6312 53.168 44.4412 51.698 44.4412 49.388C44.4412 47.078 45.6312 45.608 47.6612 45.608C49.0892 45.608 49.9432 46.308 50.3632 47.302L49.4252 47.778C49.1592 47.036 48.5432 46.602 47.6612 46.602C46.3312 46.602 45.6452 47.512 45.6452 48.772V50.004C45.6452 51.264 46.3312 52.174 47.6612 52.174C48.5712 52.174 49.2292 51.74 49.6212 50.914L50.4332 51.46C49.9712 52.496 49.0332 53.168 47.6612 53.168ZM54.6482 53.168C52.6882 53.168 51.4002 51.684 51.4002 49.388C51.4002 47.092 52.6882 45.608 54.6482 45.608C56.5802 45.608 57.7702 47.092 57.7702 49.136V49.668H52.5762V50.004C52.5762 51.25 53.3742 52.188 54.7182 52.188C55.6282 52.188 56.3282 51.74 56.7062 50.942L57.5042 51.516C57.0422 52.496 56.0062 53.168 54.6482 53.168ZM54.6482 46.546C53.4302 46.546 52.5762 47.47 52.5762 48.73V48.828H56.5662V48.674C56.5662 47.4 55.7962 46.546 54.6482 46.546ZM59.6158 53V42.64H60.7358V46.952H60.7918C61.1418 46.14 61.7578 45.608 62.8358 45.608C64.3198 45.608 65.2578 46.616 65.2578 48.366V53H64.1378V48.562C64.1378 47.274 63.5778 46.616 62.4998 46.616C61.6038 46.616 60.7358 47.064 60.7358 47.988V53H59.6158ZM70.3028 53.168C68.3708 53.168 67.0408 51.684 67.0408 49.388C67.0408 47.092 68.3708 45.608 70.3028 45.608C72.2348 45.608 73.5648 47.092 73.5648 49.388C73.5648 51.684 72.2348 53.168 70.3028 53.168ZM70.3028 52.174C71.5068 52.174 72.3608 51.432 72.3608 49.906V48.87C72.3608 47.344 71.5068 46.602 70.3028 46.602C69.0988 46.602 68.2448 47.344 68.2448 48.87V49.906C68.2448 51.432 69.0988 52.174 70.3028 52.174ZM77.5908 53H76.5968C75.8268 53 75.4068 52.51 75.4068 51.838V42.64H76.5268V52.02H77.5908V53ZM83.8413 53V51.824H83.7853C83.3513 52.72 82.6653 53.168 81.6713 53.168C79.8653 53.168 78.7313 51.698 78.7313 49.388C78.7313 47.078 79.8653 45.608 81.6713 45.608C82.6653 45.608 83.4073 46.042 83.7853 46.952H83.8413V42.64H84.9613V53H83.8413ZM81.9793 52.16C83.0013 52.16 83.8413 51.628 83.8413 50.69V48.002C83.8413 47.204 83.0013 46.616 81.9793 46.616C80.7193 46.616 79.9353 47.484 79.9353 48.772V50.004C79.9353 51.292 80.7193 52.16 81.9793 52.16ZM90.0583 53.168C88.0983 53.168 86.8103 51.684 86.8103 49.388C86.8103 47.092 88.0983 45.608 90.0583 45.608C91.9903 45.608 93.1803 47.092 93.1803 49.136V49.668H87.9863V50.004C87.9863 51.25 88.7843 52.188 90.1283 52.188C91.0383 52.188 91.7383 51.74 92.1163 50.942L92.9143 51.516C92.4523 52.496 91.4163 53.168 90.0583 53.168ZM90.0583 46.546C88.8403 46.546 87.9863 47.47 87.9863 48.73V48.828H91.9763V48.674C91.9763 47.4 91.2063 46.546 90.0583 46.546ZM96.1459 53H95.0259V45.776H96.1459V47.106H96.2159C96.4679 46.42 97.1259 45.776 98.3019 45.776H98.7359V46.896H98.0779C96.8739 46.896 96.1459 47.414 96.1459 48.1V53Z" fill="white"/>
<path d="M176.468 53.144C175.124 53.144 174.176 52.592 173.504 51.68L174.248 51.056C174.836 51.836 175.532 52.256 176.504 52.256C177.704 52.256 178.352 51.632 178.352 50.672C178.352 49.88 177.908 49.484 176.804 49.232L176.12 49.076C174.596 48.728 173.756 48.056 173.756 46.772C173.756 45.284 174.884 44.48 176.528 44.48C177.788 44.48 178.676 44.96 179.3 45.848L178.544 46.4C178.088 45.764 177.452 45.368 176.48 45.368C175.412 45.368 174.752 45.836 174.752 46.736C174.752 47.528 175.268 47.888 176.324 48.128L177.008 48.284C178.64 48.656 179.348 49.376 179.348 50.624C179.348 52.16 178.268 53.144 176.468 53.144ZM184.809 53V51.992H184.761C184.521 52.58 184.053 53.144 183.021 53.144C181.749 53.144 180.933 52.28 180.933 50.78V46.808H181.893V50.612C181.893 51.716 182.385 52.28 183.309 52.28C184.065 52.28 184.809 51.908 184.809 51.092V46.808H185.769V53H184.809ZM187.813 55.4V46.808H188.773V47.816H188.821C189.145 47.036 189.781 46.664 190.633 46.664C192.181 46.664 193.153 47.924 193.153 49.904C193.153 51.884 192.181 53.144 190.633 53.144C189.781 53.144 189.193 52.76 188.821 51.992H188.773V55.4H187.813ZM190.369 52.28C191.449 52.28 192.121 51.536 192.121 50.432V49.376C192.121 48.272 191.449 47.528 190.369 47.528C189.493 47.528 188.773 48.032 188.773 48.716V51.02C188.773 51.824 189.493 52.28 190.369 52.28ZM194.774 55.4V46.808H195.734V47.816H195.782C196.106 47.036 196.742 46.664 197.594 46.664C199.142 46.664 200.114 47.924 200.114 49.904C200.114 51.884 199.142 53.144 197.594 53.144C196.742 53.144 196.154 52.76 195.782 51.992H195.734V55.4H194.774ZM197.33 52.28C198.41 52.28 199.082 51.536 199.082 50.432V49.376C199.082 48.272 198.41 47.528 197.33 47.528C196.454 47.528 195.734 48.032 195.734 48.716V51.02C195.734 51.824 196.454 52.28 197.33 52.28ZM204.075 53.144C202.419 53.144 201.279 51.872 201.279 49.904C201.279 47.936 202.419 46.664 204.075 46.664C205.731 46.664 206.871 47.936 206.871 49.904C206.871 51.872 205.731 53.144 204.075 53.144ZM204.075 52.292C205.107 52.292 205.839 51.656 205.839 50.348V49.46C205.839 48.152 205.107 47.516 204.075 47.516C203.043 47.516 202.311 48.152 202.311 49.46V50.348C202.311 51.656 203.043 52.292 204.075 52.292ZM209.41 53H208.45V46.808H209.41V47.948H209.47C209.686 47.36 210.25 46.808 211.258 46.808H211.63V47.768H211.066C210.034 47.768 209.41 48.212 209.41 48.8V53ZM215.471 53H214.271C213.611 53 213.251 52.58 213.251 51.98V47.648H212.231V46.808H212.807C213.215 46.808 213.347 46.664 213.347 46.244V45.092H214.211V46.808H215.567V47.648H214.211V52.16H215.471V53ZM222.514 53H221.314C220.654 53 220.294 52.58 220.294 51.98V47.648H219.274V46.808H219.85C220.258 46.808 220.39 46.664 220.39 46.244V45.092H221.254V46.808H222.61V47.648H221.254V52.16H222.514V53ZM226.434 53.144C224.754 53.144 223.65 51.872 223.65 49.904C223.65 47.936 224.754 46.664 226.434 46.664C228.09 46.664 229.11 47.936 229.11 49.688V50.144H224.658V50.432C224.658 51.5 225.342 52.304 226.494 52.304C227.274 52.304 227.874 51.92 228.198 51.236L228.882 51.728C228.486 52.568 227.598 53.144 226.434 53.144ZM226.434 47.468C225.39 47.468 224.658 48.26 224.658 49.34V49.424H228.078V49.292C228.078 48.2 227.418 47.468 226.434 47.468ZM229.783 53L232.075 49.88L229.879 46.808H231.007L232.579 49.112H232.615L234.247 46.808H235.315L233.131 49.808L235.363 53H234.235L232.627 50.576H232.591L230.851 53H229.783ZM239.201 53H238.001C237.341 53 236.981 52.58 236.981 51.98V47.648H235.961V46.808H236.537C236.945 46.808 237.077 46.664 237.077 46.244V45.092H237.941V46.808H239.297V47.648H237.941V52.16H239.201V53Z" fill="#6D8C8E"/>
<path d="M26.478 85H25.302V75.228H29.194C30.944 75.228 31.924 76.306 31.924 78.028C31.924 79.75 30.944 80.828 29.194 80.828H26.478V85ZM26.478 76.264V79.792H29.194C30.118 79.792 30.664 79.288 30.664 78.392V77.664C30.664 76.768 30.118 76.264 29.194 76.264H26.478ZM35.8642 85H34.8702C34.1002 85 33.6802 84.51 33.6802 83.838V74.64H34.8002V84.02H35.8642V85ZM43.3747 85H42.7447C41.9187 85 41.5827 84.496 41.4987 83.824H41.4287C41.1207 84.706 40.3507 85.168 39.3427 85.168C37.8167 85.168 36.9207 84.328 36.9207 82.984C36.9207 81.626 37.9007 80.87 40.0007 80.87H41.4287V80.156C41.4287 79.134 40.8687 78.574 39.7207 78.574C38.8527 78.574 38.2787 78.994 37.8867 79.652L37.2147 79.022C37.6067 78.252 38.4747 77.608 39.7767 77.608C41.5127 77.608 42.5487 78.518 42.5487 80.044V84.02H43.3747V85ZM39.5247 84.216C40.6307 84.216 41.4287 83.642 41.4287 82.9V81.71H39.9447C38.6707 81.71 38.0967 82.102 38.0967 82.802V83.096C38.0967 83.81 38.6567 84.216 39.5247 84.216ZM47.6612 85.168C45.6312 85.168 44.4412 83.698 44.4412 81.388C44.4412 79.078 45.6312 77.608 47.6612 77.608C49.0892 77.608 49.9432 78.308 50.3632 79.302L49.4252 79.778C49.1592 79.036 48.5432 78.602 47.6612 78.602C46.3312 78.602 45.6452 79.512 45.6452 80.772V82.004C45.6452 83.264 46.3312 84.174 47.6612 84.174C48.5712 84.174 49.2292 83.74 49.6212 82.914L50.4332 83.46C49.9712 84.496 49.0332 85.168 47.6612 85.168ZM54.6482 85.168C52.6882 85.168 51.4002 83.684 51.4002 81.388C51.4002 79.092 52.6882 77.608 54.6482 77.608C56.5802 77.608 57.7702 79.092 57.7702 81.136V81.668H52.5762V82.004C52.5762 83.25 53.3742 84.188 54.7182 84.188C55.6282 84.188 56.3282 83.74 56.7062 82.942L57.5042 83.516C57.0422 84.496 56.0062 85.168 54.6482 85.168ZM54.6482 78.546C53.4302 78.546 52.5762 79.47 52.5762 80.73V80.828H56.5662V80.674C56.5662 79.4 55.7962 78.546 54.6482 78.546ZM59.6158 85V74.64H60.7358V78.952H60.7918C61.1418 78.14 61.7578 77.608 62.8358 77.608C64.3198 77.608 65.2578 78.616 65.2578 80.366V85H64.1378V80.562C64.1378 79.274 63.5778 78.616 62.4998 78.616C61.6038 78.616 60.7358 79.064 60.7358 79.988V85H59.6158ZM70.3028 85.168C68.3708 85.168 67.0408 83.684 67.0408 81.388C67.0408 79.092 68.3708 77.608 70.3028 77.608C72.2348 77.608 73.5648 79.092 73.5648 81.388C73.5648 83.684 72.2348 85.168 70.3028 85.168ZM70.3028 84.174C71.5068 84.174 72.3608 83.432 72.3608 81.906V80.87C72.3608 79.344 71.5068 78.602 70.3028 78.602C69.0988 78.602 68.2448 79.344 68.2448 80.87V81.906C68.2448 83.432 69.0988 84.174 70.3028 84.174ZM77.5908 85H76.5968C75.8268 85 75.4068 84.51 75.4068 83.838V74.64H76.5268V84.02H77.5908V85ZM83.8413 85V83.824H83.7853C83.3513 84.72 82.6653 85.168 81.6713 85.168C79.8653 85.168 78.7313 83.698 78.7313 81.388C78.7313 79.078 79.8653 77.608 81.6713 77.608C82.6653 77.608 83.4073 78.042 83.7853 78.952H83.8413V74.64H84.9613V85H83.8413ZM81.9793 84.16C83.0013 84.16 83.8413 83.628 83.8413 82.69V80.002C83.8413 79.204 83.0013 78.616 81.9793 78.616C80.7193 78.616 79.9353 79.484 79.9353 80.772V82.004C79.9353 83.292 80.7193 84.16 81.9793 84.16ZM90.0583 85.168C88.0983 85.168 86.8103 83.684 86.8103 81.388C86.8103 79.092 88.0983 77.608 90.0583 77.608C91.9903 77.608 93.1803 79.092 93.1803 81.136V81.668H87.9863V82.004C87.9863 83.25 88.7843 84.188 90.1283 84.188C91.0383 84.188 91.7383 83.74 92.1163 82.942L92.9143 83.516C92.4523 84.496 91.4163 85.168 90.0583 85.168ZM90.0583 78.546C88.8403 78.546 87.9863 79.47 87.9863 80.73V80.828H91.9763V80.674C91.9763 79.4 91.2063 78.546 90.0583 78.546ZM96.1459 85H95.0259V77.776H96.1459V79.106H96.2159C96.4679 78.42 97.1259 77.776 98.3019 77.776H98.7359V78.896H98.0779C96.8739 78.896 96.1459 79.414 96.1459 80.1V85Z" fill="white"/>
<path d="M176.468 85.144C175.124 85.144 174.176 84.592 173.504 83.68L174.248 83.056C174.836 83.836 175.532 84.256 176.504 84.256C177.704 84.256 178.352 83.632 178.352 82.672C178.352 81.88 177.908 81.484 176.804 81.232L176.12 81.076C174.596 80.728 173.756 80.056 173.756 78.772C173.756 77.284 174.884 76.48 176.528 76.48C177.788 76.48 178.676 76.96 179.3 77.848L178.544 78.4C178.088 77.764 177.452 77.368 176.48 77.368C175.412 77.368 174.752 77.836 174.752 78.736C174.752 79.528 175.268 79.888 176.324 80.128L177.008 80.284C178.64 80.656 179.348 81.376 179.348 82.624C179.348 84.16 178.268 85.144 176.468 85.144ZM184.809 85V83.992H184.761C184.521 84.58 184.053 85.144 183.021 85.144C181.749 85.144 180.933 84.28 180.933 82.78V78.808H181.893V82.612C181.893 83.716 182.385 84.28 183.309 84.28C184.065 84.28 184.809 83.908 184.809 83.092V78.808H185.769V85H184.809ZM187.813 87.4V78.808H188.773V79.816H188.821C189.145 79.036 189.781 78.664 190.633 78.664C192.181 78.664 193.153 79.924 193.153 81.904C193.153 83.884 192.181 85.144 190.633 85.144C189.781 85.144 189.193 84.76 188.821 83.992H188.773V87.4H187.813ZM190.369 84.28C191.449 84.28 192.121 83.536 192.121 82.432V81.376C192.121 80.272 191.449 79.528 190.369 79.528C189.493 79.528 188.773 80.032 188.773 80.716V83.02C188.773 83.824 189.493 84.28 190.369 84.28ZM194.774 87.4V78.808H195.734V79.816H195.782C196.106 79.036 196.742 78.664 197.594 78.664C199.142 78.664 200.114 79.924 200.114 81.904C200.114 83.884 199.142 85.144 197.594 85.144C196.742 85.144 196.154 84.76 195.782 83.992H195.734V87.4H194.774ZM197.33 84.28C198.41 84.28 199.082 83.536 199.082 82.432V81.376C199.082 80.272 198.41 79.528 197.33 79.528C196.454 79.528 195.734 80.032 195.734 80.716V83.02C195.734 83.824 196.454 84.28 197.33 84.28ZM204.075 85.144C202.419 85.144 201.279 83.872 201.279 81.904C201.279 79.936 202.419 78.664 204.075 78.664C205.731 78.664 206.871 79.936 206.871 81.904C206.871 83.872 205.731 85.144 204.075 85.144ZM204.075 84.292C205.107 84.292 205.839 83.656 205.839 82.348V81.46C205.839 80.152 205.107 79.516 204.075 79.516C203.043 79.516 202.311 80.152 202.311 81.46V82.348C202.311 83.656 203.043 84.292 204.075 84.292ZM209.41 85H208.45V78.808H209.41V79.948H209.47C209.686 79.36 210.25 78.808 211.258 78.808H211.63V79.768H211.066C210.034 79.768 209.41 80.212 209.41 80.8V85ZM215.471 85H214.271C213.611 85 213.251 84.58 213.251 83.98V79.648H212.231V78.808H212.807C213.215 78.808 213.347 78.664 213.347 78.244V77.092H214.211V78.808H215.567V79.648H214.211V84.16H215.471V85ZM222.514 85H221.314C220.654 85 220.294 84.58 220.294 83.98V79.648H219.274V78.808H219.85C220.258 78.808 220.39 78.664 220.39 78.244V77.092H221.254V78.808H222.61V79.648H221.254V84.16H222.514V85ZM226.434 85.144C224.754 85.144 223.65 83.872 223.65 81.904C223.65 79.936 224.754 78.664 226.434 78.664C228.09 78.664 229.11 79.936 229.11 81.688V82.144H224.658V82.432C224.658 83.5 225.342 84.304 226.494 84.304C227.274 84.304 227.874 83.92 228.198 83.236L228.882 83.728C228.486 84.568 227.598 85.144 226.434 85.144ZM226.434 79.468C225.39 79.468 224.658 80.26 224.658 81.34V81.424H228.078V81.292C228.078 80.2 227.418 79.468 226.434 79.468ZM229.783 85L232.075 81.88L229.879 78.808H231.007L232.579 81.112H232.615L234.247 78.808H235.315L233.131 81.808L235.363 85H234.235L232.627 82.576H232.591L230.851 85H229.783ZM239.201 85H238.001C237.341 85 236.981 84.58 236.981 83.98V79.648H235.961V78.808H236.537C236.945 78.808 237.077 78.664 237.077 78.244V77.092H237.941V78.808H239.297V79.648H237.941V84.16H239.201V85Z" fill="#6D8C8E"/>
<path d="M26.478 117H25.302V107.228H29.194C30.944 107.228 31.924 108.306 31.924 110.028C31.924 111.75 30.944 112.828 29.194 112.828H26.478V117ZM26.478 108.264V111.792H29.194C30.118 111.792 30.664 111.288 30.664 110.392V109.664C30.664 108.768 30.118 108.264 29.194 108.264H26.478ZM35.8642 117H34.8702C34.1002 117 33.6802 116.51 33.6802 115.838V106.64H34.8002V116.02H35.8642V117ZM43.3747 117H42.7447C41.9187 117 41.5827 116.496 41.4987 115.824H41.4287C41.1207 116.706 40.3507 117.168 39.3427 117.168C37.8167 117.168 36.9207 116.328 36.9207 114.984C36.9207 113.626 37.9007 112.87 40.0007 112.87H41.4287V112.156C41.4287 111.134 40.8687 110.574 39.7207 110.574C38.8527 110.574 38.2787 110.994 37.8867 111.652L37.2147 111.022C37.6067 110.252 38.4747 109.608 39.7767 109.608C41.5127 109.608 42.5487 110.518 42.5487 112.044V116.02H43.3747V117ZM39.5247 116.216C40.6307 116.216 41.4287 115.642 41.4287 114.9V113.71H39.9447C38.6707 113.71 38.0967 114.102 38.0967 114.802V115.096C38.0967 115.81 38.6567 116.216 39.5247 116.216ZM47.6612 117.168C45.6312 117.168 44.4412 115.698 44.4412 113.388C44.4412 111.078 45.6312 109.608 47.6612 109.608C49.0892 109.608 49.9432 110.308 50.3632 111.302L49.4252 111.778C49.1592 111.036 48.5432 110.602 47.6612 110.602C46.3312 110.602 45.6452 111.512 45.6452 112.772V114.004C45.6452 115.264 46.3312 116.174 47.6612 116.174C48.5712 116.174 49.2292 115.74 49.6212 114.914L50.4332 115.46C49.9712 116.496 49.0332 117.168 47.6612 117.168ZM54.6482 117.168C52.6882 117.168 51.4002 115.684 51.4002 113.388C51.4002 111.092 52.6882 109.608 54.6482 109.608C56.5802 109.608 57.7702 111.092 57.7702 113.136V113.668H52.5762V114.004C52.5762 115.25 53.3742 116.188 54.7182 116.188C55.6282 116.188 56.3282 115.74 56.7062 114.942L57.5042 115.516C57.0422 116.496 56.0062 117.168 54.6482 117.168ZM54.6482 110.546C53.4302 110.546 52.5762 111.47 52.5762 112.73V112.828H56.5662V112.674C56.5662 111.4 55.7962 110.546 54.6482 110.546ZM59.6158 117V106.64H60.7358V110.952H60.7918C61.1418 110.14 61.7578 109.608 62.8358 109.608C64.3198 109.608 65.2578 110.616 65.2578 112.366V117H64.1378V112.562C64.1378 111.274 63.5778 110.616 62.4998 110.616C61.6038 110.616 60.7358 111.064 60.7358 111.988V117H59.6158ZM70.3028 117.168C68.3708 117.168 67.0408 115.684 67.0408 113.388C67.0408 111.092 68.3708 109.608 70.3028 109.608C72.2348 109.608 73.5648 111.092 73.5648 113.388C73.5648 115.684 72.2348 117.168 70.3028 117.168ZM70.3028 116.174C71.5068 116.174 72.3608 115.432 72.3608 113.906V112.87C72.3608 111.344 71.5068 110.602 70.3028 110.602C69.0988 110.602 68.2448 111.344 68.2448 112.87V113.906C68.2448 115.432 69.0988 116.174 70.3028 116.174ZM77.5908 117H76.5968C75.8268 117 75.4068 116.51 75.4068 115.838V106.64H76.5268V116.02H77.5908V117ZM83.8413 117V115.824H83.7853C83.3513 116.72 82.6653 117.168 81.6713 117.168C79.8653 117.168 78.7313 115.698 78.7313 113.388C78.7313 111.078 79.8653 109.608 81.6713 109.608C82.6653 109.608 83.4073 110.042 83.7853 110.952H83.8413V106.64H84.9613V117H83.8413ZM81.9793 116.16C83.0013 116.16 83.8413 115.628 83.8413 114.69V112.002C83.8413 111.204 83.0013 110.616 81.9793 110.616C80.7193 110.616 79.9353 111.484 79.9353 112.772V114.004C79.9353 115.292 80.7193 116.16 81.9793 116.16ZM90.0583 117.168C88.0983 117.168 86.8103 115.684 86.8103 113.388C86.8103 111.092 88.0983 109.608 90.0583 109.608C91.9903 109.608 93.1803 111.092 93.1803 113.136V113.668H87.9863V114.004C87.9863 115.25 88.7843 116.188 90.1283 116.188C91.0383 116.188 91.7383 115.74 92.1163 114.942L92.9143 115.516C92.4523 116.496 91.4163 117.168 90.0583 117.168ZM90.0583 110.546C88.8403 110.546 87.9863 111.47 87.9863 112.73V112.828H91.9763V112.674C91.9763 111.4 91.2063 110.546 90.0583 110.546ZM96.1459 117H95.0259V109.776H96.1459V111.106H96.2159C96.4679 110.42 97.1259 109.776 98.3019 109.776H98.7359V110.896H98.0779C96.8739 110.896 96.1459 111.414 96.1459 112.1V117Z" fill="white"/>
<path d="M176.468 117.144C175.124 117.144 174.176 116.592 173.504 115.68L174.248 115.056C174.836 115.836 175.532 116.256 176.504 116.256C177.704 116.256 178.352 115.632 178.352 114.672C178.352 113.88 177.908 113.484 176.804 113.232L176.12 113.076C174.596 112.728 173.756 112.056 173.756 110.772C173.756 109.284 174.884 108.48 176.528 108.48C177.788 108.48 178.676 108.96 179.3 109.848L178.544 110.4C178.088 109.764 177.452 109.368 176.48 109.368C175.412 109.368 174.752 109.836 174.752 110.736C174.752 111.528 175.268 111.888 176.324 112.128L177.008 112.284C178.64 112.656 179.348 113.376 179.348 114.624C179.348 116.16 178.268 117.144 176.468 117.144ZM184.809 117V115.992H184.761C184.521 116.58 184.053 117.144 183.021 117.144C181.749 117.144 180.933 116.28 180.933 114.78V110.808H181.893V114.612C181.893 115.716 182.385 116.28 183.309 116.28C184.065 116.28 184.809 115.908 184.809 115.092V110.808H185.769V117H184.809ZM187.813 119.4V110.808H188.773V111.816H188.821C189.145 111.036 189.781 110.664 190.633 110.664C192.181 110.664 193.153 111.924 193.153 113.904C193.153 115.884 192.181 117.144 190.633 117.144C189.781 117.144 189.193 116.76 188.821 115.992H188.773V119.4H187.813ZM190.369 116.28C191.449 116.28 192.121 115.536 192.121 114.432V113.376C192.121 112.272 191.449 111.528 190.369 111.528C189.493 111.528 188.773 112.032 188.773 112.716V115.02C188.773 115.824 189.493 116.28 190.369 116.28ZM194.774 119.4V110.808H195.734V111.816H195.782C196.106 111.036 196.742 110.664 197.594 110.664C199.142 110.664 200.114 111.924 200.114 113.904C200.114 115.884 199.142 117.144 197.594 117.144C196.742 117.144 196.154 116.76 195.782 115.992H195.734V119.4H194.774ZM197.33 116.28C198.41 116.28 199.082 115.536 199.082 114.432V113.376C199.082 112.272 198.41 111.528 197.33 111.528C196.454 111.528 195.734 112.032 195.734 112.716V115.02C195.734 115.824 196.454 116.28 197.33 116.28ZM204.075 117.144C202.419 117.144 201.279 115.872 201.279 113.904C201.279 111.936 202.419 110.664 204.075 110.664C205.731 110.664 206.871 111.936 206.871 113.904C206.871 115.872 205.731 117.144 204.075 117.144ZM204.075 116.292C205.107 116.292 205.839 115.656 205.839 114.348V113.46C205.839 112.152 205.107 111.516 204.075 111.516C203.043 111.516 202.311 112.152 202.311 113.46V114.348C202.311 115.656 203.043 116.292 204.075 116.292ZM209.41 117H208.45V110.808H209.41V111.948H209.47C209.686 111.36 210.25 110.808 211.258 110.808H211.63V111.768H211.066C210.034 111.768 209.41 112.212 209.41 112.8V117ZM215.471 117H214.271C213.611 117 213.251 116.58 213.251 115.98V111.648H212.231V110.808H212.807C213.215 110.808 213.347 110.664 213.347 110.244V109.092H214.211V110.808H215.567V111.648H214.211V116.16H215.471V117ZM222.514 117H221.314C220.654 117 220.294 116.58 220.294 115.98V111.648H219.274V110.808H219.85C220.258 110.808 220.39 110.664 220.39 110.244V109.092H221.254V110.808H222.61V111.648H221.254V116.16H222.514V117ZM226.434 117.144C224.754 117.144 223.65 115.872 223.65 113.904C223.65 111.936 224.754 110.664 226.434 110.664C228.09 110.664 229.11 111.936 229.11 113.688V114.144H224.658V114.432C224.658 115.5 225.342 116.304 226.494 116.304C227.274 116.304 227.874 115.92 228.198 115.236L228.882 115.728C228.486 116.568 227.598 117.144 226.434 117.144ZM226.434 111.468C225.39 111.468 224.658 112.26 224.658 113.34V113.424H228.078V113.292C228.078 112.2 227.418 111.468 226.434 111.468ZM229.783 117L232.075 113.88L229.879 110.808H231.007L232.579 113.112H232.615L234.247 110.808H235.315L233.131 113.808L235.363 117H234.235L232.627 114.576H232.591L230.851 117H229.783ZM239.201 117H238.001C237.341 117 236.981 116.58 236.981 115.98V111.648H235.961V110.808H236.537C236.945 110.808 237.077 110.664 237.077 110.244V109.092H237.941V110.808H239.297V111.648H237.941V116.16H239.201V117Z" fill="#6D8C8E"/>
<mask id="path-17-inside-2_12037_9280" fill="white">
<path d="M12 132H252V236H12V132Z"/>
</mask>
<path d="M252 235H12V237H252V235Z" fill="#31403C" mask="url(#path-17-inside-2_12037_9280)"/>
<path d="M26.478 157H25.302V147.228H29.194C30.944 147.228 31.924 148.306 31.924 150.028C31.924 151.75 30.944 152.828 29.194 152.828H26.478V157ZM26.478 148.264V151.792H29.194C30.118 151.792 30.664 151.288 30.664 150.392V149.664C30.664 148.768 30.118 148.264 29.194 148.264H26.478ZM35.8642 157H34.8702C34.1002 157 33.6802 156.51 33.6802 155.838V146.64H34.8002V156.02H35.8642V157ZM43.3747 157H42.7447C41.9187 157 41.5827 156.496 41.4987 155.824H41.4287C41.1207 156.706 40.3507 157.168 39.3427 157.168C37.8167 157.168 36.9207 156.328 36.9207 154.984C36.9207 153.626 37.9007 152.87 40.0007 152.87H41.4287V152.156C41.4287 151.134 40.8687 150.574 39.7207 150.574C38.8527 150.574 38.2787 150.994 37.8867 151.652L37.2147 151.022C37.6067 150.252 38.4747 149.608 39.7767 149.608C41.5127 149.608 42.5487 150.518 42.5487 152.044V156.02H43.3747V157ZM39.5247 156.216C40.6307 156.216 41.4287 155.642 41.4287 154.9V153.71H39.9447C38.6707 153.71 38.0967 154.102 38.0967 154.802V155.096C38.0967 155.81 38.6567 156.216 39.5247 156.216ZM47.6612 157.168C45.6312 157.168 44.4412 155.698 44.4412 153.388C44.4412 151.078 45.6312 149.608 47.6612 149.608C49.0892 149.608 49.9432 150.308 50.3632 151.302L49.4252 151.778C49.1592 151.036 48.5432 150.602 47.6612 150.602C46.3312 150.602 45.6452 151.512 45.6452 152.772V154.004C45.6452 155.264 46.3312 156.174 47.6612 156.174C48.5712 156.174 49.2292 155.74 49.6212 154.914L50.4332 155.46C49.9712 156.496 49.0332 157.168 47.6612 157.168ZM54.6482 157.168C52.6882 157.168 51.4002 155.684 51.4002 153.388C51.4002 151.092 52.6882 149.608 54.6482 149.608C56.5802 149.608 57.7702 151.092 57.7702 153.136V153.668H52.5762V154.004C52.5762 155.25 53.3742 156.188 54.7182 156.188C55.6282 156.188 56.3282 155.74 56.7062 154.942L57.5042 155.516C57.0422 156.496 56.0062 157.168 54.6482 157.168ZM54.6482 150.546C53.4302 150.546 52.5762 151.47 52.5762 152.73V152.828H56.5662V152.674C56.5662 151.4 55.7962 150.546 54.6482 150.546ZM59.6158 157V146.64H60.7358V150.952H60.7918C61.1418 150.14 61.7578 149.608 62.8358 149.608C64.3198 149.608 65.2578 150.616 65.2578 152.366V157H64.1378V152.562C64.1378 151.274 63.5778 150.616 62.4998 150.616C61.6038 150.616 60.7358 151.064 60.7358 151.988V157H59.6158ZM70.3028 157.168C68.3708 157.168 67.0408 155.684 67.0408 153.388C67.0408 151.092 68.3708 149.608 70.3028 149.608C72.2348 149.608 73.5648 151.092 73.5648 153.388C73.5648 155.684 72.2348 157.168 70.3028 157.168ZM70.3028 156.174C71.5068 156.174 72.3608 155.432 72.3608 153.906V152.87C72.3608 151.344 71.5068 150.602 70.3028 150.602C69.0988 150.602 68.2448 151.344 68.2448 152.87V153.906C68.2448 155.432 69.0988 156.174 70.3028 156.174ZM77.5908 157H76.5968C75.8268 157 75.4068 156.51 75.4068 155.838V146.64H76.5268V156.02H77.5908V157ZM83.8413 157V155.824H83.7853C83.3513 156.72 82.6653 157.168 81.6713 157.168C79.8653 157.168 78.7313 155.698 78.7313 153.388C78.7313 151.078 79.8653 149.608 81.6713 149.608C82.6653 149.608 83.4073 150.042 83.7853 150.952H83.8413V146.64H84.9613V157H83.8413ZM81.9793 156.16C83.0013 156.16 83.8413 155.628 83.8413 154.69V152.002C83.8413 151.204 83.0013 150.616 81.9793 150.616C80.7193 150.616 79.9353 151.484 79.9353 152.772V154.004C79.9353 155.292 80.7193 156.16 81.9793 156.16ZM90.0583 157.168C88.0983 157.168 86.8103 155.684 86.8103 153.388C86.8103 151.092 88.0983 149.608 90.0583 149.608C91.9903 149.608 93.1803 151.092 93.1803 153.136V153.668H87.9863V154.004C87.9863 155.25 88.7843 156.188 90.1283 156.188C91.0383 156.188 91.7383 155.74 92.1163 154.942L92.9143 155.516C92.4523 156.496 91.4163 157.168 90.0583 157.168ZM90.0583 150.546C88.8403 150.546 87.9863 151.47 87.9863 152.73V152.828H91.9763V152.674C91.9763 151.4 91.2063 150.546 90.0583 150.546ZM96.1459 157H95.0259V149.776H96.1459V151.106H96.2159C96.4679 150.42 97.1259 149.776 98.3019 149.776H98.7359V150.896H98.0779C96.8739 150.896 96.1459 151.414 96.1459 152.1V157Z" fill="white"/>
<path d="M176.468 157.144C175.124 157.144 174.176 156.592 173.504 155.68L174.248 155.056C174.836 155.836 175.532 156.256 176.504 156.256C177.704 156.256 178.352 155.632 178.352 154.672C178.352 153.88 177.908 153.484 176.804 153.232L176.12 153.076C174.596 152.728 173.756 152.056 173.756 150.772C173.756 149.284 174.884 148.48 176.528 148.48C177.788 148.48 178.676 148.96 179.3 149.848L178.544 150.4C178.088 149.764 177.452 149.368 176.48 149.368C175.412 149.368 174.752 149.836 174.752 150.736C174.752 151.528 175.268 151.888 176.324 152.128L177.008 152.284C178.64 152.656 179.348 153.376 179.348 154.624C179.348 156.16 178.268 157.144 176.468 157.144ZM184.809 157V155.992H184.761C184.521 156.58 184.053 157.144 183.021 157.144C181.749 157.144 180.933 156.28 180.933 154.78V150.808H181.893V154.612C181.893 155.716 182.385 156.28 183.309 156.28C184.065 156.28 184.809 155.908 184.809 155.092V150.808H185.769V157H184.809ZM187.813 159.4V150.808H188.773V151.816H188.821C189.145 151.036 189.781 150.664 190.633 150.664C192.181 150.664 193.153 151.924 193.153 153.904C193.153 155.884 192.181 157.144 190.633 157.144C189.781 157.144 189.193 156.76 188.821 155.992H188.773V159.4H187.813ZM190.369 156.28C191.449 156.28 192.121 155.536 192.121 154.432V153.376C192.121 152.272 191.449 151.528 190.369 151.528C189.493 151.528 188.773 152.032 188.773 152.716V155.02C188.773 155.824 189.493 156.28 190.369 156.28ZM194.774 159.4V150.808H195.734V151.816H195.782C196.106 151.036 196.742 150.664 197.594 150.664C199.142 150.664 200.114 151.924 200.114 153.904C200.114 155.884 199.142 157.144 197.594 157.144C196.742 157.144 196.154 156.76 195.782 155.992H195.734V159.4H194.774ZM197.33 156.28C198.41 156.28 199.082 155.536 199.082 154.432V153.376C199.082 152.272 198.41 151.528 197.33 151.528C196.454 151.528 195.734 152.032 195.734 152.716V155.02C195.734 155.824 196.454 156.28 197.33 156.28ZM204.075 157.144C202.419 157.144 201.279 155.872 201.279 153.904C201.279 151.936 202.419 150.664 204.075 150.664C205.731 150.664 206.871 151.936 206.871 153.904C206.871 155.872 205.731 157.144 204.075 157.144ZM204.075 156.292C205.107 156.292 205.839 155.656 205.839 154.348V153.46C205.839 152.152 205.107 151.516 204.075 151.516C203.043 151.516 202.311 152.152 202.311 153.46V154.348C202.311 155.656 203.043 156.292 204.075 156.292ZM209.41 157H208.45V150.808H209.41V151.948H209.47C209.686 151.36 210.25 150.808 211.258 150.808H211.63V151.768H211.066C210.034 151.768 209.41 152.212 209.41 152.8V157ZM215.471 157H214.271C213.611 157 213.251 156.58 213.251 155.98V151.648H212.231V150.808H212.807C213.215 150.808 213.347 150.664 213.347 150.244V149.092H214.211V150.808H215.567V151.648H214.211V156.16H215.471V157ZM222.514 157H221.314C220.654 157 220.294 156.58 220.294 155.98V151.648H219.274V150.808H219.85C220.258 150.808 220.39 150.664 220.39 150.244V149.092H221.254V150.808H222.61V151.648H221.254V156.16H222.514V157ZM226.434 157.144C224.754 157.144 223.65 155.872 223.65 153.904C223.65 151.936 224.754 150.664 226.434 150.664C228.09 150.664 229.11 151.936 229.11 153.688V154.144H224.658V154.432C224.658 155.5 225.342 156.304 226.494 156.304C227.274 156.304 227.874 155.92 228.198 155.236L228.882 155.728C228.486 156.568 227.598 157.144 226.434 157.144ZM226.434 151.468C225.39 151.468 224.658 152.26 224.658 153.34V153.424H228.078V153.292C228.078 152.2 227.418 151.468 226.434 151.468ZM229.783 157L232.075 153.88L229.879 150.808H231.007L232.579 153.112H232.615L234.247 150.808H235.315L233.131 153.808L235.363 157H234.235L232.627 154.576H232.591L230.851 157H229.783ZM239.201 157H238.001C237.341 157 236.981 156.58 236.981 155.98V151.648H235.961V150.808H236.537C236.945 150.808 237.077 150.664 237.077 150.244V149.092H237.941V150.808H239.297V151.648H237.941V156.16H239.201V157Z" fill="#6D8C8E"/>
<path d="M26.478 189H25.302V179.228H29.194C30.944 179.228 31.924 180.306 31.924 182.028C31.924 183.75 30.944 184.828 29.194 184.828H26.478V189ZM26.478 180.264V183.792H29.194C30.118 183.792 30.664 183.288 30.664 182.392V181.664C30.664 180.768 30.118 180.264 29.194 180.264H26.478ZM35.8642 189H34.8702C34.1002 189 33.6802 188.51 33.6802 187.838V178.64H34.8002V188.02H35.8642V189ZM43.3747 189H42.7447C41.9187 189 41.5827 188.496 41.4987 187.824H41.4287C41.1207 188.706 40.3507 189.168 39.3427 189.168C37.8167 189.168 36.9207 188.328 36.9207 186.984C36.9207 185.626 37.9007 184.87 40.0007 184.87H41.4287V184.156C41.4287 183.134 40.8687 182.574 39.7207 182.574C38.8527 182.574 38.2787 182.994 37.8867 183.652L37.2147 183.022C37.6067 182.252 38.4747 181.608 39.7767 181.608C41.5127 181.608 42.5487 182.518 42.5487 184.044V188.02H43.3747V189ZM39.5247 188.216C40.6307 188.216 41.4287 187.642 41.4287 186.9V185.71H39.9447C38.6707 185.71 38.0967 186.102 38.0967 186.802V187.096C38.0967 187.81 38.6567 188.216 39.5247 188.216ZM47.6612 189.168C45.6312 189.168 44.4412 187.698 44.4412 185.388C44.4412 183.078 45.6312 181.608 47.6612 181.608C49.0892 181.608 49.9432 182.308 50.3632 183.302L49.4252 183.778C49.1592 183.036 48.5432 182.602 47.6612 182.602C46.3312 182.602 45.6452 183.512 45.6452 184.772V186.004C45.6452 187.264 46.3312 188.174 47.6612 188.174C48.5712 188.174 49.2292 187.74 49.6212 186.914L50.4332 187.46C49.9712 188.496 49.0332 189.168 47.6612 189.168ZM54.6482 189.168C52.6882 189.168 51.4002 187.684 51.4002 185.388C51.4002 183.092 52.6882 181.608 54.6482 181.608C56.5802 181.608 57.7702 183.092 57.7702 185.136V185.668H52.5762V186.004C52.5762 187.25 53.3742 188.188 54.7182 188.188C55.6282 188.188 56.3282 187.74 56.7062 186.942L57.5042 187.516C57.0422 188.496 56.0062 189.168 54.6482 189.168ZM54.6482 182.546C53.4302 182.546 52.5762 183.47 52.5762 184.73V184.828H56.5662V184.674C56.5662 183.4 55.7962 182.546 54.6482 182.546ZM59.6158 189V178.64H60.7358V182.952H60.7918C61.1418 182.14 61.7578 181.608 62.8358 181.608C64.3198 181.608 65.2578 182.616 65.2578 184.366V189H64.1378V184.562C64.1378 183.274 63.5778 182.616 62.4998 182.616C61.6038 182.616 60.7358 183.064 60.7358 183.988V189H59.6158ZM70.3028 189.168C68.3708 189.168 67.0408 187.684 67.0408 185.388C67.0408 183.092 68.3708 181.608 70.3028 181.608C72.2348 181.608 73.5648 183.092 73.5648 185.388C73.5648 187.684 72.2348 189.168 70.3028 189.168ZM70.3028 188.174C71.5068 188.174 72.3608 187.432 72.3608 185.906V184.87C72.3608 183.344 71.5068 182.602 70.3028 182.602C69.0988 182.602 68.2448 183.344 68.2448 184.87V185.906C68.2448 187.432 69.0988 188.174 70.3028 188.174ZM77.5908 189H76.5968C75.8268 189 75.4068 188.51 75.4068 187.838V178.64H76.5268V188.02H77.5908V189ZM83.8413 189V187.824H83.7853C83.3513 188.72 82.6653 189.168 81.6713 189.168C79.8653 189.168 78.7313 187.698 78.7313 185.388C78.7313 183.078 79.8653 181.608 81.6713 181.608C82.6653 181.608 83.4073 182.042 83.7853 182.952H83.8413V178.64H84.9613V189H83.8413ZM81.9793 188.16C83.0013 188.16 83.8413 187.628 83.8413 186.69V184.002C83.8413 183.204 83.0013 182.616 81.9793 182.616C80.7193 182.616 79.9353 183.484 79.9353 184.772V186.004C79.9353 187.292 80.7193 188.16 81.9793 188.16ZM90.0583 189.168C88.0983 189.168 86.8103 187.684 86.8103 185.388C86.8103 183.092 88.0983 181.608 90.0583 181.608C91.9903 181.608 93.1803 183.092 93.1803 185.136V185.668H87.9863V186.004C87.9863 187.25 88.7843 188.188 90.1283 188.188C91.0383 188.188 91.7383 187.74 92.1163 186.942L92.9143 187.516C92.4523 188.496 91.4163 189.168 90.0583 189.168ZM90.0583 182.546C88.8403 182.546 87.9863 183.47 87.9863 184.73V184.828H91.9763V184.674C91.9763 183.4 91.2063 182.546 90.0583 182.546ZM96.1459 189H95.0259V181.776H96.1459V183.106H96.2159C96.4679 182.42 97.1259 181.776 98.3019 181.776H98.7359V182.896H98.0779C96.8739 182.896 96.1459 183.414 96.1459 184.1V189Z" fill="white"/>
<path d="M176.468 189.144C175.124 189.144 174.176 188.592 173.504 187.68L174.248 187.056C174.836 187.836 175.532 188.256 176.504 188.256C177.704 188.256 178.352 187.632 178.352 186.672C178.352 185.88 177.908 185.484 176.804 185.232L176.12 185.076C174.596 184.728 173.756 184.056 173.756 182.772C173.756 181.284 174.884 180.48 176.528 180.48C177.788 180.48 178.676 180.96 179.3 181.848L178.544 182.4C178.088 181.764 177.452 181.368 176.48 181.368C175.412 181.368 174.752 181.836 174.752 182.736C174.752 183.528 175.268 183.888 176.324 184.128L177.008 184.284C178.64 184.656 179.348 185.376 179.348 186.624C179.348 188.16 178.268 189.144 176.468 189.144ZM184.809 189V187.992H184.761C184.521 188.58 184.053 189.144 183.021 189.144C181.749 189.144 180.933 188.28 180.933 186.78V182.808H181.893V186.612C181.893 187.716 182.385 188.28 183.309 188.28C184.065 188.28 184.809 187.908 184.809 187.092V182.808H185.769V189H184.809ZM187.813 191.4V182.808H188.773V183.816H188.821C189.145 183.036 189.781 182.664 190.633 182.664C192.181 182.664 193.153 183.924 193.153 185.904C193.153 187.884 192.181 189.144 190.633 189.144C189.781 189.144 189.193 188.76 188.821 187.992H188.773V191.4H187.813ZM190.369 188.28C191.449 188.28 192.121 187.536 192.121 186.432V185.376C192.121 184.272 191.449 183.528 190.369 183.528C189.493 183.528 188.773 184.032 188.773 184.716V187.02C188.773 187.824 189.493 188.28 190.369 188.28ZM194.774 191.4V182.808H195.734V183.816H195.782C196.106 183.036 196.742 182.664 197.594 182.664C199.142 182.664 200.114 183.924 200.114 185.904C200.114 187.884 199.142 189.144 197.594 189.144C196.742 189.144 196.154 188.76 195.782 187.992H195.734V191.4H194.774ZM197.33 188.28C198.41 188.28 199.082 187.536 199.082 186.432V185.376C199.082 184.272 198.41 183.528 197.33 183.528C196.454 183.528 195.734 184.032 195.734 184.716V187.02C195.734 187.824 196.454 188.28 197.33 188.28ZM204.075 189.144C202.419 189.144 201.279 187.872 201.279 185.904C201.279 183.936 202.419 182.664 204.075 182.664C205.731 182.664 206.871 183.936 206.871 185.904C206.871 187.872 205.731 189.144 204.075 189.144ZM204.075 188.292C205.107 188.292 205.839 187.656 205.839 186.348V185.46C205.839 184.152 205.107 183.516 204.075 183.516C203.043 183.516 202.311 184.152 202.311 185.46V186.348C202.311 187.656 203.043 188.292 204.075 188.292ZM209.41 189H208.45V182.808H209.41V183.948H209.47C209.686 183.36 210.25 182.808 211.258 182.808H211.63V183.768H211.066C210.034 183.768 209.41 184.212 209.41 184.8V189ZM215.471 189H214.271C213.611 189 213.251 188.58 213.251 187.98V183.648H212.231V182.808H212.807C213.215 182.808 213.347 182.664 213.347 182.244V181.092H214.211V182.808H215.567V183.648H214.211V188.16H215.471V189ZM222.514 189H221.314C220.654 189 220.294 188.58 220.294 187.98V183.648H219.274V182.808H219.85C220.258 182.808 220.39 182.664 220.39 182.244V181.092H221.254V182.808H222.61V183.648H221.254V188.16H222.514V189ZM226.434 189.144C224.754 189.144 223.65 187.872 223.65 185.904C223.65 183.936 224.754 182.664 226.434 182.664C228.09 182.664 229.11 183.936 229.11 185.688V186.144H224.658V186.432C224.658 187.5 225.342 188.304 226.494 188.304C227.274 188.304 227.874 187.92 228.198 187.236L228.882 187.728C228.486 188.568 227.598 189.144 226.434 189.144ZM226.434 183.468C225.39 183.468 224.658 184.26 224.658 185.34V185.424H228.078V185.292C228.078 184.2 227.418 183.468 226.434 183.468ZM229.783 189L232.075 185.88L229.879 182.808H231.007L232.579 185.112H232.615L234.247 182.808H235.315L233.131 185.808L235.363 189H234.235L232.627 186.576H232.591L230.851 189H229.783ZM239.201 189H238.001C237.341 189 236.981 188.58 236.981 187.98V183.648H235.961V182.808H236.537C236.945 182.808 237.077 182.664 237.077 182.244V181.092H237.941V182.808H239.297V183.648H237.941V188.16H239.201V189Z" fill="#6D8C8E"/>
<path d="M26.478 221H25.302V211.228H29.194C30.944 211.228 31.924 212.306 31.924 214.028C31.924 215.75 30.944 216.828 29.194 216.828H26.478V221ZM26.478 212.264V215.792H29.194C30.118 215.792 30.664 215.288 30.664 214.392V213.664C30.664 212.768 30.118 212.264 29.194 212.264H26.478ZM35.8642 221H34.8702C34.1002 221 33.6802 220.51 33.6802 219.838V210.64H34.8002V220.02H35.8642V221ZM43.3747 221H42.7447C41.9187 221 41.5827 220.496 41.4987 219.824H41.4287C41.1207 220.706 40.3507 221.168 39.3427 221.168C37.8167 221.168 36.9207 220.328 36.9207 218.984C36.9207 217.626 37.9007 216.87 40.0007 216.87H41.4287V216.156C41.4287 215.134 40.8687 214.574 39.7207 214.574C38.8527 214.574 38.2787 214.994 37.8867 215.652L37.2147 215.022C37.6067 214.252 38.4747 213.608 39.7767 213.608C41.5127 213.608 42.5487 214.518 42.5487 216.044V220.02H43.3747V221ZM39.5247 220.216C40.6307 220.216 41.4287 219.642 41.4287 218.9V217.71H39.9447C38.6707 217.71 38.0967 218.102 38.0967 218.802V219.096C38.0967 219.81 38.6567 220.216 39.5247 220.216ZM47.6612 221.168C45.6312 221.168 44.4412 219.698 44.4412 217.388C44.4412 215.078 45.6312 213.608 47.6612 213.608C49.0892 213.608 49.9432 214.308 50.3632 215.302L49.4252 215.778C49.1592 215.036 48.5432 214.602 47.6612 214.602C46.3312 214.602 45.6452 215.512 45.6452 216.772V218.004C45.6452 219.264 46.3312 220.174 47.6612 220.174C48.5712 220.174 49.2292 219.74 49.6212 218.914L50.4332 219.46C49.9712 220.496 49.0332 221.168 47.6612 221.168ZM54.6482 221.168C52.6882 221.168 51.4002 219.684 51.4002 217.388C51.4002 215.092 52.6882 213.608 54.6482 213.608C56.5802 213.608 57.7702 215.092 57.7702 217.136V217.668H52.5762V218.004C52.5762 219.25 53.3742 220.188 54.7182 220.188C55.6282 220.188 56.3282 219.74 56.7062 218.942L57.5042 219.516C57.0422 220.496 56.0062 221.168 54.6482 221.168ZM54.6482 214.546C53.4302 214.546 52.5762 215.47 52.5762 216.73V216.828H56.5662V216.674C56.5662 215.4 55.7962 214.546 54.6482 214.546ZM59.6158 221V210.64H60.7358V214.952H60.7918C61.1418 214.14 61.7578 213.608 62.8358 213.608C64.3198 213.608 65.2578 214.616 65.2578 216.366V221H64.1378V216.562C64.1378 215.274 63.5778 214.616 62.4998 214.616C61.6038 214.616 60.7358 215.064 60.7358 215.988V221H59.6158ZM70.3028 221.168C68.3708 221.168 67.0408 219.684 67.0408 217.388C67.0408 215.092 68.3708 213.608 70.3028 213.608C72.2348 213.608 73.5648 215.092 73.5648 217.388C73.5648 219.684 72.2348 221.168 70.3028 221.168ZM70.3028 220.174C71.5068 220.174 72.3608 219.432 72.3608 217.906V216.87C72.3608 215.344 71.5068 214.602 70.3028 214.602C69.0988 214.602 68.2448 215.344 68.2448 216.87V217.906C68.2448 219.432 69.0988 220.174 70.3028 220.174ZM77.5908 221H76.5968C75.8268 221 75.4068 220.51 75.4068 219.838V210.64H76.5268V220.02H77.5908V221ZM83.8413 221V219.824H83.7853C83.3513 220.72 82.6653 221.168 81.6713 221.168C79.8653 221.168 78.7313 219.698 78.7313 217.388C78.7313 215.078 79.8653 213.608 81.6713 213.608C82.6653 213.608 83.4073 214.042 83.7853 214.952H83.8413V210.64H84.9613V221H83.8413ZM81.9793 220.16C83.0013 220.16 83.8413 219.628 83.8413 218.69V216.002C83.8413 215.204 83.0013 214.616 81.9793 214.616C80.7193 214.616 79.9353 215.484 79.9353 216.772V218.004C79.9353 219.292 80.7193 220.16 81.9793 220.16ZM90.0583 221.168C88.0983 221.168 86.8103 219.684 86.8103 217.388C86.8103 215.092 88.0983 213.608 90.0583 213.608C91.9903 213.608 93.1803 215.092 93.1803 217.136V217.668H87.9863V218.004C87.9863 219.25 88.7843 220.188 90.1283 220.188C91.0383 220.188 91.7383 219.74 92.1163 218.942L92.9143 219.516C92.4523 220.496 91.4163 221.168 90.0583 221.168ZM90.0583 214.546C88.8403 214.546 87.9863 215.47 87.9863 216.73V216.828H91.9763V216.674C91.9763 215.4 91.2063 214.546 90.0583 214.546ZM96.1459 221H95.0259V213.776H96.1459V215.106H96.2159C96.4679 214.42 97.1259 213.776 98.3019 213.776H98.7359V214.896H98.0779C96.8739 214.896 96.1459 215.414 96.1459 216.1V221Z" fill="white"/>
<path d="M176.468 221.144C175.124 221.144 174.176 220.592 173.504 219.68L174.248 219.056C174.836 219.836 175.532 220.256 176.504 220.256C177.704 220.256 178.352 219.632 178.352 218.672C178.352 217.88 177.908 217.484 176.804 217.232L176.12 217.076C174.596 216.728 173.756 216.056 173.756 214.772C173.756 213.284 174.884 212.48 176.528 212.48C177.788 212.48 178.676 212.96 179.3 213.848L178.544 214.4C178.088 213.764 177.452 213.368 176.48 213.368C175.412 213.368 174.752 213.836 174.752 214.736C174.752 215.528 175.268 215.888 176.324 216.128L177.008 216.284C178.64 216.656 179.348 217.376 179.348 218.624C179.348 220.16 178.268 221.144 176.468 221.144ZM184.809 221V219.992H184.761C184.521 220.58 184.053 221.144 183.021 221.144C181.749 221.144 180.933 220.28 180.933 218.78V214.808H181.893V218.612C181.893 219.716 182.385 220.28 183.309 220.28C184.065 220.28 184.809 219.908 184.809 219.092V214.808H185.769V221H184.809ZM187.813 223.4V214.808H188.773V215.816H188.821C189.145 215.036 189.781 214.664 190.633 214.664C192.181 214.664 193.153 215.924 193.153 217.904C193.153 219.884 192.181 221.144 190.633 221.144C189.781 221.144 189.193 220.76 188.821 219.992H188.773V223.4H187.813ZM190.369 220.28C191.449 220.28 192.121 219.536 192.121 218.432V217.376C192.121 216.272 191.449 215.528 190.369 215.528C189.493 215.528 188.773 216.032 188.773 216.716V219.02C188.773 219.824 189.493 220.28 190.369 220.28ZM194.774 223.4V214.808H195.734V215.816H195.782C196.106 215.036 196.742 214.664 197.594 214.664C199.142 214.664 200.114 215.924 200.114 217.904C200.114 219.884 199.142 221.144 197.594 221.144C196.742 221.144 196.154 220.76 195.782 219.992H195.734V223.4H194.774ZM197.33 220.28C198.41 220.28 199.082 219.536 199.082 218.432V217.376C199.082 216.272 198.41 215.528 197.33 215.528C196.454 215.528 195.734 216.032 195.734 216.716V219.02C195.734 219.824 196.454 220.28 197.33 220.28ZM204.075 221.144C202.419 221.144 201.279 219.872 201.279 217.904C201.279 215.936 202.419 214.664 204.075 214.664C205.731 214.664 206.871 215.936 206.871 217.904C206.871 219.872 205.731 221.144 204.075 221.144ZM204.075 220.292C205.107 220.292 205.839 219.656 205.839 218.348V217.46C205.839 216.152 205.107 215.516 204.075 215.516C203.043 215.516 202.311 216.152 202.311 217.46V218.348C202.311 219.656 203.043 220.292 204.075 220.292ZM209.41 221H208.45V214.808H209.41V215.948H209.47C209.686 215.36 210.25 214.808 211.258 214.808H211.63V215.768H211.066C210.034 215.768 209.41 216.212 209.41 216.8V221ZM215.471 221H214.271C213.611 221 213.251 220.58 213.251 219.98V215.648H212.231V214.808H212.807C213.215 214.808 213.347 214.664 213.347 214.244V213.092H214.211V214.808H215.567V215.648H214.211V220.16H215.471V221ZM222.514 221H221.314C220.654 221 220.294 220.58 220.294 219.98V215.648H219.274V214.808H219.85C220.258 214.808 220.39 214.664 220.39 214.244V213.092H221.254V214.808H222.61V215.648H221.254V220.16H222.514V221ZM226.434 221.144C224.754 221.144 223.65 219.872 223.65 217.904C223.65 215.936 224.754 214.664 226.434 214.664C228.09 214.664 229.11 215.936 229.11 217.688V218.144H224.658V218.432C224.658 219.5 225.342 220.304 226.494 220.304C227.274 220.304 227.874 219.92 228.198 219.236L228.882 219.728C228.486 220.568 227.598 221.144 226.434 221.144ZM226.434 215.468C225.39 215.468 224.658 216.26 224.658 217.34V217.424H228.078V217.292C228.078 216.2 227.418 215.468 226.434 215.468ZM229.783 221L232.075 217.88L229.879 214.808H231.007L232.579 217.112H232.615L234.247 214.808H235.315L233.131 217.808L235.363 221H234.235L232.627 218.576H232.591L230.851 221H229.783ZM239.201 221H238.001C237.341 221 236.981 220.58 236.981 219.98V215.648H235.961V214.808H236.537C236.945 214.808 237.077 214.664 237.077 214.244V213.092H237.941V214.808H239.297V215.648H237.941V220.16H239.201V221Z" fill="#6D8C8E"/>
<mask id="path-28-inside-3_12037_9280" fill="white">
<path d="M12 236H252V372H12V236Z"/>
</mask>
<path d="M252 371H12V373H252V371Z" fill="#31403C" mask="url(#path-28-inside-3_12037_9280)"/>
<path d="M26.478 261H25.302V251.228H29.194C30.944 251.228 31.924 252.306 31.924 254.028C31.924 255.75 30.944 256.828 29.194 256.828H26.478V261ZM26.478 252.264V255.792H29.194C30.118 255.792 30.664 255.288 30.664 254.392V253.664C30.664 252.768 30.118 252.264 29.194 252.264H26.478ZM35.8642 261H34.8702C34.1002 261 33.6802 260.51 33.6802 259.838V250.64H34.8002V260.02H35.8642V261ZM43.3747 261H42.7447C41.9187 261 41.5827 260.496 41.4987 259.824H41.4287C41.1207 260.706 40.3507 261.168 39.3427 261.168C37.8167 261.168 36.9207 260.328 36.9207 258.984C36.9207 257.626 37.9007 256.87 40.0007 256.87H41.4287V256.156C41.4287 255.134 40.8687 254.574 39.7207 254.574C38.8527 254.574 38.2787 254.994 37.8867 255.652L37.2147 255.022C37.6067 254.252 38.4747 253.608 39.7767 253.608C41.5127 253.608 42.5487 254.518 42.5487 256.044V260.02H43.3747V261ZM39.5247 260.216C40.6307 260.216 41.4287 259.642 41.4287 258.9V257.71H39.9447C38.6707 257.71 38.0967 258.102 38.0967 258.802V259.096C38.0967 259.81 38.6567 260.216 39.5247 260.216ZM47.6612 261.168C45.6312 261.168 44.4412 259.698 44.4412 257.388C44.4412 255.078 45.6312 253.608 47.6612 253.608C49.0892 253.608 49.9432 254.308 50.3632 255.302L49.4252 255.778C49.1592 255.036 48.5432 254.602 47.6612 254.602C46.3312 254.602 45.6452 255.512 45.6452 256.772V258.004C45.6452 259.264 46.3312 260.174 47.6612 260.174C48.5712 260.174 49.2292 259.74 49.6212 258.914L50.4332 259.46C49.9712 260.496 49.0332 261.168 47.6612 261.168ZM54.6482 261.168C52.6882 261.168 51.4002 259.684 51.4002 257.388C51.4002 255.092 52.6882 253.608 54.6482 253.608C56.5802 253.608 57.7702 255.092 57.7702 257.136V257.668H52.5762V258.004C52.5762 259.25 53.3742 260.188 54.7182 260.188C55.6282 260.188 56.3282 259.74 56.7062 258.942L57.5042 259.516C57.0422 260.496 56.0062 261.168 54.6482 261.168ZM54.6482 254.546C53.4302 254.546 52.5762 255.47 52.5762 256.73V256.828H56.5662V256.674C56.5662 255.4 55.7962 254.546 54.6482 254.546ZM59.6158 261V250.64H60.7358V254.952H60.7918C61.1418 254.14 61.7578 253.608 62.8358 253.608C64.3198 253.608 65.2578 254.616 65.2578 256.366V261H64.1378V256.562C64.1378 255.274 63.5778 254.616 62.4998 254.616C61.6038 254.616 60.7358 255.064 60.7358 255.988V261H59.6158ZM70.3028 261.168C68.3708 261.168 67.0408 259.684 67.0408 257.388C67.0408 255.092 68.3708 253.608 70.3028 253.608C72.2348 253.608 73.5648 255.092 73.5648 257.388C73.5648 259.684 72.2348 261.168 70.3028 261.168ZM70.3028 260.174C71.5068 260.174 72.3608 259.432 72.3608 257.906V256.87C72.3608 255.344 71.5068 254.602 70.3028 254.602C69.0988 254.602 68.2448 255.344 68.2448 256.87V257.906C68.2448 259.432 69.0988 260.174 70.3028 260.174ZM77.5908 261H76.5968C75.8268 261 75.4068 260.51 75.4068 259.838V250.64H76.5268V260.02H77.5908V261ZM83.8413 261V259.824H83.7853C83.3513 260.72 82.6653 261.168 81.6713 261.168C79.8653 261.168 78.7313 259.698 78.7313 257.388C78.7313 255.078 79.8653 253.608 81.6713 253.608C82.6653 253.608 83.4073 254.042 83.7853 254.952H83.8413V250.64H84.9613V261H83.8413ZM81.9793 260.16C83.0013 260.16 83.8413 259.628 83.8413 258.69V256.002C83.8413 255.204 83.0013 254.616 81.9793 254.616C80.7193 254.616 79.9353 255.484 79.9353 256.772V258.004C79.9353 259.292 80.7193 260.16 81.9793 260.16ZM90.0583 261.168C88.0983 261.168 86.8103 259.684 86.8103 257.388C86.8103 255.092 88.0983 253.608 90.0583 253.608C91.9903 253.608 93.1803 255.092 93.1803 257.136V257.668H87.9863V258.004C87.9863 259.25 88.7843 260.188 90.1283 260.188C91.0383 260.188 91.7383 259.74 92.1163 258.942L92.9143 259.516C92.4523 260.496 91.4163 261.168 90.0583 261.168ZM90.0583 254.546C88.8403 254.546 87.9863 255.47 87.9863 256.73V256.828H91.9763V256.674C91.9763 255.4 91.2063 254.546 90.0583 254.546ZM96.1459 261H95.0259V253.776H96.1459V255.106H96.2159C96.4679 254.42 97.1259 253.776 98.3019 253.776H98.7359V254.896H98.0779C96.8739 254.896 96.1459 255.414 96.1459 256.1V261Z" fill="white"/>
<path d="M176.468 261.144C175.124 261.144 174.176 260.592 173.504 259.68L174.248 259.056C174.836 259.836 175.532 260.256 176.504 260.256C177.704 260.256 178.352 259.632 178.352 258.672C178.352 257.88 177.908 257.484 176.804 257.232L176.12 257.076C174.596 256.728 173.756 256.056 173.756 254.772C173.756 253.284 174.884 252.48 176.528 252.48C177.788 252.48 178.676 252.96 179.3 253.848L178.544 254.4C178.088 253.764 177.452 253.368 176.48 253.368C175.412 253.368 174.752 253.836 174.752 254.736C174.752 255.528 175.268 255.888 176.324 256.128L177.008 256.284C178.64 256.656 179.348 257.376 179.348 258.624C179.348 260.16 178.268 261.144 176.468 261.144ZM184.809 261V259.992H184.761C184.521 260.58 184.053 261.144 183.021 261.144C181.749 261.144 180.933 260.28 180.933 258.78V254.808H181.893V258.612C181.893 259.716 182.385 260.28 183.309 260.28C184.065 260.28 184.809 259.908 184.809 259.092V254.808H185.769V261H184.809ZM187.813 263.4V254.808H188.773V255.816H188.821C189.145 255.036 189.781 254.664 190.633 254.664C192.181 254.664 193.153 255.924 193.153 257.904C193.153 259.884 192.181 261.144 190.633 261.144C189.781 261.144 189.193 260.76 188.821 259.992H188.773V263.4H187.813ZM190.369 260.28C191.449 260.28 192.121 259.536 192.121 258.432V257.376C192.121 256.272 191.449 255.528 190.369 255.528C189.493 255.528 188.773 256.032 188.773 256.716V259.02C188.773 259.824 189.493 260.28 190.369 260.28ZM194.774 263.4V254.808H195.734V255.816H195.782C196.106 255.036 196.742 254.664 197.594 254.664C199.142 254.664 200.114 255.924 200.114 257.904C200.114 259.884 199.142 261.144 197.594 261.144C196.742 261.144 196.154 260.76 195.782 259.992H195.734V263.4H194.774ZM197.33 260.28C198.41 260.28 199.082 259.536 199.082 258.432V257.376C199.082 256.272 198.41 255.528 197.33 255.528C196.454 255.528 195.734 256.032 195.734 256.716V259.02C195.734 259.824 196.454 260.28 197.33 260.28ZM204.075 261.144C202.419 261.144 201.279 259.872 201.279 257.904C201.279 255.936 202.419 254.664 204.075 254.664C205.731 254.664 206.871 255.936 206.871 257.904C206.871 259.872 205.731 261.144 204.075 261.144ZM204.075 260.292C205.107 260.292 205.839 259.656 205.839 258.348V257.46C205.839 256.152 205.107 255.516 204.075 255.516C203.043 255.516 202.311 256.152 202.311 257.46V258.348C202.311 259.656 203.043 260.292 204.075 260.292ZM209.41 261H208.45V254.808H209.41V255.948H209.47C209.686 255.36 210.25 254.808 211.258 254.808H211.63V255.768H211.066C210.034 255.768 209.41 256.212 209.41 256.8V261ZM215.471 261H214.271C213.611 261 213.251 260.58 213.251 259.98V255.648H212.231V254.808H212.807C213.215 254.808 213.347 254.664 213.347 254.244V253.092H214.211V254.808H215.567V255.648H214.211V260.16H215.471V261ZM222.514 261H221.314C220.654 261 220.294 260.58 220.294 259.98V255.648H219.274V254.808H219.85C220.258 254.808 220.39 254.664 220.39 254.244V253.092H221.254V254.808H222.61V255.648H221.254V260.16H222.514V261ZM226.434 261.144C224.754 261.144 223.65 259.872 223.65 257.904C223.65 255.936 224.754 254.664 226.434 254.664C228.09 254.664 229.11 255.936 229.11 257.688V258.144H224.658V258.432C224.658 259.5 225.342 260.304 226.494 260.304C227.274 260.304 227.874 259.92 228.198 259.236L228.882 259.728C228.486 260.568 227.598 261.144 226.434 261.144ZM226.434 255.468C225.39 255.468 224.658 256.26 224.658 257.34V257.424H228.078V257.292C228.078 256.2 227.418 255.468 226.434 255.468ZM229.783 261L232.075 257.88L229.879 254.808H231.007L232.579 257.112H232.615L234.247 254.808H235.315L233.131 257.808L235.363 261H234.235L232.627 258.576H232.591L230.851 261H229.783ZM239.201 261H238.001C237.341 261 236.981 260.58 236.981 259.98V255.648H235.961V254.808H236.537C236.945 254.808 237.077 254.664 237.077 254.244V253.092H237.941V254.808H239.297V255.648H237.941V260.16H239.201V261Z" fill="#6D8C8E"/>
<path d="M26.478 293H25.302V283.228H29.194C30.944 283.228 31.924 284.306 31.924 286.028C31.924 287.75 30.944 288.828 29.194 288.828H26.478V293ZM26.478 284.264V287.792H29.194C30.118 287.792 30.664 287.288 30.664 286.392V285.664C30.664 284.768 30.118 284.264 29.194 284.264H26.478ZM35.8642 293H34.8702C34.1002 293 33.6802 292.51 33.6802 291.838V282.64H34.8002V292.02H35.8642V293ZM43.3747 293H42.7447C41.9187 293 41.5827 292.496 41.4987 291.824H41.4287C41.1207 292.706 40.3507 293.168 39.3427 293.168C37.8167 293.168 36.9207 292.328 36.9207 290.984C36.9207 289.626 37.9007 288.87 40.0007 288.87H41.4287V288.156C41.4287 287.134 40.8687 286.574 39.7207 286.574C38.8527 286.574 38.2787 286.994 37.8867 287.652L37.2147 287.022C37.6067 286.252 38.4747 285.608 39.7767 285.608C41.5127 285.608 42.5487 286.518 42.5487 288.044V292.02H43.3747V293ZM39.5247 292.216C40.6307 292.216 41.4287 291.642 41.4287 290.9V289.71H39.9447C38.6707 289.71 38.0967 290.102 38.0967 290.802V291.096C38.0967 291.81 38.6567 292.216 39.5247 292.216ZM47.6612 293.168C45.6312 293.168 44.4412 291.698 44.4412 289.388C44.4412 287.078 45.6312 285.608 47.6612 285.608C49.0892 285.608 49.9432 286.308 50.3632 287.302L49.4252 287.778C49.1592 287.036 48.5432 286.602 47.6612 286.602C46.3312 286.602 45.6452 287.512 45.6452 288.772V290.004C45.6452 291.264 46.3312 292.174 47.6612 292.174C48.5712 292.174 49.2292 291.74 49.6212 290.914L50.4332 291.46C49.9712 292.496 49.0332 293.168 47.6612 293.168ZM54.6482 293.168C52.6882 293.168 51.4002 291.684 51.4002 289.388C51.4002 287.092 52.6882 285.608 54.6482 285.608C56.5802 285.608 57.7702 287.092 57.7702 289.136V289.668H52.5762V290.004C52.5762 291.25 53.3742 292.188 54.7182 292.188C55.6282 292.188 56.3282 291.74 56.7062 290.942L57.5042 291.516C57.0422 292.496 56.0062 293.168 54.6482 293.168ZM54.6482 286.546C53.4302 286.546 52.5762 287.47 52.5762 288.73V288.828H56.5662V288.674C56.5662 287.4 55.7962 286.546 54.6482 286.546ZM59.6158 293V282.64H60.7358V286.952H60.7918C61.1418 286.14 61.7578 285.608 62.8358 285.608C64.3198 285.608 65.2578 286.616 65.2578 288.366V293H64.1378V288.562C64.1378 287.274 63.5778 286.616 62.4998 286.616C61.6038 286.616 60.7358 287.064 60.7358 287.988V293H59.6158ZM70.3028 293.168C68.3708 293.168 67.0408 291.684 67.0408 289.388C67.0408 287.092 68.3708 285.608 70.3028 285.608C72.2348 285.608 73.5648 287.092 73.5648 289.388C73.5648 291.684 72.2348 293.168 70.3028 293.168ZM70.3028 292.174C71.5068 292.174 72.3608 291.432 72.3608 289.906V288.87C72.3608 287.344 71.5068 286.602 70.3028 286.602C69.0988 286.602 68.2448 287.344 68.2448 288.87V289.906C68.2448 291.432 69.0988 292.174 70.3028 292.174ZM77.5908 293H76.5968C75.8268 293 75.4068 292.51 75.4068 291.838V282.64H76.5268V292.02H77.5908V293ZM83.8413 293V291.824H83.7853C83.3513 292.72 82.6653 293.168 81.6713 293.168C79.8653 293.168 78.7313 291.698 78.7313 289.388C78.7313 287.078 79.8653 285.608 81.6713 285.608C82.6653 285.608 83.4073 286.042 83.7853 286.952H83.8413V282.64H84.9613V293H83.8413ZM81.9793 292.16C83.0013 292.16 83.8413 291.628 83.8413 290.69V288.002C83.8413 287.204 83.0013 286.616 81.9793 286.616C80.7193 286.616 79.9353 287.484 79.9353 288.772V290.004C79.9353 291.292 80.7193 292.16 81.9793 292.16ZM90.0583 293.168C88.0983 293.168 86.8103 291.684 86.8103 289.388C86.8103 287.092 88.0983 285.608 90.0583 285.608C91.9903 285.608 93.1803 287.092 93.1803 289.136V289.668H87.9863V290.004C87.9863 291.25 88.7843 292.188 90.1283 292.188C91.0383 292.188 91.7383 291.74 92.1163 290.942L92.9143 291.516C92.4523 292.496 91.4163 293.168 90.0583 293.168ZM90.0583 286.546C88.8403 286.546 87.9863 287.47 87.9863 288.73V288.828H91.9763V288.674C91.9763 287.4 91.2063 286.546 90.0583 286.546ZM96.1459 293H95.0259V285.776H96.1459V287.106H96.2159C96.4679 286.42 97.1259 285.776 98.3019 285.776H98.7359V286.896H98.0779C96.8739 286.896 96.1459 287.414 96.1459 288.1V293Z" fill="white"/>
<path d="M176.468 293.144C175.124 293.144 174.176 292.592 173.504 291.68L174.248 291.056C174.836 291.836 175.532 292.256 176.504 292.256C177.704 292.256 178.352 291.632 178.352 290.672C178.352 289.88 177.908 289.484 176.804 289.232L176.12 289.076C174.596 288.728 173.756 288.056 173.756 286.772C173.756 285.284 174.884 284.48 176.528 284.48C177.788 284.48 178.676 284.96 179.3 285.848L178.544 286.4C178.088 285.764 177.452 285.368 176.48 285.368C175.412 285.368 174.752 285.836 174.752 286.736C174.752 287.528 175.268 287.888 176.324 288.128L177.008 288.284C178.64 288.656 179.348 289.376 179.348 290.624C179.348 292.16 178.268 293.144 176.468 293.144ZM184.809 293V291.992H184.761C184.521 292.58 184.053 293.144 183.021 293.144C181.749 293.144 180.933 292.28 180.933 290.78V286.808H181.893V290.612C181.893 291.716 182.385 292.28 183.309 292.28C184.065 292.28 184.809 291.908 184.809 291.092V286.808H185.769V293H184.809ZM187.813 295.4V286.808H188.773V287.816H188.821C189.145 287.036 189.781 286.664 190.633 286.664C192.181 286.664 193.153 287.924 193.153 289.904C193.153 291.884 192.181 293.144 190.633 293.144C189.781 293.144 189.193 292.76 188.821 291.992H188.773V295.4H187.813ZM190.369 292.28C191.449 292.28 192.121 291.536 192.121 290.432V289.376C192.121 288.272 191.449 287.528 190.369 287.528C189.493 287.528 188.773 288.032 188.773 288.716V291.02C188.773 291.824 189.493 292.28 190.369 292.28ZM194.774 295.4V286.808H195.734V287.816H195.782C196.106 287.036 196.742 286.664 197.594 286.664C199.142 286.664 200.114 287.924 200.114 289.904C200.114 291.884 199.142 293.144 197.594 293.144C196.742 293.144 196.154 292.76 195.782 291.992H195.734V295.4H194.774ZM197.33 292.28C198.41 292.28 199.082 291.536 199.082 290.432V289.376C199.082 288.272 198.41 287.528 197.33 287.528C196.454 287.528 195.734 288.032 195.734 288.716V291.02C195.734 291.824 196.454 292.28 197.33 292.28ZM204.075 293.144C202.419 293.144 201.279 291.872 201.279 289.904C201.279 287.936 202.419 286.664 204.075 286.664C205.731 286.664 206.871 287.936 206.871 289.904C206.871 291.872 205.731 293.144 204.075 293.144ZM204.075 292.292C205.107 292.292 205.839 291.656 205.839 290.348V289.46C205.839 288.152 205.107 287.516 204.075 287.516C203.043 287.516 202.311 288.152 202.311 289.46V290.348C202.311 291.656 203.043 292.292 204.075 292.292ZM209.41 293H208.45V286.808H209.41V287.948H209.47C209.686 287.36 210.25 286.808 211.258 286.808H211.63V287.768H211.066C210.034 287.768 209.41 288.212 209.41 288.8V293ZM215.471 293H214.271C213.611 293 213.251 292.58 213.251 291.98V287.648H212.231V286.808H212.807C213.215 286.808 213.347 286.664 213.347 286.244V285.092H214.211V286.808H215.567V287.648H214.211V292.16H215.471V293ZM222.514 293H221.314C220.654 293 220.294 292.58 220.294 291.98V287.648H219.274V286.808H219.85C220.258 286.808 220.39 286.664 220.39 286.244V285.092H221.254V286.808H222.61V287.648H221.254V292.16H222.514V293ZM226.434 293.144C224.754 293.144 223.65 291.872 223.65 289.904C223.65 287.936 224.754 286.664 226.434 286.664C228.09 286.664 229.11 287.936 229.11 289.688V290.144H224.658V290.432C224.658 291.5 225.342 292.304 226.494 292.304C227.274 292.304 227.874 291.92 228.198 291.236L228.882 291.728C228.486 292.568 227.598 293.144 226.434 293.144ZM226.434 287.468C225.39 287.468 224.658 288.26 224.658 289.34V289.424H228.078V289.292C228.078 288.2 227.418 287.468 226.434 287.468ZM229.783 293L232.075 289.88L229.879 286.808H231.007L232.579 289.112H232.615L234.247 286.808H235.315L233.131 289.808L235.363 293H234.235L232.627 290.576H232.591L230.851 293H229.783ZM239.201 293H238.001C237.341 293 236.981 292.58 236.981 291.98V287.648H235.961V286.808H236.537C236.945 286.808 237.077 286.664 237.077 286.244V285.092H237.941V286.808H239.297V287.648H237.941V292.16H239.201V293Z" fill="#6D8C8E"/>
<path d="M26.478 325H25.302V315.228H29.194C30.944 315.228 31.924 316.306 31.924 318.028C31.924 319.75 30.944 320.828 29.194 320.828H26.478V325ZM26.478 316.264V319.792H29.194C30.118 319.792 30.664 319.288 30.664 318.392V317.664C30.664 316.768 30.118 316.264 29.194 316.264H26.478ZM35.8642 325H34.8702C34.1002 325 33.6802 324.51 33.6802 323.838V314.64H34.8002V324.02H35.8642V325ZM43.3747 325H42.7447C41.9187 325 41.5827 324.496 41.4987 323.824H41.4287C41.1207 324.706 40.3507 325.168 39.3427 325.168C37.8167 325.168 36.9207 324.328 36.9207 322.984C36.9207 321.626 37.9007 320.87 40.0007 320.87H41.4287V320.156C41.4287 319.134 40.8687 318.574 39.7207 318.574C38.8527 318.574 38.2787 318.994 37.8867 319.652L37.2147 319.022C37.6067 318.252 38.4747 317.608 39.7767 317.608C41.5127 317.608 42.5487 318.518 42.5487 320.044V324.02H43.3747V325ZM39.5247 324.216C40.6307 324.216 41.4287 323.642 41.4287 322.9V321.71H39.9447C38.6707 321.71 38.0967 322.102 38.0967 322.802V323.096C38.0967 323.81 38.6567 324.216 39.5247 324.216ZM47.6612 325.168C45.6312 325.168 44.4412 323.698 44.4412 321.388C44.4412 319.078 45.6312 317.608 47.6612 317.608C49.0892 317.608 49.9432 318.308 50.3632 319.302L49.4252 319.778C49.1592 319.036 48.5432 318.602 47.6612 318.602C46.3312 318.602 45.6452 319.512 45.6452 320.772V322.004C45.6452 323.264 46.3312 324.174 47.6612 324.174C48.5712 324.174 49.2292 323.74 49.6212 322.914L50.4332 323.46C49.9712 324.496 49.0332 325.168 47.6612 325.168ZM54.6482 325.168C52.6882 325.168 51.4002 323.684 51.4002 321.388C51.4002 319.092 52.6882 317.608 54.6482 317.608C56.5802 317.608 57.7702 319.092 57.7702 321.136V321.668H52.5762V322.004C52.5762 323.25 53.3742 324.188 54.7182 324.188C55.6282 324.188 56.3282 323.74 56.7062 322.942L57.5042 323.516C57.0422 324.496 56.0062 325.168 54.6482 325.168ZM54.6482 318.546C53.4302 318.546 52.5762 319.47 52.5762 320.73V320.828H56.5662V320.674C56.5662 319.4 55.7962 318.546 54.6482 318.546ZM59.6158 325V314.64H60.7358V318.952H60.7918C61.1418 318.14 61.7578 317.608 62.8358 317.608C64.3198 317.608 65.2578 318.616 65.2578 320.366V325H64.1378V320.562C64.1378 319.274 63.5778 318.616 62.4998 318.616C61.6038 318.616 60.7358 319.064 60.7358 319.988V325H59.6158ZM70.3028 325.168C68.3708 325.168 67.0408 323.684 67.0408 321.388C67.0408 319.092 68.3708 317.608 70.3028 317.608C72.2348 317.608 73.5648 319.092 73.5648 321.388C73.5648 323.684 72.2348 325.168 70.3028 325.168ZM70.3028 324.174C71.5068 324.174 72.3608 323.432 72.3608 321.906V320.87C72.3608 319.344 71.5068 318.602 70.3028 318.602C69.0988 318.602 68.2448 319.344 68.2448 320.87V321.906C68.2448 323.432 69.0988 324.174 70.3028 324.174ZM77.5908 325H76.5968C75.8268 325 75.4068 324.51 75.4068 323.838V314.64H76.5268V324.02H77.5908V325ZM83.8413 325V323.824H83.7853C83.3513 324.72 82.6653 325.168 81.6713 325.168C79.8653 325.168 78.7313 323.698 78.7313 321.388C78.7313 319.078 79.8653 317.608 81.6713 317.608C82.6653 317.608 83.4073 318.042 83.7853 318.952H83.8413V314.64H84.9613V325H83.8413ZM81.9793 324.16C83.0013 324.16 83.8413 323.628 83.8413 322.69V320.002C83.8413 319.204 83.0013 318.616 81.9793 318.616C80.7193 318.616 79.9353 319.484 79.9353 320.772V322.004C79.9353 323.292 80.7193 324.16 81.9793 324.16ZM90.0583 325.168C88.0983 325.168 86.8103 323.684 86.8103 321.388C86.8103 319.092 88.0983 317.608 90.0583 317.608C91.9903 317.608 93.1803 319.092 93.1803 321.136V321.668H87.9863V322.004C87.9863 323.25 88.7843 324.188 90.1283 324.188C91.0383 324.188 91.7383 323.74 92.1163 322.942L92.9143 323.516C92.4523 324.496 91.4163 325.168 90.0583 325.168ZM90.0583 318.546C88.8403 318.546 87.9863 319.47 87.9863 320.73V320.828H91.9763V320.674C91.9763 319.4 91.2063 318.546 90.0583 318.546ZM96.1459 325H95.0259V317.776H96.1459V319.106H96.2159C96.4679 318.42 97.1259 317.776 98.3019 317.776H98.7359V318.896H98.0779C96.8739 318.896 96.1459 319.414 96.1459 320.1V325Z" fill="white"/>
<path d="M176.468 325.144C175.124 325.144 174.176 324.592 173.504 323.68L174.248 323.056C174.836 323.836 175.532 324.256 176.504 324.256C177.704 324.256 178.352 323.632 178.352 322.672C178.352 321.88 177.908 321.484 176.804 321.232L176.12 321.076C174.596 320.728 173.756 320.056 173.756 318.772C173.756 317.284 174.884 316.48 176.528 316.48C177.788 316.48 178.676 316.96 179.3 317.848L178.544 318.4C178.088 317.764 177.452 317.368 176.48 317.368C175.412 317.368 174.752 317.836 174.752 318.736C174.752 319.528 175.268 319.888 176.324 320.128L177.008 320.284C178.64 320.656 179.348 321.376 179.348 322.624C179.348 324.16 178.268 325.144 176.468 325.144ZM184.809 325V323.992H184.761C184.521 324.58 184.053 325.144 183.021 325.144C181.749 325.144 180.933 324.28 180.933 322.78V318.808H181.893V322.612C181.893 323.716 182.385 324.28 183.309 324.28C184.065 324.28 184.809 323.908 184.809 323.092V318.808H185.769V325H184.809ZM187.813 327.4V318.808H188.773V319.816H188.821C189.145 319.036 189.781 318.664 190.633 318.664C192.181 318.664 193.153 319.924 193.153 321.904C193.153 323.884 192.181 325.144 190.633 325.144C189.781 325.144 189.193 324.76 188.821 323.992H188.773V327.4H187.813ZM190.369 324.28C191.449 324.28 192.121 323.536 192.121 322.432V321.376C192.121 320.272 191.449 319.528 190.369 319.528C189.493 319.528 188.773 320.032 188.773 320.716V323.02C188.773 323.824 189.493 324.28 190.369 324.28ZM194.774 327.4V318.808H195.734V319.816H195.782C196.106 319.036 196.742 318.664 197.594 318.664C199.142 318.664 200.114 319.924 200.114 321.904C200.114 323.884 199.142 325.144 197.594 325.144C196.742 325.144 196.154 324.76 195.782 323.992H195.734V327.4H194.774ZM197.33 324.28C198.41 324.28 199.082 323.536 199.082 322.432V321.376C199.082 320.272 198.41 319.528 197.33 319.528C196.454 319.528 195.734 320.032 195.734 320.716V323.02C195.734 323.824 196.454 324.28 197.33 324.28ZM204.075 325.144C202.419 325.144 201.279 323.872 201.279 321.904C201.279 319.936 202.419 318.664 204.075 318.664C205.731 318.664 206.871 319.936 206.871 321.904C206.871 323.872 205.731 325.144 204.075 325.144ZM204.075 324.292C205.107 324.292 205.839 323.656 205.839 322.348V321.46C205.839 320.152 205.107 319.516 204.075 319.516C203.043 319.516 202.311 320.152 202.311 321.46V322.348C202.311 323.656 203.043 324.292 204.075 324.292ZM209.41 325H208.45V318.808H209.41V319.948H209.47C209.686 319.36 210.25 318.808 211.258 318.808H211.63V319.768H211.066C210.034 319.768 209.41 320.212 209.41 320.8V325ZM215.471 325H214.271C213.611 325 213.251 324.58 213.251 323.98V319.648H212.231V318.808H212.807C213.215 318.808 213.347 318.664 213.347 318.244V317.092H214.211V318.808H215.567V319.648H214.211V324.16H215.471V325ZM222.514 325H221.314C220.654 325 220.294 324.58 220.294 323.98V319.648H219.274V318.808H219.85C220.258 318.808 220.39 318.664 220.39 318.244V317.092H221.254V318.808H222.61V319.648H221.254V324.16H222.514V325ZM226.434 325.144C224.754 325.144 223.65 323.872 223.65 321.904C223.65 319.936 224.754 318.664 226.434 318.664C228.09 318.664 229.11 319.936 229.11 321.688V322.144H224.658V322.432C224.658 323.5 225.342 324.304 226.494 324.304C227.274 324.304 227.874 323.92 228.198 323.236L228.882 323.728C228.486 324.568 227.598 325.144 226.434 325.144ZM226.434 319.468C225.39 319.468 224.658 320.26 224.658 321.34V321.424H228.078V321.292C228.078 320.2 227.418 319.468 226.434 319.468ZM229.783 325L232.075 321.88L229.879 318.808H231.007L232.579 321.112H232.615L234.247 318.808H235.315L233.131 321.808L235.363 325H234.235L232.627 322.576H232.591L230.851 325H229.783ZM239.201 325H238.001C237.341 325 236.981 324.58 236.981 323.98V319.648H235.961V318.808H236.537C236.945 318.808 237.077 318.664 237.077 318.244V317.092H237.941V318.808H239.297V319.648H237.941V324.16H239.201V325Z" fill="#6D8C8E"/>
<path d="M26.478 357H25.302V347.228H29.194C30.944 347.228 31.924 348.306 31.924 350.028C31.924 351.75 30.944 352.828 29.194 352.828H26.478V357ZM26.478 348.264V351.792H29.194C30.118 351.792 30.664 351.288 30.664 350.392V349.664C30.664 348.768 30.118 348.264 29.194 348.264H26.478ZM35.8642 357H34.8702C34.1002 357 33.6802 356.51 33.6802 355.838V346.64H34.8002V356.02H35.8642V357ZM43.3747 357H42.7447C41.9187 357 41.5827 356.496 41.4987 355.824H41.4287C41.1207 356.706 40.3507 357.168 39.3427 357.168C37.8167 357.168 36.9207 356.328 36.9207 354.984C36.9207 353.626 37.9007 352.87 40.0007 352.87H41.4287V352.156C41.4287 351.134 40.8687 350.574 39.7207 350.574C38.8527 350.574 38.2787 350.994 37.8867 351.652L37.2147 351.022C37.6067 350.252 38.4747 349.608 39.7767 349.608C41.5127 349.608 42.5487 350.518 42.5487 352.044V356.02H43.3747V357ZM39.5247 356.216C40.6307 356.216 41.4287 355.642 41.4287 354.9V353.71H39.9447C38.6707 353.71 38.0967 354.102 38.0967 354.802V355.096C38.0967 355.81 38.6567 356.216 39.5247 356.216ZM47.6612 357.168C45.6312 357.168 44.4412 355.698 44.4412 353.388C44.4412 351.078 45.6312 349.608 47.6612 349.608C49.0892 349.608 49.9432 350.308 50.3632 351.302L49.4252 351.778C49.1592 351.036 48.5432 350.602 47.6612 350.602C46.3312 350.602 45.6452 351.512 45.6452 352.772V354.004C45.6452 355.264 46.3312 356.174 47.6612 356.174C48.5712 356.174 49.2292 355.74 49.6212 354.914L50.4332 355.46C49.9712 356.496 49.0332 357.168 47.6612 357.168ZM54.6482 357.168C52.6882 357.168 51.4002 355.684 51.4002 353.388C51.4002 351.092 52.6882 349.608 54.6482 349.608C56.5802 349.608 57.7702 351.092 57.7702 353.136V353.668H52.5762V354.004C52.5762 355.25 53.3742 356.188 54.7182 356.188C55.6282 356.188 56.3282 355.74 56.7062 354.942L57.5042 355.516C57.0422 356.496 56.0062 357.168 54.6482 357.168ZM54.6482 350.546C53.4302 350.546 52.5762 351.47 52.5762 352.73V352.828H56.5662V352.674C56.5662 351.4 55.7962 350.546 54.6482 350.546ZM59.6158 357V346.64H60.7358V350.952H60.7918C61.1418 350.14 61.7578 349.608 62.8358 349.608C64.3198 349.608 65.2578 350.616 65.2578 352.366V357H64.1378V352.562C64.1378 351.274 63.5778 350.616 62.4998 350.616C61.6038 350.616 60.7358 351.064 60.7358 351.988V357H59.6158ZM70.3028 357.168C68.3708 357.168 67.0408 355.684 67.0408 353.388C67.0408 351.092 68.3708 349.608 70.3028 349.608C72.2348 349.608 73.5648 351.092 73.5648 353.388C73.5648 355.684 72.2348 357.168 70.3028 357.168ZM70.3028 356.174C71.5068 356.174 72.3608 355.432 72.3608 353.906V352.87C72.3608 351.344 71.5068 350.602 70.3028 350.602C69.0988 350.602 68.2448 351.344 68.2448 352.87V353.906C68.2448 355.432 69.0988 356.174 70.3028 356.174ZM77.5908 357H76.5968C75.8268 357 75.4068 356.51 75.4068 355.838V346.64H76.5268V356.02H77.5908V357ZM83.8413 357V355.824H83.7853C83.3513 356.72 82.6653 357.168 81.6713 357.168C79.8653 357.168 78.7313 355.698 78.7313 353.388C78.7313 351.078 79.8653 349.608 81.6713 349.608C82.6653 349.608 83.4073 350.042 83.7853 350.952H83.8413V346.64H84.9613V357H83.8413ZM81.9793 356.16C83.0013 356.16 83.8413 355.628 83.8413 354.69V352.002C83.8413 351.204 83.0013 350.616 81.9793 350.616C80.7193 350.616 79.9353 351.484 79.9353 352.772V354.004C79.9353 355.292 80.7193 356.16 81.9793 356.16ZM90.0583 357.168C88.0983 357.168 86.8103 355.684 86.8103 353.388C86.8103 351.092 88.0983 349.608 90.0583 349.608C91.9903 349.608 93.1803 351.092 93.1803 353.136V353.668H87.9863V354.004C87.9863 355.25 88.7843 356.188 90.1283 356.188C91.0383 356.188 91.7383 355.74 92.1163 354.942L92.9143 355.516C92.4523 356.496 91.4163 357.168 90.0583 357.168ZM90.0583 350.546C88.8403 350.546 87.9863 351.47 87.9863 352.73V352.828H91.9763V352.674C91.9763 351.4 91.2063 350.546 90.0583 350.546ZM96.1459 357H95.0259V349.776H96.1459V351.106H96.2159C96.4679 350.42 97.1259 349.776 98.3019 349.776H98.7359V350.896H98.0779C96.8739 350.896 96.1459 351.414 96.1459 352.1V357Z" fill="white"/>
<path d="M176.468 357.144C175.124 357.144 174.176 356.592 173.504 355.68L174.248 355.056C174.836 355.836 175.532 356.256 176.504 356.256C177.704 356.256 178.352 355.632 178.352 354.672C178.352 353.88 177.908 353.484 176.804 353.232L176.12 353.076C174.596 352.728 173.756 352.056 173.756 350.772C173.756 349.284 174.884 348.48 176.528 348.48C177.788 348.48 178.676 348.96 179.3 349.848L178.544 350.4C178.088 349.764 177.452 349.368 176.48 349.368C175.412 349.368 174.752 349.836 174.752 350.736C174.752 351.528 175.268 351.888 176.324 352.128L177.008 352.284C178.64 352.656 179.348 353.376 179.348 354.624C179.348 356.16 178.268 357.144 176.468 357.144ZM184.809 357V355.992H184.761C184.521 356.58 184.053 357.144 183.021 357.144C181.749 357.144 180.933 356.28 180.933 354.78V350.808H181.893V354.612C181.893 355.716 182.385 356.28 183.309 356.28C184.065 356.28 184.809 355.908 184.809 355.092V350.808H185.769V357H184.809ZM187.813 359.4V350.808H188.773V351.816H188.821C189.145 351.036 189.781 350.664 190.633 350.664C192.181 350.664 193.153 351.924 193.153 353.904C193.153 355.884 192.181 357.144 190.633 357.144C189.781 357.144 189.193 356.76 188.821 355.992H188.773V359.4H187.813ZM190.369 356.28C191.449 356.28 192.121 355.536 192.121 354.432V353.376C192.121 352.272 191.449 351.528 190.369 351.528C189.493 351.528 188.773 352.032 188.773 352.716V355.02C188.773 355.824 189.493 356.28 190.369 356.28ZM194.774 359.4V350.808H195.734V351.816H195.782C196.106 351.036 196.742 350.664 197.594 350.664C199.142 350.664 200.114 351.924 200.114 353.904C200.114 355.884 199.142 357.144 197.594 357.144C196.742 357.144 196.154 356.76 195.782 355.992H195.734V359.4H194.774ZM197.33 356.28C198.41 356.28 199.082 355.536 199.082 354.432V353.376C199.082 352.272 198.41 351.528 197.33 351.528C196.454 351.528 195.734 352.032 195.734 352.716V355.02C195.734 355.824 196.454 356.28 197.33 356.28ZM204.075 357.144C202.419 357.144 201.279 355.872 201.279 353.904C201.279 351.936 202.419 350.664 204.075 350.664C205.731 350.664 206.871 351.936 206.871 353.904C206.871 355.872 205.731 357.144 204.075 357.144ZM204.075 356.292C205.107 356.292 205.839 355.656 205.839 354.348V353.46C205.839 352.152 205.107 351.516 204.075 351.516C203.043 351.516 202.311 352.152 202.311 353.46V354.348C202.311 355.656 203.043 356.292 204.075 356.292ZM209.41 357H208.45V350.808H209.41V351.948H209.47C209.686 351.36 210.25 350.808 211.258 350.808H211.63V351.768H211.066C210.034 351.768 209.41 352.212 209.41 352.8V357ZM215.471 357H214.271C213.611 357 213.251 356.58 213.251 355.98V351.648H212.231V350.808H212.807C213.215 350.808 213.347 350.664 213.347 350.244V349.092H214.211V350.808H215.567V351.648H214.211V356.16H215.471V357ZM222.514 357H221.314C220.654 357 220.294 356.58 220.294 355.98V351.648H219.274V350.808H219.85C220.258 350.808 220.39 350.664 220.39 350.244V349.092H221.254V350.808H222.61V351.648H221.254V356.16H222.514V357ZM226.434 357.144C224.754 357.144 223.65 355.872 223.65 353.904C223.65 351.936 224.754 350.664 226.434 350.664C228.09 350.664 229.11 351.936 229.11 353.688V354.144H224.658V354.432C224.658 355.5 225.342 356.304 226.494 356.304C227.274 356.304 227.874 355.92 228.198 355.236L228.882 355.728C228.486 356.568 227.598 357.144 226.434 357.144ZM226.434 351.468C225.39 351.468 224.658 352.26 224.658 353.34V353.424H228.078V353.292C228.078 352.2 227.418 351.468 226.434 351.468ZM229.783 357L232.075 353.88L229.879 350.808H231.007L232.579 353.112H232.615L234.247 350.808H235.315L233.131 353.808L235.363 357H234.235L232.627 354.576H232.591L230.851 357H229.783ZM239.201 357H238.001C237.341 357 236.981 356.58 236.981 355.98V351.648H235.961V350.808H236.537C236.945 350.808 237.077 350.664 237.077 350.244V349.092H237.941V350.808H239.297V351.648H237.941V356.16H239.201V357Z" fill="#6D8C8E"/>
<path d="M26.478 397H25.302V387.228H29.194C30.944 387.228 31.924 388.306 31.924 390.028C31.924 391.75 30.944 392.828 29.194 392.828H26.478V397ZM26.478 388.264V391.792H29.194C30.118 391.792 30.664 391.288 30.664 390.392V389.664C30.664 388.768 30.118 388.264 29.194 388.264H26.478ZM35.8642 397H34.8702C34.1002 397 33.6802 396.51 33.6802 395.838V386.64H34.8002V396.02H35.8642V397ZM43.3747 397H42.7447C41.9187 397 41.5827 396.496 41.4987 395.824H41.4287C41.1207 396.706 40.3507 397.168 39.3427 397.168C37.8167 397.168 36.9207 396.328 36.9207 394.984C36.9207 393.626 37.9007 392.87 40.0007 392.87H41.4287V392.156C41.4287 391.134 40.8687 390.574 39.7207 390.574C38.8527 390.574 38.2787 390.994 37.8867 391.652L37.2147 391.022C37.6067 390.252 38.4747 389.608 39.7767 389.608C41.5127 389.608 42.5487 390.518 42.5487 392.044V396.02H43.3747V397ZM39.5247 396.216C40.6307 396.216 41.4287 395.642 41.4287 394.9V393.71H39.9447C38.6707 393.71 38.0967 394.102 38.0967 394.802V395.096C38.0967 395.81 38.6567 396.216 39.5247 396.216ZM47.6612 397.168C45.6312 397.168 44.4412 395.698 44.4412 393.388C44.4412 391.078 45.6312 389.608 47.6612 389.608C49.0892 389.608 49.9432 390.308 50.3632 391.302L49.4252 391.778C49.1592 391.036 48.5432 390.602 47.6612 390.602C46.3312 390.602 45.6452 391.512 45.6452 392.772V394.004C45.6452 395.264 46.3312 396.174 47.6612 396.174C48.5712 396.174 49.2292 395.74 49.6212 394.914L50.4332 395.46C49.9712 396.496 49.0332 397.168 47.6612 397.168ZM54.6482 397.168C52.6882 397.168 51.4002 395.684 51.4002 393.388C51.4002 391.092 52.6882 389.608 54.6482 389.608C56.5802 389.608 57.7702 391.092 57.7702 393.136V393.668H52.5762V394.004C52.5762 395.25 53.3742 396.188 54.7182 396.188C55.6282 396.188 56.3282 395.74 56.7062 394.942L57.5042 395.516C57.0422 396.496 56.0062 397.168 54.6482 397.168ZM54.6482 390.546C53.4302 390.546 52.5762 391.47 52.5762 392.73V392.828H56.5662V392.674C56.5662 391.4 55.7962 390.546 54.6482 390.546ZM59.6158 397V386.64H60.7358V390.952H60.7918C61.1418 390.14 61.7578 389.608 62.8358 389.608C64.3198 389.608 65.2578 390.616 65.2578 392.366V397H64.1378V392.562C64.1378 391.274 63.5778 390.616 62.4998 390.616C61.6038 390.616 60.7358 391.064 60.7358 391.988V397H59.6158ZM70.3028 397.168C68.3708 397.168 67.0408 395.684 67.0408 393.388C67.0408 391.092 68.3708 389.608 70.3028 389.608C72.2348 389.608 73.5648 391.092 73.5648 393.388C73.5648 395.684 72.2348 397.168 70.3028 397.168ZM70.3028 396.174C71.5068 396.174 72.3608 395.432 72.3608 393.906V392.87C72.3608 391.344 71.5068 390.602 70.3028 390.602C69.0988 390.602 68.2448 391.344 68.2448 392.87V393.906C68.2448 395.432 69.0988 396.174 70.3028 396.174ZM77.5908 397H76.5968C75.8268 397 75.4068 396.51 75.4068 395.838V386.64H76.5268V396.02H77.5908V397ZM83.8413 397V395.824H83.7853C83.3513 396.72 82.6653 397.168 81.6713 397.168C79.8653 397.168 78.7313 395.698 78.7313 393.388C78.7313 391.078 79.8653 389.608 81.6713 389.608C82.6653 389.608 83.4073 390.042 83.7853 390.952H83.8413V386.64H84.9613V397H83.8413ZM81.9793 396.16C83.0013 396.16 83.8413 395.628 83.8413 394.69V392.002C83.8413 391.204 83.0013 390.616 81.9793 390.616C80.7193 390.616 79.9353 391.484 79.9353 392.772V394.004C79.9353 395.292 80.7193 396.16 81.9793 396.16ZM90.0583 397.168C88.0983 397.168 86.8103 395.684 86.8103 393.388C86.8103 391.092 88.0983 389.608 90.0583 389.608C91.9903 389.608 93.1803 391.092 93.1803 393.136V393.668H87.9863V394.004C87.9863 395.25 88.7843 396.188 90.1283 396.188C91.0383 396.188 91.7383 395.74 92.1163 394.942L92.9143 395.516C92.4523 396.496 91.4163 397.168 90.0583 397.168ZM90.0583 390.546C88.8403 390.546 87.9863 391.47 87.9863 392.73V392.828H91.9763V392.674C91.9763 391.4 91.2063 390.546 90.0583 390.546ZM96.1459 397H95.0259V389.776H96.1459V391.106H96.2159C96.4679 390.42 97.1259 389.776 98.3019 389.776H98.7359V390.896H98.0779C96.8739 390.896 96.1459 391.414 96.1459 392.1V397Z" fill="white"/>
<path d="M176.468 397.144C175.124 397.144 174.176 396.592 173.504 395.68L174.248 395.056C174.836 395.836 175.532 396.256 176.504 396.256C177.704 396.256 178.352 395.632 178.352 394.672C178.352 393.88 177.908 393.484 176.804 393.232L176.12 393.076C174.596 392.728 173.756 392.056 173.756 390.772C173.756 389.284 174.884 388.48 176.528 388.48C177.788 388.48 178.676 388.96 179.3 389.848L178.544 390.4C178.088 389.764 177.452 389.368 176.48 389.368C175.412 389.368 174.752 389.836 174.752 390.736C174.752 391.528 175.268 391.888 176.324 392.128L177.008 392.284C178.64 392.656 179.348 393.376 179.348 394.624C179.348 396.16 178.268 397.144 176.468 397.144ZM184.809 397V395.992H184.761C184.521 396.58 184.053 397.144 183.021 397.144C181.749 397.144 180.933 396.28 180.933 394.78V390.808H181.893V394.612C181.893 395.716 182.385 396.28 183.309 396.28C184.065 396.28 184.809 395.908 184.809 395.092V390.808H185.769V397H184.809ZM187.813 399.4V390.808H188.773V391.816H188.821C189.145 391.036 189.781 390.664 190.633 390.664C192.181 390.664 193.153 391.924 193.153 393.904C193.153 395.884 192.181 397.144 190.633 397.144C189.781 397.144 189.193 396.76 188.821 395.992H188.773V399.4H187.813ZM190.369 396.28C191.449 396.28 192.121 395.536 192.121 394.432V393.376C192.121 392.272 191.449 391.528 190.369 391.528C189.493 391.528 188.773 392.032 188.773 392.716V395.02C188.773 395.824 189.493 396.28 190.369 396.28ZM194.774 399.4V390.808H195.734V391.816H195.782C196.106 391.036 196.742 390.664 197.594 390.664C199.142 390.664 200.114 391.924 200.114 393.904C200.114 395.884 199.142 397.144 197.594 397.144C196.742 397.144 196.154 396.76 195.782 395.992H195.734V399.4H194.774ZM197.33 396.28C198.41 396.28 199.082 395.536 199.082 394.432V393.376C199.082 392.272 198.41 391.528 197.33 391.528C196.454 391.528 195.734 392.032 195.734 392.716V395.02C195.734 395.824 196.454 396.28 197.33 396.28ZM204.075 397.144C202.419 397.144 201.279 395.872 201.279 393.904C201.279 391.936 202.419 390.664 204.075 390.664C205.731 390.664 206.871 391.936 206.871 393.904C206.871 395.872 205.731 397.144 204.075 397.144ZM204.075 396.292C205.107 396.292 205.839 395.656 205.839 394.348V393.46C205.839 392.152 205.107 391.516 204.075 391.516C203.043 391.516 202.311 392.152 202.311 393.46V394.348C202.311 395.656 203.043 396.292 204.075 396.292ZM209.41 397H208.45V390.808H209.41V391.948H209.47C209.686 391.36 210.25 390.808 211.258 390.808H211.63V391.768H211.066C210.034 391.768 209.41 392.212 209.41 392.8V397ZM215.471 397H214.271C213.611 397 213.251 396.58 213.251 395.98V391.648H212.231V390.808H212.807C213.215 390.808 213.347 390.664 213.347 390.244V389.092H214.211V390.808H215.567V391.648H214.211V396.16H215.471V397ZM222.514 397H221.314C220.654 397 220.294 396.58 220.294 395.98V391.648H219.274V390.808H219.85C220.258 390.808 220.39 390.664 220.39 390.244V389.092H221.254V390.808H222.61V391.648H221.254V396.16H222.514V397ZM226.434 397.144C224.754 397.144 223.65 395.872 223.65 393.904C223.65 391.936 224.754 390.664 226.434 390.664C228.09 390.664 229.11 391.936 229.11 393.688V394.144H224.658V394.432C224.658 395.5 225.342 396.304 226.494 396.304C227.274 396.304 227.874 395.92 228.198 395.236L228.882 395.728C228.486 396.568 227.598 397.144 226.434 397.144ZM226.434 391.468C225.39 391.468 224.658 392.26 224.658 393.34V393.424H228.078V393.292C228.078 392.2 227.418 391.468 226.434 391.468ZM229.783 397L232.075 393.88L229.879 390.808H231.007L232.579 393.112H232.615L234.247 390.808H235.315L233.131 393.808L235.363 397H234.235L232.627 394.576H232.591L230.851 397H229.783ZM239.201 397H238.001C237.341 397 236.981 396.58 236.981 395.98V391.648H235.961V390.808H236.537C236.945 390.808 237.077 390.664 237.077 390.244V389.092H237.941V390.808H239.297V391.648H237.941V396.16H239.201V397Z" fill="#6D8C8E"/>
</g>
</g>
<rect x="12.5" y="28.5" width="239" height="383" rx="7.5" stroke="#31403C"/>
</g>
<defs>
<filter id="filter0_dd_12037_9280" x="0" y="28" width="264" height="408" filterUnits="userSpaceOnUse" color-interpolation-filters="sRGB">
<feFlood flood-opacity="0" result="BackgroundImageFix"/>
<feColorMatrix in="SourceAlpha" type="matrix" values="0 0 0 0 0 0 0 0 0 0 0 0 0 0 0 0 0 0 127 0" result="hardAlpha"/>
<feMorphology radius="2" operator="erode" in="SourceAlpha" result="effect1_dropShadow_12037_9280"/>
<feOffset dy="4"/>
<feGaussianBlur stdDeviation="3"/>
<feColorMatrix type="matrix" values="0 0 0 0 0.0784314 0 0 0 0 0.101961 0 0 0 0 0.101961 0 0 0 0.03 0"/>
<feBlend mode="normal" in2="BackgroundImageFix" result="effect1_dropShadow_12037_9280"/>
<feColorMatrix in="SourceAlpha" type="matrix" values="0 0 0 0 0 0 0 0 0 0 0 0 0 0 0 0 0 0 127 0" result="hardAlpha"/>
<feMorphology radius="4" operator="erode" in="SourceAlpha" result="effect2_dropShadow_12037_9280"/>
<feOffset dy="12"/>
<feGaussianBlur stdDeviation="8"/>
<feColorMatrix type="matrix" values="0 0 0 0 0.0784314 0 0 0 0 0.101961 0 0 0 0 0.101961 0 0 0 0.08 0"/>
<feBlend mode="normal" in2="effect1_dropShadow_12037_9280" result="effect2_dropShadow_12037_9280"/>
<feBlend mode="normal" in="SourceGraphic" in2="effect2_dropShadow_12037_9280" result="shape"/>
</filter>
<clipPath id="clip0_12037_9280">
<rect x="12" y="28" width="240" height="384" rx="8" fill="white"/>
</clipPath>
<clipPath id="clip1_12037_9280">
<rect width="240" height="384" fill="white" transform="translate(12 28)"/>
</clipPath>
</defs>
</svg>
