<svg width="24" height="24" viewBox="0 0 24 24" fill="none" xmlns="http://www.w3.org/2000/svg">
<g clipPath="url(#clip0_14531_6030)">
<path d="M1.8577 6.14434L12 0.288675L22.1423 6.14434V17.8557L12 23.7113L1.8577 17.8557V6.14434Z" fill="#1C2322" stroke="#31403C" strokeWidth="0.5"/>
<path d="M12.225 2.84123C12.0858 2.76084 11.9142 2.76084 11.775 2.84123L4.18077 7.22576C4.04154 7.30614 3.95577 7.4547 3.95577 7.61547V16.3845C3.95577 16.5453 4.04154 16.6939 4.18077 16.7742L11.775 21.1588C11.9142 21.2392 12.0858 21.2392 12.225 21.1588L19.8192 16.7742C19.9585 16.6939 20.0442 16.5453 20.0442 16.3845V7.61547C20.0442 7.4547 19.9585 7.30614 19.8192 7.22576L12.225 2.84123Z" fill="#1C2322" stroke="#31403C" strokeWidth="0.5"/>
<path fillRule="evenodd" clipRule="evenodd" d="M12.1 2.78979C12.0381 2.75406 11.9619 2.75406 11.9 2.78979L4.07372 7.30829C4.01184 7.34402 3.97372 7.41004 3.97372 7.4815V16.5185C3.97372 16.59 4.01184 16.656 4.07372 16.6917L11.9 21.2102C11.9619 21.2459 12.0381 21.2459 12.1 21.2102L19.9263 16.6917C19.9882 16.656 20.0263 16.59 20.0263 16.5185V7.4815C20.0263 7.41004 19.9882 7.34402 19.9263 7.30829L12.1 2.78979ZM21.5263 6.61547C21.5263 6.54402 21.4882 6.47799 21.4263 6.44227L12.1 1.05774C12.0381 1.02201 11.9619 1.02201 11.9 1.05773L2.57372 6.44227C2.51184 6.47799 2.47372 6.54402 2.47372 6.61547V17.3845C2.47372 17.456 2.51184 17.522 2.57372 17.5577L11.9 22.9423C11.9619 22.978 12.0381 22.978 12.1 22.9423L21.4263 17.5577C21.4882 17.522 21.5263 17.456 21.5263 17.3845V6.61547Z" fill="#31403C" stroke="#31403C" strokeWidth="0.2"/>
</g>
<defs>
<clipPath id="clip0_14531_6030">
<rect width="24" height="24" fill="white"/>
</clipPath>
</defs>
</svg>
