<svg width="24" height="24" viewBox="0 0 24 24" fill="none" xmlns="http://www.w3.org/2000/svg">
<g clipPath="url(#clip0_13256_492)">
<path d="M1.8577 6.14434L12 0.288675L22.1423 6.14434V17.8557L12 23.7113L1.8577 17.8557V6.14434Z" fill="#1C2322" stroke="#31403C" strokeWidth="0.5"/>
<path d="M12.225 2.84123C12.0858 2.76084 11.9142 2.76084 11.775 2.84123L4.18077 7.22576C4.04154 7.30614 3.95577 7.4547 3.95577 7.61547V16.3845C3.95577 16.5453 4.04154 16.6939 4.18077 16.7742L11.775 21.1588C11.9142 21.2392 12.0858 21.2392 12.225 21.1588L19.8192 16.7742C19.9585 16.6939 20.0442 16.5453 20.0442 16.3845V7.61547C20.0442 7.4547 19.9585 7.30614 19.8192 7.22576L12.225 2.84123Z" fill="url(#paint0_linear_13256_492)" fill-opacity="0.2" stroke="#31403C" strokeWidth="0.5"/>
<path fillRule="evenodd" clipRule="evenodd" d="M12.1 2.78979C12.0381 2.75406 11.9619 2.75406 11.9 2.78979L4.07372 7.30829C4.01184 7.34402 3.97372 7.41004 3.97372 7.4815V16.5185C3.97372 16.59 4.01184 16.656 4.07372 16.6917L11.9 21.2102C11.9619 21.2459 12.0381 21.2459 12.1 21.2102L19.9263 16.6917C19.9882 16.656 20.0263 16.59 20.0263 16.5185V7.4815C20.0263 7.41004 19.9882 7.34402 19.9263 7.30829L12.1 2.78979ZM21.5263 6.61547C21.5263 6.54402 21.4882 6.47799 21.4263 6.44227L12.1 1.05774C12.0381 1.02201 11.9619 1.02201 11.9 1.05773L2.57372 6.44227C2.51184 6.47799 2.47372 6.54402 2.47372 6.61547V17.3845C2.47372 17.456 2.51184 17.522 2.57372 17.5577L11.9 22.9423C11.9619 22.978 12.0381 22.978 12.1 22.9423L21.4263 17.5577C21.4882 17.522 21.5263 17.456 21.5263 17.3845V6.61547Z" fill="url(#paint1_linear_13256_492)" stroke="#31403C" strokeWidth="0.2"/>
<path d="M12.0994 3.41035L19.3994 7.59235C19.4616 7.62799 19.5 7.6942 19.5 7.76589V9.15479C19.5 9.30849 19.3339 9.40474 19.2005 9.3283L12.0995 5.25703C12.0379 5.22171 11.9621 5.22171 11.9005 5.25703L4.79948 9.3283C4.66614 9.40474 4.5 9.30849 4.5 9.15479V7.76589C4.5 7.6942 4.53837 7.62799 4.60058 7.59235L11.9006 3.41035C11.9622 3.37507 12.0378 3.37507 12.0994 3.41035Z" fill="url(#paint2_linear_13256_492)" stroke="#31403C" strokeWidth="0.2"/>
<path d="M12.0994 20.4897L19.3994 16.3077C19.4616 16.272 19.5 16.2058 19.5 16.1341V14.7452C19.5 14.5915 19.3339 14.4953 19.2005 14.5717L12.0995 18.643C12.0379 18.6783 11.9621 18.6783 11.9005 18.643L4.79948 14.5717C4.66614 14.4953 4.5 14.5915 4.5 14.7452V16.1341C4.5 16.2058 4.53837 16.272 4.60058 16.3077L11.9006 20.4897C11.9622 20.525 12.0378 20.525 12.0994 20.4897Z" fill="url(#paint3_linear_13256_492)" stroke="#31403C" strokeWidth="0.2"/>
<path d="M12.0994 18.0896L19.3994 13.9076C19.4616 13.872 19.5 13.8058 19.5 13.7341V12.3452C19.5 12.1915 19.3339 12.0953 19.2005 12.1717L12.0995 16.243C12.0379 16.2783 11.9621 16.2783 11.9005 16.243L4.79948 12.1717C4.66614 12.0953 4.5 12.1915 4.5 12.3452V13.7341C4.5 13.8058 4.53837 13.872 4.60058 13.9076L11.9006 18.0896C11.9622 18.1249 12.0378 18.1249 12.0994 18.0896Z" fill="url(#paint4_linear_13256_492)" stroke="#31403C" strokeWidth="0.2"/>
<path d="M12.0994 15.6896L19.3994 11.5076C19.4616 11.472 19.5 11.4058 19.5 11.3341V9.94518C19.5 9.79149 19.3339 9.69523 19.2005 9.77168L12.0995 13.8429C12.0379 13.8783 11.9621 13.8783 11.9005 13.8429L4.79948 9.77168C4.66614 9.69523 4.5 9.79149 4.5 9.94518V11.3341C4.5 11.4058 4.53837 11.472 4.60058 11.5076L11.9006 15.6896C11.9622 15.7249 12.0378 15.7249 12.0994 15.6896Z" fill="url(#paint5_linear_13256_492)" stroke="#31403C" strokeWidth="0.2"/>
<path d="M11.8143 6.41425C11.8814 6.24662 12.1186 6.24662 12.1857 6.41425L14.2608 11.6021C14.3338 11.7845 14.1276 11.9518 13.9642 11.8428L12.1109 10.6073C12.0438 10.5625 11.9562 10.5625 11.8891 10.6073L10.0358 11.8428C9.87237 11.9518 9.66621 11.7845 9.73915 11.6021L11.8143 6.41425Z" fill="url(#paint6_linear_13256_492)" stroke="#31403C" strokeWidth="0.2"/>
</g>
<defs>
<linearGradient id="paint0_linear_13256_492" x1="3.47368" y1="3.47368" x2="20.5263" y2="20.5263" gradientUnits="userSpaceOnUse">
<stop stopColor="#45FFC5"/>
<stop offset="1" stopColor="#30AC85" stop-opacity="0"/>
</linearGradient>
<linearGradient id="paint1_linear_13256_492" x1="2.47372" y1="1" x2="14.3816" y2="21.625" gradientUnits="userSpaceOnUse">
<stop stopColor="#45FFC5"/>
<stop offset="1" stopColor="#30AC85"/>
</linearGradient>
<linearGradient id="paint2_linear_13256_492" x1="4.5" y1="9.5" x2="6.01078" y2="2.12629" gradientUnits="userSpaceOnUse">
<stop stopColor="#45FFC5"/>
<stop offset="1" stopColor="#30AC85"/>
</linearGradient>
<linearGradient id="paint3_linear_13256_492" x1="4.5" y1="14.4" x2="6.01078" y2="21.7737" gradientUnits="userSpaceOnUse">
<stop stopColor="#45FFC5"/>
<stop offset="1" stopColor="#30AC85"/>
</linearGradient>
<linearGradient id="paint4_linear_13256_492" x1="4.5" y1="12" x2="6.01078" y2="19.3737" gradientUnits="userSpaceOnUse">
<stop stopColor="#45FFC5"/>
<stop offset="1" stopColor="#30AC85"/>
</linearGradient>
<linearGradient id="paint5_linear_13256_492" x1="4.5" y1="9.59998" x2="6.01078" y2="16.9737" gradientUnits="userSpaceOnUse">
<stop stopColor="#45FFC5"/>
<stop offset="1" stopColor="#30AC85"/>
</linearGradient>
<linearGradient id="paint6_linear_13256_492" x1="9.5" y1="5.95001" x2="13.0112" y2="11.568" gradientUnits="userSpaceOnUse">
<stop stopColor="#45FFC5"/>
<stop offset="1" stopColor="#30AC85"/>
</linearGradient>
<clipPath id="clip0_13256_492">
<rect width="24" height="24" fill="white"/>
</clipPath>
</defs>
</svg>
