<svg width="21" height="20" viewBox="0 0 21 20" fill="none" xmlns="http://www.w3.org/2000/svg">
<path fillRule="evenodd" clipRule="evenodd" d="M9.875 13.3334V1.66669H11.125V13.3334H9.875Z" fill="white"/>
<path fillRule="evenodd" clipRule="evenodd" d="M10.5 0.782776L14.7172 4.99999L13.8333 5.88388L10.5 2.55054L7.16667 5.88388L6.28279 4.99999L10.5 0.782776Z" fill="white"/>
<path fillRule="evenodd" clipRule="evenodd" d="M3.83334 8.95831C3.55707 8.95831 3.29212 9.06806 3.09677 9.26341C2.90142 9.45876 2.79167 9.72371 2.79167 9.99998V16.6666C2.79167 16.9429 2.90142 17.2079 3.09677 17.4032C3.29212 17.5986 3.55707 17.7083 3.83334 17.7083H17.1667C17.4429 17.7083 17.7079 17.5986 17.9032 17.4032C18.0986 17.2079 18.2083 16.9429 18.2083 16.6666V9.99998C18.2083 9.72371 18.0986 9.45876 17.9032 9.26341C17.7079 9.06806 17.4429 8.95831 17.1667 8.95831H14.0417V7.70831H17.1667C17.7745 7.70831 18.3574 7.94976 18.7871 8.37953C19.2169 8.8093 19.4583 9.39219 19.4583 9.99998V16.6666C19.4583 17.2744 19.2169 17.8573 18.7871 18.2871C18.3574 18.7169 17.7745 18.9583 17.1667 18.9583H3.83334C3.22555 18.9583 2.64266 18.7169 2.21289 18.2871C1.78311 17.8573 1.54167 17.2744 1.54167 16.6666V9.99998C1.54167 9.39219 1.78311 8.8093 2.21289 8.37953C2.64266 7.94976 3.22555 7.70831 3.83334 7.70831H6.95834V8.95831H3.83334Z" fill="white"/>
</svg>
