<svg width="18" height="18" viewBox="0 0 18 18" fill="none" xmlns="http://www.w3.org/2000/svg">
<g clipPath="url(#clip0_25156_10318)">
<path d="M9 18C13.9706 18 18 13.9706 18 9C18 4.02944 13.9706 0 9 0C4.02944 0 0 4.02944 0 9C0 13.9706 4.02944 18 9 18Z" fill="#2775C9"/>
<path d="M8.99811 15.6074C7.6909 15.6074 6.41304 15.2198 5.32614 14.4935C4.23923 13.7673 3.39209 12.7351 2.89184 11.5273C2.3916 10.3196 2.26071 8.99072 2.51573 7.70862C2.77076 6.42653 3.40024 5.24885 4.32458 4.32452C5.24891 3.40018 6.42659 2.7707 7.70868 2.51567C8.99078 2.26065 10.3197 2.39154 11.5274 2.89178C12.7351 3.39203 13.7674 4.23917 14.4936 5.32608C15.2199 6.41298 15.6075 7.69084 15.6075 8.99805C15.6075 10.751 14.9111 12.4321 13.6716 13.6716C12.4321 14.9111 10.751 15.6074 8.99811 15.6074ZM8.60436 6.54555C8.24273 6.56348 7.90087 6.71595 7.64589 6.97301C7.39091 7.23007 7.24123 7.57316 7.22624 7.93492C7.22624 8.61555 7.64248 9.05992 8.52561 9.24555L9.14436 9.3918C9.74623 9.53242 9.99373 9.73492 9.99373 10.078C9.99373 10.4212 9.56061 10.7587 8.99811 10.7587C8.79831 10.777 8.59739 10.7387 8.41833 10.6482C8.23927 10.5577 8.08931 10.4186 7.98561 10.2468C7.95488 10.1816 7.90638 10.1265 7.84567 10.0876C7.78497 10.0488 7.71453 10.028 7.64249 10.0274H7.31061C7.28509 10.0322 7.26075 10.0419 7.23901 10.056C7.21726 10.0702 7.19853 10.0885 7.18389 10.11C7.16925 10.1314 7.159 10.1555 7.15371 10.1809C7.14843 10.2064 7.14823 10.2326 7.15311 10.258C7.23395 10.588 7.42191 10.8818 7.68757 11.0935C7.95322 11.3052 8.28158 11.4229 8.62123 11.428V11.9005C8.62123 12.0057 8.66302 12.1066 8.73739 12.181C8.81176 12.2553 8.91262 12.2971 9.0178 12.2971C9.12297 12.2971 9.22384 12.2553 9.29821 12.181C9.37258 12.1066 9.41436 12.0057 9.41436 11.9005V11.4224C9.79843 11.4181 10.1656 11.2639 10.4377 10.9929C10.7099 10.7218 10.8654 10.3552 10.8712 9.97117C10.8712 9.2568 10.4606 8.84617 9.48748 8.63805L8.92498 8.5143C8.36248 8.37367 8.09811 8.18805 8.09811 7.87305C8.09811 7.55805 8.43561 7.2093 8.99811 7.2093C9.17526 7.1908 9.35398 7.22397 9.51269 7.30482C9.6714 7.38568 9.8033 7.51074 9.89248 7.66492C9.92863 7.74192 9.98587 7.8071 10.0575 7.85289C10.1292 7.89869 10.2124 7.92323 10.2975 7.92367H10.5619C10.622 7.90897 10.6739 7.87127 10.7065 7.81868C10.7391 7.76609 10.7498 7.7028 10.7362 7.64242C10.66 7.33779 10.4896 7.06501 10.2492 6.86299C10.0088 6.66097 9.71069 6.54003 9.39748 6.51742V6.1293C9.39748 6.02412 9.3557 5.92326 9.28133 5.84889C9.20696 5.77452 9.1061 5.73274 9.00092 5.73274C8.89575 5.73274 8.79488 5.77452 8.72051 5.84889C8.64614 5.92326 8.60436 6.02412 8.60436 6.1293V6.54555ZM4.04249 8.99805C4.04313 10.0342 4.36928 11.044 4.97488 11.8848C5.58047 12.7255 6.4349 13.3548 7.41748 13.6837H7.49623C7.56337 13.6837 7.62775 13.657 7.67522 13.6095C7.72269 13.5621 7.74936 13.4977 7.74936 13.4305V13.3124C7.74955 13.2077 7.71864 13.1053 7.66056 13.0182C7.60248 12.9311 7.51983 12.8631 7.42311 12.823C6.65789 12.5142 6.00243 11.9837 5.54086 11.2996C5.0793 10.6156 4.83269 9.80919 4.83269 8.98399C4.83269 8.15878 5.0793 7.3524 5.54086 6.66835C6.00243 5.9843 6.65789 5.45379 7.42311 5.14492C7.51939 5.10582 7.60184 5.03892 7.65994 4.95276C7.71805 4.8666 7.74918 4.76509 7.74936 4.66117V4.5318C7.74972 4.49381 7.74092 4.4563 7.7237 4.42244C7.70648 4.38858 7.68135 4.35937 7.65044 4.33729C7.61953 4.31521 7.58375 4.30091 7.54613 4.2956C7.50852 4.29029 7.47017 4.29414 7.43436 4.3068C6.44771 4.6331 5.58896 5.26198 4.98008 6.10412C4.37119 6.94627 4.04313 7.95885 4.04249 8.99805ZM13.9537 8.99805C13.9519 7.96285 13.6252 6.95433 13.0197 6.11468C12.4142 5.27504 11.5604 4.64663 10.5787 4.31805H10.4944C10.4242 4.31805 10.357 4.3459 10.3074 4.39548C10.2578 4.44506 10.23 4.51231 10.23 4.58242V4.6668C10.2323 4.77529 10.2659 4.88081 10.3267 4.97063C10.3876 5.06046 10.4732 5.13075 10.5731 5.17305C11.3366 5.48283 11.9903 6.01336 12.4505 6.69677C12.9107 7.38018 13.1566 8.18537 13.1566 9.0093C13.1566 9.83323 12.9107 10.6384 12.4505 11.3218C11.9903 12.0052 11.3366 12.5358 10.5731 12.8455C10.4751 12.8883 10.3913 12.9581 10.3315 13.0467C10.2717 13.1354 10.2385 13.2393 10.2356 13.3462V13.4418C10.2361 13.4835 10.2464 13.5245 10.2658 13.5614C10.2851 13.5984 10.313 13.6302 10.347 13.6544C10.381 13.6785 10.4202 13.6942 10.4615 13.7003C10.5027 13.7064 10.5448 13.7026 10.5844 13.6893C11.5668 13.3591 12.4207 12.7286 13.0253 11.8868C13.6299 11.045 13.9547 10.0345 13.9537 8.99805Z" fill="white"/>
</g>
<defs>
<clipPath id="clip0_25156_10318">
<rect width="18" height="18" fill="white"/>
</clipPath>
</defs>
</svg>
