<svg width="18" height="18" viewBox="0 0 18 18" fill="none" xmlns="http://www.w3.org/2000/svg">
<g clipPath="url(#clip0_14697_654)">
<path fillRule="evenodd" clipRule="evenodd" d="M5.25462 10.7516L2.0151 12.3713L1.5513 15.6173C1.5513 15.6173 1.5513 15.6172 1.5513 15.6173C1.47071 16.1822 1.90907 16.6875 2.47944 16.6875H15.5204C16.0908 16.6875 16.5292 16.1823 16.4486 15.6173C16.4486 15.6173 16.4486 15.6174 16.4486 15.6173L15.9848 12.3714L12.7453 10.7516L13.2484 9.74536L17.0151 11.6287L17.5623 15.4582C17.7396 16.7008 16.7755 17.8125 15.5204 17.8125H2.47944C1.22435 17.8125 0.260231 16.7008 0.437589 15.4583L0.984788 11.6287L4.7515 9.74536L5.25462 10.7516Z" fill="#6D8C8E"/>
<path fillRule="evenodd" clipRule="evenodd" d="M9 1.3125C7.23959 1.3125 5.8125 2.73959 5.8125 4.5V6C5.8125 7.76041 7.23959 9.1875 9 9.1875C10.7604 9.1875 12.1875 7.76041 12.1875 6V4.5C12.1875 2.73959 10.7604 1.3125 9 1.3125ZM4.6875 4.5C4.6875 2.11827 6.61827 0.1875 9 0.1875C11.3817 0.1875 13.3125 2.11827 13.3125 4.5V6C13.3125 8.38173 11.3817 10.3125 9 10.3125C6.61827 10.3125 4.6875 8.38173 4.6875 6V4.5Z" fill="#6D8C8E"/>
</g>
<defs>
<clipPath id="clip0_14697_654">
<rect width="18" height="18" fill="white"/>
</clipPath>
</defs>
</svg>
