<svg width="24" height="14" viewBox="0 0 24 14" fill="none" xmlns="http://www.w3.org/2000/svg">
<path d="M23.0612 3.06122L13.0612 13.0612C12.9218 13.2011 12.7563 13.312 12.5739 13.3877C12.3916 13.4634 12.1961 13.5024 11.9987 13.5024C11.8013 13.5024 11.6058 13.4634 11.4235 13.3877C11.2411 13.312 11.0756 13.2011 10.9362 13.0612L0.936196 3.06122C0.654403 2.77943 0.496094 2.39724 0.496094 1.99872C0.496094 1.60021 0.654403 1.21802 0.936196 0.936225C1.21799 0.654432 1.60018 0.496123 1.9987 0.496123C2.39721 0.496123 2.7794 0.654432 3.0612 0.936225L11.9999 9.87498L20.9387 0.934976C21.2205 0.653183 21.6027 0.494873 22.0012 0.494873C22.3997 0.494873 22.7819 0.653183 23.0637 0.934976C23.3455 1.21677 23.5038 1.59896 23.5038 1.99748C23.5038 2.39599 23.3455 2.77818 23.0637 3.05998L23.0612 3.06122Z" fill="#818181"/>
</svg>
