<svg width="24" height="24" viewBox="0 0 24 24" xmlns="http://www.w3.org/2000/svg">
<path fillRule="evenodd" clipRule="evenodd" d="M11.66 0.278025C11.1371 0.338659 10.6426 0.547926 10.235 0.881025C9.913 1.13903 9.699 1.39903 9.469 1.81303C9.103 2.47203 0.534004 18.705 0.471004 18.86C0.317004 19.235 0.300004 19.343 0.301004 19.94C0.301004 20.493 0.310004 20.563 0.411004 20.836C0.715004 21.663 1.421 22.361 2.197 22.602C2.339 22.646 2.627 22.7 2.837 22.723C3.089 22.749 6.324 22.759 12.28 22.752L21.34 22.74L21.647 22.652C22.2879 22.4709 22.8479 22.077 23.235 21.535C23.732 20.843 23.871 19.851 23.588 19.018C23.497 18.747 14.769 2.19003 14.409 1.60503C14.1257 1.14404 13.7162 0.773984 13.2289 0.538773C12.7417 0.303561 12.1972 0.213067 11.66 0.278025ZM12.502 1.84403C12.987 2.02603 12.707 1.53803 17.288 10.2C19.575 14.523 21.619 18.393 21.833 18.8L22.22 19.54V19.92C22.22 20.253 22.207 20.325 22.114 20.5C21.9777 20.7601 21.7662 20.973 21.507 21.111L21.3 21.22H2.7L2.5 21.113C2.23769 20.9642 2.02225 20.7449 1.878 20.48C1.736 20.199 1.723 19.762 1.848 19.458C1.969 19.161 10.769 2.52303 10.927 2.29103C11.054 2.10603 11.318 1.90603 11.551 1.82103C11.785 1.73403 12.239 1.74603 12.502 1.84403ZM11.24 11V14.76H12.76V7.24003H11.24V11ZM11.667 16.065C11.303 16.177 11 16.602 11 17C11 17.517 11.483 18 12 18C12.517 18 13 17.517 13 17C13 16.598 12.688 16.173 12.31 16.061C12.1019 15.9868 11.8742 15.9882 11.667 16.065Z"/>
</svg>
