<svg width="20" height="20" viewBox="0 0 20 20" fill="none" xmlns="http://www.w3.org/2000/svg">
<path fillRule="evenodd" clipRule="evenodd" d="M10.625 0.833313V15H9.375V0.833313H10.625Z" fill="#0B3F42"/>
<path fillRule="evenodd" clipRule="evenodd" d="M6.66684 10.7828L10.0002 14.1161L13.3335 10.7828L14.2174 11.6667L10.0002 15.8839L5.78296 11.6667L6.66684 10.7828Z" fill="#0B3F42"/>
<path fillRule="evenodd" clipRule="evenodd" d="M3.33341 8.95831C3.05715 8.95831 2.7922 9.06806 2.59685 9.26341C2.40149 9.45876 2.29175 9.72371 2.29175 9.99998V16.6666C2.29175 16.9429 2.40149 17.2079 2.59685 17.4032C2.7922 17.5986 3.05715 17.7083 3.33341 17.7083H16.6667C16.943 17.7083 17.208 17.5986 17.4033 17.4032C17.5987 17.2079 17.7084 16.9429 17.7084 16.6666V9.99998C17.7084 9.72371 17.5987 9.45876 17.4033 9.26341C17.208 9.06806 16.943 8.95831 16.6667 8.95831H13.5417V7.70831H16.6667C17.2745 7.70831 17.8574 7.94976 18.2872 8.37953C18.717 8.8093 18.9584 9.39219 18.9584 9.99998V16.6666C18.9584 17.2744 18.717 17.8573 18.2872 18.2871C17.8574 18.7169 17.2745 18.9583 16.6667 18.9583H3.33341C2.72563 18.9583 2.14273 18.7169 1.71296 18.2871C1.28319 17.8573 1.04175 17.2744 1.04175 16.6666V9.99998C1.04175 9.39219 1.28319 8.8093 1.71296 8.37953C2.14273 7.94976 2.72563 7.70831 3.33341 7.70831H6.45842V8.95831H3.33341Z" fill="#0B3F42"/>
</svg>
