<svg width="20" height="20" viewBox="0 0 20 20" fill="none" xmlns="http://www.w3.org/2000/svg" className="hover:fill-primary">
<g clipPath="url(#clip0_26476_45175)">
<path fillRule="evenodd" clipRule="evenodd" d="M1.45825 2.5C1.45825 3.07566 1.92426 3.54167 2.49992 3.54167H18.1249V10.625H16.8749V4.79167H2.49992C2.12478 4.79167 1.77075 4.70161 1.45825 4.54193V16.6667C1.45825 17.7023 2.2976 18.5417 3.33325 18.5417H16.8749V12.7083H18.1249V19.7917H3.33325C1.60724 19.7917 0.208252 18.3927 0.208252 16.6667V2.5H1.45825Z" fill="#0B3F42"/>
<path fillRule="evenodd" clipRule="evenodd" d="M0.208252 2.50004C0.208252 1.23403 1.23391 0.208374 2.49992 0.208374H14.7916V2.29171H13.5416V1.45837H2.49992C1.92426 1.45837 1.45825 1.92439 1.45825 2.50004C1.45825 3.0757 1.92426 3.54171 2.49992 3.54171H3.12492V4.79171H2.49992C1.23391 4.79171 0.208252 3.76605 0.208252 2.50004Z" fill="#0B3F42"/>
<path fillRule="evenodd" clipRule="evenodd" d="M14.9999 10.625C14.4243 10.625 13.9583 11.091 13.9583 11.6667C13.9583 12.2423 14.4243 12.7083 14.9999 12.7083H18.5416V10.625H14.9999ZM12.7083 11.6667C12.7083 10.4007 13.7339 9.375 14.9999 9.375H19.7916V13.9583H14.9999C13.7339 13.9583 12.7083 12.9327 12.7083 11.6667Z" fill="#0B3F42"/>
</g>
<defs>
<clipPath id="clip0_26476_45175">
<rect width="20" height="20" fill="white"/>
</clipPath>
</defs>
</svg>
